<svg width="45" height="45" viewBox="0 0 45 45" fill="none" xmlns="http://www.w3.org/2000/svg">
<g clip-path="url(#clip0_78_12)">
<path fill-rule="evenodd" clip-rule="evenodd" d="M10.3113 1.84495C10.5251 1.27969 10.9434 0.815334 11.4833 0.543876C12.0233 0.272418 12.6455 0.213659 13.2267 0.37924L24.8013 3.6771C25.3832 3.84305 25.8814 4.22175 26.197 4.73801C26.5126 5.25428 26.6225 5.87034 26.5049 6.46388L23.1428 23.5125C22.6885 25.8136 21.432 27.8786 19.5971 29.3397C17.7622 30.8008 15.4682 31.5629 13.1238 31.4903L10.9638 39.0664L13.3424 39.7446C13.9575 39.9198 14.4778 40.3321 14.7888 40.8909C15.0998 41.4497 15.1762 42.1092 15.001 42.7242C14.8258 43.3393 14.4135 43.8596 13.8547 44.1706C13.2959 44.4817 12.6364 44.558 12.0213 44.3828L7.43456 43.0714C7.35856 43.0536 7.28347 43.0322 7.20956 43.0071L2.61634 41.6989C2.00128 41.5233 1.48116 41.1105 1.17042 40.5514C0.859683 39.9923 0.783768 39.3327 0.959379 38.7176C1.13499 38.1026 1.54774 37.5825 2.10684 37.2717C2.66593 36.961 3.32556 36.8851 3.94063 37.0607L6.32563 37.7421L8.48563 30.166C6.45556 28.9917 4.9083 27.1348 4.11951 24.9262C3.33072 22.7176 3.35162 20.3007 4.17849 18.106L10.3113 1.84495ZM11.8574 11.4042L20.131 13.8664L21.346 7.7046L14.0399 5.62174L11.8574 11.4042ZM32.1492 31.7217C29.577 31.7217 27.1056 30.7212 25.2578 28.9317C26.1404 27.5072 26.7578 25.9347 27.0803 24.2903L29.3238 12.915L34.0778 11.7803L32.0496 5.8371L30.5646 6.20995C30.6202 4.53301 30.0181 2.90076 28.8867 1.66174L33.0267 0.623526C33.6135 0.475708 34.2344 0.55397 34.7661 0.842769C35.2979 1.13157 35.7016 1.60978 35.8971 2.18245L41.5092 18.63C42.2659 20.849 42.2105 23.2645 41.3528 25.4465C40.4952 27.6285 38.8911 29.4354 36.826 30.5453L38.7417 38.1857L41.1363 37.5846C41.7565 37.429 42.4131 37.5262 42.9616 37.8547C43.5102 38.1832 43.9058 38.7162 44.0613 39.3364C44.2169 39.9566 44.1198 40.6131 43.7912 41.1617C43.4627 41.7102 42.9297 42.1058 42.3096 42.2614L37.6713 43.425C37.6088 43.4437 37.5456 43.4598 37.4817 43.4732L32.8242 44.6432C32.204 44.7987 31.5474 44.7016 30.9989 44.3731C30.4503 44.0445 30.0548 43.5116 29.8992 42.8914C29.7436 42.2712 29.8408 41.6146 30.1693 41.0661C30.4978 40.5175 31.0308 40.122 31.651 39.9664L34.0649 39.3589L32.1492 31.7217Z" fill="#305CDE"/>
</g>
<defs>
<clipPath id="clip0_78_12">
<rect width="45" height="45" fill="white"/>
</clipPath>
</defs>
</svg>
