<svg width="27" height="33" viewBox="0 0 27 33" fill="none" xmlns="http://www.w3.org/2000/svg">
<path fill-rule="evenodd" clip-rule="evenodd" d="M17.113 0.666667C17.113 0.55616 17.0691 0.450179 16.9909 0.372039C16.9128 0.293899 16.8068 0.25 16.6963 0.25H5.02962C3.81405 0.25 2.64826 0.732886 1.78872 1.59243C0.929174 2.45197 0.446289 3.61776 0.446289 4.83333V28.1667C0.446289 29.3822 0.929174 30.548 1.78872 31.4076C2.64826 32.2671 3.81405 32.75 5.02962 32.75H21.6963C22.9119 32.75 24.0777 32.2671 24.9372 31.4076C25.7967 30.548 26.2796 29.3822 26.2796 28.1667V11.745C26.2796 11.6345 26.2357 11.5285 26.1576 11.4504C26.0794 11.3722 25.9735 11.3283 25.863 11.3283H18.363C18.0314 11.3283 17.7135 11.1966 17.4791 10.9622C17.2447 10.7278 17.113 10.4099 17.113 10.0783V0.666667ZM18.363 16.9167C18.6945 16.9167 19.0124 17.0484 19.2468 17.2828C19.4813 17.5172 19.613 17.8351 19.613 18.1667C19.613 18.4982 19.4813 18.8161 19.2468 19.0505C19.0124 19.285 18.6945 19.4167 18.363 19.4167H8.36296C8.03144 19.4167 7.71349 19.285 7.47907 19.0505C7.24465 18.8161 7.11296 18.4982 7.11296 18.1667C7.11296 17.8351 7.24465 17.5172 7.47907 17.2828C7.71349 17.0484 8.03144 16.9167 8.36296 16.9167H18.363ZM18.363 23.5833C18.6945 23.5833 19.0124 23.715 19.2468 23.9494C19.4813 24.1839 19.613 24.5018 19.613 24.8333C19.613 25.1649 19.4813 25.4828 19.2468 25.7172C19.0124 25.9516 18.6945 26.0833 18.363 26.0833H8.36296C8.03144 26.0833 7.71349 25.9516 7.47907 25.7172C7.24465 25.4828 7.11296 25.1649 7.11296 24.8333C7.11296 24.5018 7.24465 24.1839 7.47907 23.9494C7.71349 23.715 8.03144 23.5833 8.36296 23.5833H18.363Z" fill="#305CDE"/>
</svg>
