<svg width="369" height="397" viewBox="0 0 369 397" fill="none" xmlns="http://www.w3.org/2000/svg">
<rect width="369" height="397" rx="20" fill="#EFF3FF"/>
<path d="M106.25 51.75C102.846 55.0081 98.7961 57.5163 94.3625 59.1125C89.6875 59.9375 76.75 53.9375 70.375 60.0625C69.3125 61.125 68 62.1875 66.625 63.25C63.625 61.9375 59 59.9375 55.625 58C52.25 56.0625 43.75 51.75 43.75 51.75L25 73.625C25 73.625 29.625 79.875 32.5 84C34.375 86.75 36.6875 90.9375 38.1875 93.75L36.0625 96.25C35.5536 97.2609 35.3705 98.4047 35.5384 99.5239C35.7063 100.643 36.2169 101.683 37 102.5C37.9039 103.178 39.0037 103.543 40.1333 103.541C41.263 103.538 42.3613 103.169 43.2625 102.488C42.9284 102.879 42.6755 103.333 42.5186 103.823C42.3617 104.313 42.304 104.829 42.3488 105.342C42.3936 105.854 42.54 106.353 42.7795 106.808C43.019 107.263 43.3468 107.666 43.7438 107.994C44.6981 108.551 45.784 108.844 46.8892 108.842C47.9944 108.839 49.0791 108.542 50.0313 107.981C49.3172 108.871 48.9264 109.977 48.923 111.119C48.9196 112.26 49.3037 113.368 50.0125 114.262C50.9338 114.581 51.9164 114.683 52.8835 114.559C53.8506 114.436 54.776 114.09 55.5875 113.55C55.1832 114.507 55.0785 115.564 55.2872 116.581C55.4958 117.599 56.008 118.529 56.7562 119.25C57.8132 119.72 58.972 119.913 60.1242 119.813C61.2764 119.712 62.3842 119.321 63.3438 118.675L66.5688 115.756C69.5188 118.694 73.5875 120.512 78.0813 120.512L78.4625 120.506C79.9434 120.38 81.3621 119.853 82.5665 118.982C83.771 118.111 84.7159 116.929 85.3 115.563C86.2125 115.913 87.25 116.15 88.35 116.15C89.825 116.15 91.1938 115.725 92.35 114.994C96.0063 112.575 95.1312 110.7 95.1312 110.7C96.4314 111.26 97.8755 111.392 99.2558 111.079C100.636 110.766 101.881 110.022 102.812 108.956C103.78 107.967 104.39 106.683 104.546 105.307C104.702 103.932 104.396 102.544 103.675 101.362C103.715 101.386 103.76 101.397 103.806 101.394C106.438 101.394 108.725 99.9438 109.919 97.8063C110.506 96.287 110.705 94.6451 110.496 93.0297C110.288 91.4143 109.679 89.8765 108.725 88.5562L108.744 88.5875C113.869 87.5875 113.681 85.025 116.181 81.275C118.548 78.2148 121.494 75.6495 124.85 73.725L106.25 51.75ZM105.937 95.875C103.187 98.625 101.063 97.4375 96.375 93.875C91.6875 90.3125 82.375 83.625 82.375 83.625C82.7563 85.5313 83.6375 87.1875 84.8813 88.5062C86.875 90.75 92.8125 95.875 95.625 98.5C97.375 100.125 101.875 103.375 99.25 105.875C96.625 108.375 94.5625 105.875 90.25 102.375C85.9375 98.875 76.3125 90.25 76.3125 90.25C76.2595 91.0768 76.3825 91.9054 76.6734 92.6811C76.9643 93.4568 77.4164 94.162 78 94.75C79.0625 96 85 101.75 87.5 104.375C90 107 92.1875 108.563 90.0625 110.625C87.9375 112.688 83.625 109.438 81.25 107C77.5625 103.438 70.25 96.8125 70.25 96.8125L70.2437 97.1437C70.2437 98.9187 70.8562 100.544 71.8875 101.831C73.6875 104.194 77.1875 107.256 79.3125 109.631C81.4375 112.006 82.6875 114.006 79.3125 115.881C75.9375 117.756 70.9375 113.131 68.75 110.881V110.869C68.7504 110.251 68.5286 109.655 68.125 109.187C67.3774 108.495 66.455 108.02 65.4572 107.812C64.4593 107.605 63.4239 107.675 62.4625 108.012C62.8581 107.658 63.1752 107.225 63.3934 106.741C63.6117 106.257 63.7262 105.733 63.7298 105.202C63.7333 104.671 63.6257 104.145 63.4139 103.658C63.2021 103.172 62.8908 102.734 62.5 102.375C61.6796 101.753 60.6782 101.418 59.6489 101.419C58.6197 101.42 57.619 101.758 56.8 102.381C57.2141 101.986 57.5338 101.502 57.7354 100.966C57.9369 100.43 58.015 99.855 57.964 99.2846C57.9129 98.7141 57.734 98.1625 57.4405 97.6707C57.1471 97.1789 56.7465 96.7595 56.2687 96.4438C55.1499 95.7407 53.837 95.4104 52.5187 95.5003C51.2003 95.5901 49.9444 96.0955 48.9312 96.9437C49.6084 96.1231 49.9422 95.0725 49.863 94.0115C49.7838 92.9504 49.2977 91.9611 48.5062 91.25C47.5226 90.3344 46.2691 89.7618 44.933 89.6176C43.597 89.4734 42.2501 89.7654 41.0938 90.45L36.9375 83.4313C34.0625 78.8688 30.6875 74.1187 30.6875 74.1187L44.9375 56.8063C44.9375 56.8063 50 59.9313 54.1875 62.3063C56.25 63.4938 59.8125 65.0562 62.5 66.3062C58.25 69.4937 54.6875 72.5563 55.75 74.6813C57.6435 76.0405 59.9063 76.7902 62.2367 76.8304C64.5672 76.8706 66.8545 76.1994 68.7937 74.9062C71.2802 73.2533 74.2018 72.3766 77.1875 72.3875C79.3563 72.3875 81.4188 72.8375 83.2875 73.6563C86.75 75.9938 93.125 81.7437 98.9375 85.3687C106.25 90.6812 107.687 94.1188 105.937 95.8688V95.875Z" fill="#305CDE"/>
<path d="M27.152 188V166.182H41.3423V169.495H31.1044V175.418H40.6072V178.732H31.1044V184.687H41.4276V188H27.152ZM56.1239 194.136V185.422H55.9641C55.7653 185.82 55.4776 186.242 55.1012 186.69C54.7248 187.13 54.2276 187.506 53.6097 187.819C52.9918 188.131 52.2141 188.288 51.2766 188.288C49.9911 188.288 48.8406 187.957 47.8249 187.297C46.8093 186.636 46.0067 185.678 45.4173 184.42C44.8278 183.163 44.533 181.636 44.533 179.839C44.533 178.021 44.8313 176.487 45.4279 175.237C46.0316 173.98 46.8448 173.032 47.8675 172.393C48.8903 171.746 50.0302 171.423 51.2873 171.423C52.2461 171.423 53.0344 171.587 53.6523 171.913C54.2702 172.233 54.7603 172.62 55.1225 173.075C55.4847 173.522 55.7653 173.945 55.9641 174.342H56.1985V171.636H59.9911V194.136H56.1239ZM52.3526 185.124C53.1694 185.124 53.8654 184.903 54.4407 184.463C55.016 184.016 55.4528 183.394 55.7511 182.599C56.0494 181.803 56.1985 180.876 56.1985 179.818C56.1985 178.76 56.0494 177.84 55.7511 177.059C55.4599 176.278 55.0266 175.67 54.4513 175.237C53.8832 174.804 53.1836 174.587 52.3526 174.587C51.4933 174.587 50.7759 174.811 50.2006 175.259C49.6254 175.706 49.1921 176.324 48.9009 177.112C48.6097 177.901 48.4641 178.803 48.4641 179.818C48.4641 180.841 48.6097 181.754 48.9009 182.556C49.1992 183.352 49.636 183.98 50.2113 184.442C50.7937 184.896 51.5075 185.124 52.3526 185.124ZM74.3839 181.118V171.636H78.2404V188H74.5011V185.092H74.3306C73.9613 186.008 73.354 186.757 72.5089 187.339C71.6708 187.922 70.6374 188.213 69.4087 188.213C68.3363 188.213 67.3881 187.975 66.5643 187.499C65.7475 187.016 65.1083 186.317 64.6467 185.401C64.185 184.477 63.9542 183.362 63.9542 182.055V171.636H67.8107V181.459C67.8107 182.496 68.0948 183.32 68.663 183.93C69.2312 184.541 69.9769 184.847 70.9002 184.847C71.4684 184.847 72.0188 184.708 72.5515 184.431C73.0842 184.154 73.521 183.742 73.8619 183.195C74.2099 182.641 74.3839 181.949 74.3839 181.118ZM86.915 188.33C85.878 188.33 84.9441 188.146 84.1131 187.776C83.2892 187.4 82.6358 186.846 82.1529 186.114C81.677 185.383 81.4391 184.481 81.4391 183.408C81.4391 182.485 81.6096 181.722 81.9505 181.118C82.2914 180.514 82.7566 180.031 83.3461 179.669C83.9355 179.307 84.5996 179.033 85.3382 178.849C86.084 178.657 86.8546 178.518 87.65 178.433C88.6088 178.334 89.3865 178.245 89.9831 178.167C90.5797 178.082 91.013 177.954 91.2828 177.783C91.5598 177.606 91.6983 177.332 91.6983 176.963V176.899C91.6983 176.097 91.4604 175.475 90.9846 175.035C90.5087 174.594 89.8233 174.374 88.9284 174.374C87.9838 174.374 87.2346 174.58 86.6806 174.992C86.1337 175.404 85.7644 175.891 85.5726 176.452L81.9718 175.94C82.2559 174.946 82.7246 174.115 83.378 173.447C84.0314 172.773 84.8304 172.268 85.775 171.935C86.7196 171.594 87.7637 171.423 88.9071 171.423C89.6955 171.423 90.4803 171.516 91.2615 171.7C92.0428 171.885 92.7566 172.19 93.4029 172.616C94.0492 173.036 94.5676 173.607 94.9583 174.332C95.356 175.056 95.5549 175.962 95.5549 177.048V188H91.8475V185.752H91.7196C91.4853 186.207 91.155 186.633 90.7289 187.031C90.3098 187.421 89.7807 187.737 89.1415 187.979C88.5094 188.213 87.7672 188.33 86.915 188.33ZM87.9164 185.496C88.6905 185.496 89.3617 185.344 89.9299 185.038C90.498 184.726 90.9348 184.314 91.2402 183.803C91.5527 183.291 91.709 182.734 91.709 182.13V180.202C91.5882 180.301 91.3823 180.393 91.0911 180.479C90.807 180.564 90.4874 180.638 90.1323 180.702C89.7772 180.766 89.4256 180.823 89.0776 180.873C88.7296 180.923 88.4277 180.965 88.1721 181.001C87.5968 181.079 87.0819 181.207 86.6273 181.384C86.1728 181.562 85.8141 181.81 85.5513 182.13C85.2885 182.442 85.1571 182.847 85.1571 183.344C85.1571 184.055 85.4164 184.591 85.9348 184.953C86.4533 185.315 87.1138 185.496 87.9164 185.496ZM103.289 166.182V188H99.4327V166.182H103.289ZM117.669 188H113.45L121.131 166.182H126.01L133.702 188H129.483L123.656 170.656H123.485L117.669 188ZM117.807 179.445H129.313V182.62H117.807V179.445ZM143.045 188.32C141.412 188.32 140.009 187.961 138.837 187.244C137.672 186.526 136.774 185.536 136.142 184.271C135.517 183 135.204 181.537 135.204 179.882C135.204 178.22 135.524 176.754 136.163 175.482C136.802 174.204 137.704 173.21 138.869 172.499C140.041 171.782 141.426 171.423 143.024 171.423C144.352 171.423 145.527 171.668 146.55 172.158C147.58 172.641 148.4 173.327 149.011 174.214C149.622 175.095 149.97 176.125 150.055 177.304H146.369C146.22 176.516 145.865 175.859 145.304 175.333C144.75 174.8 144.007 174.534 143.077 174.534C142.289 174.534 141.596 174.747 141 175.173C140.403 175.592 139.938 176.196 139.604 176.984C139.277 177.773 139.114 178.717 139.114 179.818C139.114 180.933 139.277 181.892 139.604 182.695C139.931 183.49 140.389 184.104 140.978 184.538C141.575 184.964 142.275 185.177 143.077 185.177C143.645 185.177 144.153 185.07 144.6 184.857C145.055 184.637 145.435 184.321 145.74 183.909C146.046 183.497 146.255 182.996 146.369 182.407H150.055C149.963 183.565 149.622 184.591 149.032 185.486C148.443 186.374 147.64 187.07 146.625 187.574C145.609 188.071 144.416 188.32 143.045 188.32ZM160.36 188.32C158.726 188.32 157.323 187.961 156.151 187.244C154.987 186.526 154.088 185.536 153.456 184.271C152.831 183 152.519 181.537 152.519 179.882C152.519 178.22 152.838 176.754 153.477 175.482C154.117 174.204 155.019 173.21 156.183 172.499C157.355 171.782 158.74 171.423 160.338 171.423C161.666 171.423 162.842 171.668 163.865 172.158C164.894 172.641 165.715 173.327 166.325 174.214C166.936 175.095 167.284 176.125 167.369 177.304H163.683C163.534 176.516 163.179 175.859 162.618 175.333C162.064 174.8 161.322 174.534 160.392 174.534C159.603 174.534 158.911 174.747 158.314 175.173C157.718 175.592 157.252 176.196 156.919 176.984C156.592 177.773 156.428 178.717 156.428 179.818C156.428 180.933 156.592 181.892 156.919 182.695C157.245 183.49 157.703 184.104 158.293 184.538C158.889 184.964 159.589 185.177 160.392 185.177C160.96 185.177 161.468 185.07 161.915 184.857C162.369 184.637 162.749 184.321 163.055 183.909C163.36 183.497 163.57 182.996 163.683 182.407H167.369C167.277 183.565 166.936 184.591 166.347 185.486C165.757 186.374 164.955 187.07 163.939 187.574C162.923 188.071 161.73 188.32 160.36 188.32ZM177.781 188.32C176.14 188.32 174.723 187.979 173.53 187.297C172.344 186.608 171.431 185.635 170.792 184.378C170.153 183.114 169.833 181.626 169.833 179.914C169.833 178.231 170.153 176.754 170.792 175.482C171.438 174.204 172.34 173.21 173.498 172.499C174.656 171.782 176.016 171.423 177.578 171.423C178.587 171.423 179.538 171.587 180.433 171.913C181.335 172.233 182.131 172.73 182.82 173.405C183.516 174.08 184.063 174.939 184.46 175.983C184.858 177.02 185.057 178.256 185.057 179.69V180.873H171.644V178.273H181.36C181.353 177.535 181.193 176.878 180.881 176.303C180.568 175.72 180.131 175.262 179.57 174.928C179.016 174.594 178.37 174.428 177.631 174.428C176.843 174.428 176.151 174.619 175.554 175.003C174.957 175.379 174.492 175.876 174.158 176.494C173.832 177.105 173.665 177.776 173.658 178.508V180.777C173.658 181.729 173.832 182.545 174.18 183.227C174.528 183.902 175.014 184.42 175.639 184.783C176.264 185.138 176.996 185.315 177.834 185.315C178.395 185.315 178.903 185.237 179.357 185.081C179.812 184.918 180.206 184.68 180.54 184.367C180.874 184.055 181.126 183.668 181.296 183.206L184.897 183.611C184.67 184.562 184.237 185.393 183.597 186.104C182.965 186.807 182.156 187.354 181.168 187.744C180.181 188.128 179.052 188.32 177.781 188.32ZM201.253 175.962L197.737 176.345C197.638 175.99 197.464 175.656 197.215 175.344C196.974 175.031 196.647 174.779 196.235 174.587C195.823 174.396 195.319 174.3 194.722 174.3C193.92 174.3 193.245 174.474 192.698 174.822C192.158 175.17 191.892 175.621 191.899 176.175C191.892 176.651 192.066 177.038 192.421 177.336C192.783 177.634 193.38 177.879 194.211 178.071L197.002 178.668C198.55 179.001 199.701 179.531 200.454 180.255C201.214 180.979 201.597 181.928 201.604 183.099C201.597 184.129 201.295 185.038 200.699 185.827C200.109 186.608 199.289 187.219 198.238 187.659C197.187 188.099 195.979 188.32 194.616 188.32C192.613 188.32 191.001 187.901 189.779 187.062C188.557 186.217 187.829 185.042 187.595 183.536L191.356 183.174C191.526 183.913 191.888 184.47 192.442 184.847C192.996 185.223 193.717 185.411 194.605 185.411C195.521 185.411 196.256 185.223 196.81 184.847C197.371 184.47 197.652 184.005 197.652 183.451C197.652 182.982 197.471 182.595 197.108 182.29C196.753 181.984 196.199 181.75 195.447 181.587L192.655 181.001C191.086 180.674 189.925 180.124 189.172 179.349C188.419 178.568 188.046 177.581 188.053 176.388C188.046 175.379 188.319 174.506 188.873 173.767C189.434 173.021 190.212 172.446 191.206 172.041C192.208 171.629 193.362 171.423 194.669 171.423C196.586 171.423 198.096 171.832 199.197 172.648C200.305 173.465 200.99 174.57 201.253 175.962ZM217.718 175.962L214.202 176.345C214.102 175.99 213.928 175.656 213.68 175.344C213.438 175.031 213.112 174.779 212.7 174.587C212.288 174.396 211.784 174.3 211.187 174.3C210.384 174.3 209.71 174.474 209.163 174.822C208.623 175.17 208.357 175.621 208.364 176.175C208.357 176.651 208.531 177.038 208.886 177.336C209.248 177.634 209.845 177.879 210.676 178.071L213.467 178.668C215.015 179.001 216.166 179.531 216.919 180.255C217.678 180.979 218.062 181.928 218.069 183.099C218.062 184.129 217.76 185.038 217.164 185.827C216.574 186.608 215.754 187.219 214.703 187.659C213.651 188.099 212.444 188.32 211.08 188.32C209.078 188.32 207.465 187.901 206.244 187.062C205.022 186.217 204.294 185.042 204.06 183.536L207.82 183.174C207.991 183.913 208.353 184.47 208.907 184.847C209.461 185.223 210.182 185.411 211.07 185.411C211.986 185.411 212.721 185.223 213.275 184.847C213.836 184.47 214.117 184.005 214.117 183.451C214.117 182.982 213.936 182.595 213.573 182.29C213.218 181.984 212.664 181.75 211.911 181.587L209.12 181.001C207.551 180.674 206.389 180.124 205.637 179.349C204.884 178.568 204.511 177.581 204.518 176.388C204.511 175.379 204.784 174.506 205.338 173.767C205.899 173.021 206.677 172.446 207.671 172.041C208.673 171.629 209.827 171.423 211.134 171.423C213.051 171.423 214.561 171.832 215.661 172.648C216.769 173.465 217.455 174.57 217.718 175.962ZM236.862 171.636V174.619H227.455V171.636H236.862ZM229.777 167.716H233.634V183.078C233.634 183.597 233.712 183.994 233.868 184.271C234.031 184.541 234.244 184.726 234.507 184.825C234.77 184.925 235.061 184.974 235.381 184.974C235.622 184.974 235.843 184.957 236.041 184.921C236.247 184.886 236.404 184.854 236.51 184.825L237.16 187.84C236.954 187.911 236.659 187.989 236.276 188.075C235.899 188.16 235.438 188.21 234.891 188.224C233.925 188.252 233.055 188.107 232.281 187.787C231.507 187.46 230.892 186.956 230.438 186.274C229.99 185.592 229.77 184.74 229.777 183.717V167.716ZM247.049 188.32C245.451 188.32 244.066 187.968 242.894 187.265C241.722 186.562 240.813 185.578 240.167 184.314C239.528 183.05 239.208 181.572 239.208 179.882C239.208 178.192 239.528 176.711 240.167 175.44C240.813 174.168 241.722 173.181 242.894 172.478C244.066 171.775 245.451 171.423 247.049 171.423C248.647 171.423 250.032 171.775 251.204 172.478C252.376 173.181 253.281 174.168 253.92 175.44C254.567 176.711 254.89 178.192 254.89 179.882C254.89 181.572 254.567 183.05 253.92 184.314C253.281 185.578 252.376 186.562 251.204 187.265C250.032 187.968 248.647 188.32 247.049 188.32ZM247.07 185.23C247.937 185.23 248.661 184.992 249.244 184.516C249.826 184.033 250.259 183.387 250.543 182.577C250.835 181.768 250.98 180.866 250.98 179.871C250.98 178.87 250.835 177.964 250.543 177.155C250.259 176.338 249.826 175.688 249.244 175.205C248.661 174.722 247.937 174.481 247.07 174.481C246.183 174.481 245.444 174.722 244.854 175.205C244.272 175.688 243.835 176.338 243.544 177.155C243.26 177.964 243.118 178.87 243.118 179.871C243.118 180.866 243.26 181.768 243.544 182.577C243.835 183.387 244.272 184.033 244.854 184.516C245.444 184.992 246.183 185.23 247.07 185.23ZM27.152 224V202.182H35.3338C37.0099 202.182 38.4162 202.473 39.5526 203.055C40.696 203.638 41.5589 204.455 42.1413 205.506C42.7308 206.55 43.0256 207.768 43.0256 209.16C43.0256 210.559 42.7273 211.773 42.1307 212.803C41.5412 213.826 40.6712 214.618 39.5206 215.179C38.37 215.733 36.9567 216.01 35.2805 216.01H29.4531V212.729H34.7479C35.728 212.729 36.5305 212.594 37.1555 212.324C37.7805 212.047 38.2422 211.646 38.5405 211.12C38.8459 210.587 38.9986 209.934 38.9986 209.16C38.9986 208.386 38.8459 207.725 38.5405 207.178C38.2351 206.624 37.7699 206.205 37.1449 205.921C36.5199 205.63 35.7138 205.484 34.7266 205.484H31.1044V224H27.152ZM38.4233 214.114L43.8246 224H39.4141L34.1087 214.114H38.4233ZM53.5032 224.32C51.8626 224.32 50.4457 223.979 49.2525 223.297C48.0664 222.608 47.1538 221.635 46.5146 220.378C45.8754 219.114 45.5558 217.626 45.5558 215.914C45.5558 214.231 45.8754 212.754 46.5146 211.482C47.1609 210.204 48.0629 209.21 49.2205 208.499C50.3782 207.782 51.7383 207.423 53.3008 207.423C54.3093 207.423 55.261 207.587 56.1559 207.913C57.0579 208.233 57.8533 208.73 58.5423 209.405C59.2383 210.08 59.7852 210.939 60.1829 211.983C60.5806 213.02 60.7795 214.256 60.7795 215.69V216.873H47.3668V214.273H57.0827C57.0756 213.535 56.9158 212.878 56.6033 212.303C56.2908 211.72 55.854 211.262 55.293 210.928C54.739 210.594 54.0927 210.428 53.354 210.428C52.5657 210.428 51.8732 210.619 51.2766 211.003C50.68 211.379 50.2148 211.876 49.881 212.494C49.5543 213.105 49.3874 213.776 49.3803 214.508V216.777C49.3803 217.729 49.5543 218.545 49.9023 219.227C50.2504 219.902 50.7369 220.42 51.3619 220.783C51.9869 221.138 52.7184 221.315 53.5565 221.315C54.1175 221.315 54.6254 221.237 55.0799 221.081C55.5344 220.918 55.9286 220.68 56.2624 220.367C56.5962 220.055 56.8484 219.668 57.0188 219.206L60.6197 219.611C60.3924 220.562 59.9592 221.393 59.32 222.104C58.6879 222.807 57.8782 223.354 56.891 223.744C55.9038 224.128 54.7745 224.32 53.5032 224.32ZM76.9753 211.962L73.4597 212.345C73.3603 211.99 73.1863 211.656 72.9377 211.344C72.6962 211.031 72.3695 210.779 71.9576 210.587C71.5456 210.396 71.0414 210.3 70.4448 210.3C69.6422 210.3 68.9675 210.474 68.4206 210.822C67.8809 211.17 67.6145 211.621 67.6216 212.175C67.6145 212.651 67.7885 213.038 68.1436 213.336C68.5059 213.634 69.1025 213.879 69.9334 214.071L72.7246 214.668C74.2729 215.001 75.4235 215.531 76.1763 216.255C76.9363 216.979 77.3198 217.928 77.3269 219.099C77.3198 220.129 77.0179 221.038 76.4213 221.827C75.8319 222.608 75.0115 223.219 73.9604 223.659C72.9093 224.099 71.7019 224.32 70.3382 224.32C68.3354 224.32 66.7232 223.901 65.5016 223.062C64.28 222.217 63.552 221.042 63.3176 219.536L67.0783 219.174C67.2488 219.913 67.611 220.47 68.165 220.847C68.7189 221.223 69.4398 221.411 70.3276 221.411C71.2438 221.411 71.9789 221.223 72.5328 220.847C73.0939 220.47 73.3745 220.005 73.3745 219.451C73.3745 218.982 73.1934 218.595 72.8311 218.29C72.476 217.984 71.9221 217.75 71.1692 217.587L68.378 217.001C66.8084 216.674 65.6472 216.124 64.8944 215.349C64.1415 214.568 63.7686 213.581 63.7757 212.388C63.7686 211.379 64.0421 210.506 64.5961 209.767C65.1571 209.021 65.9348 208.446 66.9292 208.041C67.9306 207.629 69.0847 207.423 70.3915 207.423C72.3091 207.423 73.8184 207.832 74.9192 208.648C76.0272 209.465 76.7125 210.57 76.9753 211.962ZM87.6447 224.32C86.0467 224.32 84.6618 223.968 83.4899 223.265C82.318 222.562 81.4089 221.578 80.7626 220.314C80.1234 219.05 79.8038 217.572 79.8038 215.882C79.8038 214.192 80.1234 212.711 80.7626 211.44C81.4089 210.168 82.318 209.181 83.4899 208.478C84.6618 207.775 86.0467 207.423 87.6447 207.423C89.2427 207.423 90.6277 207.775 91.7995 208.478C92.9714 209.181 93.877 210.168 94.5162 211.44C95.1625 212.711 95.4856 214.192 95.4856 215.882C95.4856 217.572 95.1625 219.05 94.5162 220.314C93.877 221.578 92.9714 222.562 91.7995 223.265C90.6277 223.968 89.2427 224.32 87.6447 224.32ZM87.666 221.23C88.5325 221.23 89.2569 220.992 89.8393 220.516C90.4217 220.033 90.8549 219.387 91.139 218.577C91.4302 217.768 91.5758 216.866 91.5758 215.871C91.5758 214.87 91.4302 213.964 91.139 213.155C90.8549 212.338 90.4217 211.688 89.8393 211.205C89.2569 210.722 88.5325 210.481 87.666 210.481C86.7782 210.481 86.0396 210.722 85.4501 211.205C84.8677 211.688 84.4309 212.338 84.1397 213.155C83.8556 213.964 83.7136 214.87 83.7136 215.871C83.7136 216.866 83.8556 217.768 84.1397 218.577C84.4309 219.387 84.8677 220.033 85.4501 220.516C86.0396 220.992 86.7782 221.23 87.666 221.23ZM109.189 217.118V207.636H113.045V224H109.306V221.092H109.135C108.766 222.008 108.159 222.757 107.314 223.339C106.475 223.922 105.442 224.213 104.213 224.213C103.141 224.213 102.193 223.975 101.369 223.499C100.552 223.016 99.913 222.317 99.4513 221.401C98.9897 220.477 98.7589 219.362 98.7589 218.055V207.636H102.615V217.459C102.615 218.496 102.9 219.32 103.468 219.93C104.036 220.541 104.782 220.847 105.705 220.847C106.273 220.847 106.824 220.708 107.356 220.431C107.889 220.154 108.326 219.742 108.667 219.195C109.015 218.641 109.189 217.949 109.189 217.118ZM117.011 224V207.636H120.75V210.364H120.921C121.219 209.419 121.73 208.691 122.455 208.18C123.186 207.661 124.021 207.402 124.958 207.402C125.171 207.402 125.409 207.413 125.672 207.434C125.942 207.448 126.166 207.473 126.343 207.509V211.056C126.18 210.999 125.921 210.95 125.566 210.907C125.218 210.857 124.88 210.832 124.553 210.832C123.85 210.832 123.218 210.985 122.657 211.29C122.103 211.589 121.666 212.004 121.347 212.537C121.027 213.07 120.867 213.684 120.867 214.38V224H117.011ZM135.369 224.32C133.736 224.32 132.333 223.961 131.161 223.244C129.996 222.526 129.098 221.536 128.466 220.271C127.841 219 127.528 217.537 127.528 215.882C127.528 214.22 127.848 212.754 128.487 211.482C129.126 210.204 130.028 209.21 131.193 208.499C132.365 207.782 133.75 207.423 135.348 207.423C136.676 207.423 137.852 207.668 138.874 208.158C139.904 208.641 140.724 209.327 141.335 210.214C141.946 211.095 142.294 212.125 142.379 213.304H138.693C138.544 212.516 138.189 211.859 137.628 211.333C137.074 210.8 136.332 210.534 135.401 210.534C134.613 210.534 133.92 210.747 133.324 211.173C132.727 211.592 132.262 212.196 131.928 212.984C131.602 213.773 131.438 214.717 131.438 215.818C131.438 216.933 131.602 217.892 131.928 218.695C132.255 219.49 132.713 220.104 133.303 220.538C133.899 220.964 134.599 221.177 135.401 221.177C135.969 221.177 136.477 221.07 136.925 220.857C137.379 220.637 137.759 220.321 138.065 219.909C138.37 219.497 138.58 218.996 138.693 218.407H142.379C142.287 219.565 141.946 220.591 141.357 221.486C140.767 222.374 139.964 223.07 138.949 223.574C137.933 224.071 136.74 224.32 135.369 224.32ZM152.79 224.32C151.15 224.32 149.733 223.979 148.54 223.297C147.354 222.608 146.441 221.635 145.802 220.378C145.162 219.114 144.843 217.626 144.843 215.914C144.843 214.231 145.162 212.754 145.802 211.482C146.448 210.204 147.35 209.21 148.508 208.499C149.665 207.782 151.025 207.423 152.588 207.423C153.596 207.423 154.548 207.587 155.443 207.913C156.345 208.233 157.14 208.73 157.829 209.405C158.525 210.08 159.072 210.939 159.47 211.983C159.868 213.02 160.067 214.256 160.067 215.69V216.873H146.654V214.273H156.37C156.363 213.535 156.203 212.878 155.89 212.303C155.578 211.72 155.141 211.262 154.58 210.928C154.026 210.594 153.38 210.428 152.641 210.428C151.853 210.428 151.16 210.619 150.564 211.003C149.967 211.379 149.502 211.876 149.168 212.494C148.841 213.105 148.675 213.776 148.667 214.508V216.777C148.667 217.729 148.841 218.545 149.189 219.227C149.537 219.902 150.024 220.42 150.649 220.783C151.274 221.138 152.006 221.315 152.844 221.315C153.405 221.315 153.912 221.237 154.367 221.081C154.822 220.918 155.216 220.68 155.55 220.367C155.883 220.055 156.135 219.668 156.306 219.206L159.907 219.611C159.68 220.562 159.246 221.393 158.607 222.104C157.975 222.807 157.165 223.354 156.178 223.744C155.191 224.128 154.062 224.32 152.79 224.32ZM176.262 211.962L172.747 212.345C172.647 211.99 172.473 211.656 172.225 211.344C171.983 211.031 171.657 210.779 171.245 210.587C170.833 210.396 170.328 210.3 169.732 210.3C168.929 210.3 168.255 210.474 167.708 210.822C167.168 211.17 166.902 211.621 166.909 212.175C166.902 212.651 167.076 213.038 167.431 213.336C167.793 213.634 168.39 213.879 169.221 214.071L172.012 214.668C173.56 215.001 174.711 215.531 175.463 216.255C176.223 216.979 176.607 217.928 176.614 219.099C176.607 220.129 176.305 221.038 175.708 221.827C175.119 222.608 174.299 223.219 173.248 223.659C172.196 224.099 170.989 224.32 169.625 224.32C167.623 224.32 166.01 223.901 164.789 223.062C163.567 222.217 162.839 221.042 162.605 219.536L166.365 219.174C166.536 219.913 166.898 220.47 167.452 220.847C168.006 221.223 168.727 221.411 169.615 221.411C170.531 221.411 171.266 221.223 171.82 220.847C172.381 220.47 172.662 220.005 172.662 219.451C172.662 218.982 172.48 218.595 172.118 218.29C171.763 217.984 171.209 217.75 170.456 217.587L167.665 217.001C166.096 216.674 164.934 216.124 164.181 215.349C163.429 214.568 163.056 213.581 163.063 212.388C163.056 211.379 163.329 210.506 163.883 209.767C164.444 209.021 165.222 208.446 166.216 208.041C167.218 207.629 168.372 207.423 169.679 207.423C171.596 207.423 173.105 207.832 174.206 208.648C175.314 209.465 176 210.57 176.262 211.962Z" fill="black"/>
<path d="M26.9318 279V264.455H31.8395C32.7865 264.455 33.5748 264.62 34.2045 264.952C34.839 265.283 35.3149 265.735 35.6321 266.308C35.9493 266.881 36.108 267.532 36.108 268.261C36.108 268.867 36.0062 269.386 35.8026 269.817C35.599 270.248 35.322 270.596 34.9716 270.861C34.6212 271.126 34.2306 271.318 33.7997 271.436V271.55C34.2685 271.583 34.723 271.749 35.1634 272.047C35.6037 272.34 35.9659 272.752 36.25 273.283C36.5341 273.813 36.6761 274.447 36.6761 275.186C36.6761 275.92 36.5128 276.576 36.1861 277.153C35.8594 277.726 35.3575 278.179 34.6804 278.51C34.008 278.837 33.151 279 32.1094 279H26.9318ZM28.2599 277.807H32.1094C33.2315 277.807 34.0601 277.558 34.5952 277.061C35.1349 276.564 35.4048 275.939 35.4048 275.186C35.4048 274.632 35.2699 274.13 35 273.68C34.7348 273.226 34.3584 272.866 33.8707 272.601C33.3878 272.336 32.8196 272.203 32.1662 272.203H28.2599V277.807ZM28.2599 271.024H31.9602C32.5331 271.024 33.035 270.906 33.4659 270.669C33.8968 270.432 34.233 270.106 34.4744 269.689C34.7159 269.272 34.8366 268.796 34.8366 268.261C34.8366 267.49 34.5857 266.862 34.0838 266.379C33.5819 265.892 32.8338 265.648 31.8395 265.648H28.2599V271.024ZM39.6183 279V268.091H40.8469V269.767H40.9393C41.1571 269.218 41.5359 268.775 42.0756 268.439C42.6201 268.098 43.2357 267.928 43.9222 267.928C44.0264 267.928 44.1424 267.93 44.2702 267.935C44.3981 267.939 44.5046 267.944 44.5898 267.949V269.234C44.533 269.225 44.4336 269.211 44.2915 269.192C44.1495 269.173 43.9956 269.163 43.8299 269.163C43.2617 269.163 42.7551 269.284 42.31 269.526C41.8697 269.762 41.5217 270.091 41.266 270.513C41.0103 270.934 40.8825 271.415 40.8825 271.955V279H39.6183ZM50.8256 279.227C49.8076 279.227 48.927 278.991 48.1836 278.517C47.4402 278.039 46.8649 277.378 46.4577 276.536C46.0553 275.688 45.854 274.713 45.854 273.609C45.854 272.511 46.0553 271.536 46.4577 270.683C46.8649 269.826 47.426 269.156 48.141 268.673C48.8607 268.186 49.6916 267.942 50.6339 267.942C51.2257 267.942 51.7963 268.051 52.3455 268.268C52.8948 268.482 53.3872 268.811 53.8228 269.256C54.2631 269.696 54.6112 270.252 54.8668 270.925C55.1225 271.592 55.2504 272.383 55.2504 273.297V273.922H46.7276V272.807H53.9577C53.9577 272.106 53.8157 271.476 53.5316 270.918C53.2522 270.354 52.8616 269.909 52.3597 269.582C51.8626 269.256 51.2873 269.092 50.6339 269.092C49.9426 269.092 49.3342 269.277 48.8086 269.646C48.283 270.016 47.8711 270.503 47.5728 271.109C47.2792 271.715 47.1301 272.378 47.1254 273.098V273.766C47.1254 274.632 47.2745 275.39 47.5728 276.038C47.8758 276.682 48.3043 277.182 48.8583 277.537C49.4123 277.892 50.0681 278.07 50.8256 278.07C51.3417 278.07 51.7939 277.989 52.1822 277.828C52.5752 277.667 52.9042 277.452 53.1694 277.182C53.4393 276.907 53.6429 276.607 53.7802 276.28L54.9805 276.67C54.8147 277.13 54.5425 277.554 54.1637 277.942C53.7897 278.33 53.3209 278.643 52.7575 278.879C52.1987 279.111 51.5548 279.227 50.8256 279.227ZM61.0831 279.249C60.425 279.249 59.8236 279.121 59.2791 278.865C58.7346 278.605 58.3014 278.231 57.9794 277.743C57.6574 277.25 57.4964 276.654 57.4964 275.953C57.4964 275.413 57.5982 274.959 57.8018 274.589C58.0054 274.22 58.2943 273.917 58.6683 273.68C59.0424 273.444 59.4851 273.257 59.9964 273.119C60.5078 272.982 61.0713 272.875 61.6868 272.8C62.2976 272.724 62.8137 272.658 63.2351 272.601C63.6612 272.544 63.9856 272.454 64.2081 272.331C64.4306 272.208 64.5419 272.009 64.5419 271.734V271.479C64.5419 270.735 64.3194 270.151 63.8743 269.724C63.4339 269.294 62.7995 269.078 61.9709 269.078C61.1849 269.078 60.5433 269.251 60.0462 269.597C59.5537 269.942 59.2081 270.349 59.0092 270.818L57.8089 270.385C58.0552 269.788 58.3961 269.312 58.8317 268.957C59.2673 268.598 59.755 268.339 60.2947 268.183C60.8345 268.022 61.3814 267.942 61.9354 267.942C62.352 267.942 62.7853 267.996 63.2351 268.105C63.6896 268.214 64.111 268.403 64.4993 268.673C64.8875 268.938 65.2024 269.31 65.4439 269.788C65.6854 270.262 65.8061 270.863 65.8061 271.592V279H64.5419V277.274H64.4638C64.3123 277.596 64.0874 277.909 63.7891 278.212C63.4908 278.515 63.1167 278.763 62.6669 278.957C62.2171 279.152 61.6892 279.249 61.0831 279.249ZM61.2536 278.091C61.9259 278.091 62.5083 277.942 63.0007 277.643C63.4931 277.345 63.8719 276.95 64.1371 276.457C64.407 275.96 64.5419 275.413 64.5419 274.817V273.24C64.4472 273.33 64.2886 273.411 64.0661 273.482C63.8482 273.553 63.5949 273.616 63.3061 273.673C63.022 273.725 62.7379 273.77 62.4538 273.808C62.1697 273.846 61.9141 273.879 61.6868 273.908C61.0713 273.983 60.5457 274.102 60.1101 274.263C59.6745 274.424 59.3407 274.646 59.1087 274.93C58.8767 275.21 58.7607 275.57 58.7607 276.01C58.7607 276.673 58.9974 277.187 59.4709 277.551C59.9444 277.911 60.5386 278.091 61.2536 278.091ZM70.3196 274.881L70.3054 273.226H70.5895L75.7031 268.091H77.3011L72.2514 273.148L72.1378 273.169L70.3196 274.881ZM69.169 279V264.455H70.4332V279H69.169ZM75.9659 279L71.5341 273.396L72.4432 272.523L77.5852 279H75.9659ZM89.2294 279.227C88.3345 279.227 87.5509 278.991 86.8786 278.517C86.2062 278.044 85.6806 277.383 85.3018 276.536C84.9278 275.688 84.7408 274.701 84.7408 273.574C84.7408 272.452 84.9278 271.469 85.3018 270.626C85.6806 269.779 86.2086 269.121 86.8857 268.652C87.5627 268.179 88.3511 267.942 89.2507 267.942C89.9136 267.942 90.4652 268.06 90.9055 268.297C91.3459 268.529 91.6986 268.818 91.9638 269.163C92.2289 269.509 92.4349 269.845 92.5817 270.172H92.6953V264.455H93.9666V279H92.7308V276.976H92.5817C92.4349 277.307 92.2266 277.648 91.9567 277.999C91.6868 278.344 91.3293 278.635 90.8842 278.872C90.4439 279.109 89.8923 279.227 89.2294 279.227ZM89.3786 278.07C90.084 278.07 90.6854 277.878 91.1825 277.494C91.6797 277.106 92.0585 276.573 92.3189 275.896C92.584 275.214 92.7166 274.433 92.7166 273.553C92.7166 272.681 92.5864 271.912 92.326 271.244C92.0656 270.572 91.6868 270.046 91.1896 269.668C90.6925 269.284 90.0888 269.092 89.3786 269.092C88.6494 269.092 88.0339 269.291 87.532 269.689C87.0348 270.082 86.656 270.615 86.3956 271.287C86.1399 271.959 86.0121 272.714 86.0121 273.553C86.0121 274.4 86.1423 275.165 86.4027 275.847C86.6631 276.528 87.0419 277.071 87.5391 277.473C88.041 277.871 88.6541 278.07 89.3786 278.07ZM101.808 279.227C100.865 279.227 100.032 278.988 99.3075 278.51C98.5878 278.032 98.0244 277.371 97.6172 276.528C97.21 275.681 97.0064 274.703 97.0064 273.595C97.0064 272.478 97.21 271.495 97.6172 270.648C98.0244 269.795 98.5878 269.133 99.3075 268.659C100.032 268.181 100.865 267.942 101.808 267.942C102.75 267.942 103.581 268.181 104.3 268.659C105.02 269.137 105.584 269.8 105.991 270.648C106.403 271.495 106.609 272.478 106.609 273.595C106.609 274.703 106.405 275.681 105.998 276.528C105.591 277.371 105.025 278.032 104.3 278.51C103.581 278.988 102.75 279.227 101.808 279.227ZM101.808 278.07C102.565 278.07 103.207 277.866 103.732 277.459C104.258 277.052 104.656 276.509 104.925 275.832C105.2 275.155 105.337 274.41 105.337 273.595C105.337 272.781 105.2 272.033 104.925 271.351C104.656 270.669 104.258 270.122 103.732 269.71C103.207 269.298 102.565 269.092 101.808 269.092C101.055 269.092 100.413 269.298 99.8828 269.71C99.3572 270.122 98.9571 270.669 98.6825 271.351C98.4126 272.033 98.2777 272.781 98.2777 273.595C98.2777 274.41 98.4126 275.155 98.6825 275.832C98.9571 276.509 99.3572 277.052 99.8828 277.459C100.408 277.866 101.05 278.07 101.808 278.07ZM111.435 279L108.139 268.091H109.474L112.06 277.089H112.152L114.73 268.091H116.072L118.629 277.068H118.729L121.314 268.091H122.649L119.354 279H118.047L115.462 270.058H115.327L112.741 279H111.435ZM126.371 272.182V279H125.107V268.091H126.335V269.803H126.449C126.705 269.244 127.102 268.796 127.642 268.46C128.187 268.119 128.859 267.949 129.659 267.949C130.393 267.949 131.037 268.103 131.591 268.411C132.15 268.714 132.583 269.161 132.891 269.753C133.203 270.345 133.359 271.071 133.359 271.933V279H132.095V272.011C132.095 271.116 131.844 270.409 131.342 269.888C130.845 269.367 130.178 269.107 129.339 269.107C128.767 269.107 128.258 269.23 127.812 269.476C127.367 269.722 127.015 270.077 126.754 270.541C126.499 271 126.371 271.547 126.371 272.182ZM146.575 279.227C145.6 279.227 144.75 278.983 144.025 278.496C143.306 278.008 142.747 277.34 142.349 276.493C141.951 275.645 141.752 274.679 141.752 273.595C141.752 272.501 141.954 271.528 142.356 270.676C142.763 269.824 143.327 269.156 144.047 268.673C144.766 268.186 145.602 267.942 146.554 267.942C147.283 267.942 147.943 268.084 148.535 268.368C149.127 268.647 149.615 269.043 149.998 269.554C150.386 270.061 150.63 270.652 150.73 271.33H149.451C149.319 270.714 148.999 270.188 148.493 269.753C147.991 269.312 147.351 269.092 146.575 269.092C145.879 269.092 145.263 269.282 144.728 269.661C144.193 270.035 143.774 270.558 143.471 271.23C143.173 271.898 143.024 272.672 143.024 273.553C143.024 274.438 143.171 275.222 143.464 275.903C143.758 276.58 144.17 277.111 144.7 277.494C145.235 277.878 145.86 278.07 146.575 278.07C147.058 278.07 147.498 277.98 147.896 277.8C148.298 277.615 148.635 277.355 148.904 277.018C149.179 276.682 149.364 276.282 149.458 275.818H150.737C150.642 276.476 150.408 277.063 150.034 277.58C149.664 278.091 149.184 278.493 148.592 278.787C148.005 279.08 147.333 279.227 146.575 279.227ZM157.686 279.227C156.744 279.227 155.911 278.988 155.186 278.51C154.467 278.032 153.903 277.371 153.496 276.528C153.089 275.681 152.885 274.703 152.885 273.595C152.885 272.478 153.089 271.495 153.496 270.648C153.903 269.795 154.467 269.133 155.186 268.659C155.911 268.181 156.744 267.942 157.686 267.942C158.629 267.942 159.46 268.181 160.179 268.659C160.899 269.137 161.462 269.8 161.87 270.648C162.282 271.495 162.488 272.478 162.488 273.595C162.488 274.703 162.284 275.681 161.877 276.528C161.47 277.371 160.904 278.032 160.179 278.51C159.46 278.988 158.629 279.227 157.686 279.227ZM157.686 278.07C158.444 278.07 159.086 277.866 159.611 277.459C160.137 277.052 160.534 276.509 160.804 275.832C161.079 275.155 161.216 274.41 161.216 273.595C161.216 272.781 161.079 272.033 160.804 271.351C160.534 270.669 160.137 270.122 159.611 269.71C159.086 269.298 158.444 269.092 157.686 269.092C156.934 269.092 156.292 269.298 155.762 269.71C155.236 270.122 154.836 270.669 154.561 271.351C154.292 272.033 154.157 272.781 154.157 273.595C154.157 274.41 154.292 275.155 154.561 275.832C154.836 276.509 155.236 277.052 155.762 277.459C156.287 277.866 156.929 278.07 157.686 278.07ZM165.263 279V268.091H166.491V269.767H166.605C166.823 269.204 167.185 268.761 167.692 268.439C168.203 268.112 168.816 267.949 169.531 267.949C170.284 267.949 170.902 268.126 171.385 268.482C171.873 268.832 172.237 269.315 172.479 269.93H172.571C172.817 269.324 173.217 268.844 173.771 268.489C174.33 268.129 175.007 267.949 175.803 267.949C176.816 267.949 177.616 268.268 178.203 268.908C178.79 269.542 179.084 270.47 179.084 271.692V279H177.82V271.692C177.82 270.83 177.599 270.184 177.159 269.753C176.719 269.322 176.139 269.107 175.419 269.107C174.586 269.107 173.944 269.362 173.494 269.874C173.045 270.385 172.82 271.034 172.82 271.82V279H171.527V271.578C171.527 270.839 171.321 270.243 170.909 269.788C170.497 269.334 169.917 269.107 169.169 269.107C168.667 269.107 168.215 269.23 167.812 269.476C167.415 269.722 167.1 270.065 166.868 270.506C166.641 270.941 166.527 271.443 166.527 272.011V279H165.263ZM182.431 279V268.091H183.659V269.767H183.773C183.991 269.204 184.353 268.761 184.86 268.439C185.371 268.112 185.984 267.949 186.699 267.949C187.452 267.949 188.07 268.126 188.553 268.482C189.041 268.832 189.405 269.315 189.647 269.93H189.739C189.985 269.324 190.385 268.844 190.939 268.489C191.498 268.129 192.175 267.949 192.971 267.949C193.984 267.949 194.784 268.268 195.371 268.908C195.958 269.542 196.252 270.47 196.252 271.692V279H194.988V271.692C194.988 270.83 194.767 270.184 194.327 269.753C193.887 269.322 193.307 269.107 192.587 269.107C191.754 269.107 191.112 269.362 190.662 269.874C190.212 270.385 189.988 271.034 189.988 271.82V279H188.695V271.578C188.695 270.839 188.489 270.243 188.077 269.788C187.665 269.334 187.085 269.107 186.337 269.107C185.835 269.107 185.383 269.23 184.98 269.476C184.583 269.722 184.268 270.065 184.036 270.506C183.809 270.941 183.695 271.443 183.695 272.011V279H182.431ZM206.531 274.831V268.091H207.795V279H206.531V277.189H206.431C206.175 277.748 205.771 278.214 205.217 278.588C204.663 278.957 203.986 279.142 203.185 279.142C202.489 279.142 201.871 278.991 201.332 278.688C200.792 278.38 200.368 277.93 200.06 277.338C199.753 276.746 199.599 276.019 199.599 275.158V268.091H200.863V275.08C200.863 275.932 201.114 276.618 201.616 277.139C202.118 277.655 202.762 277.913 203.548 277.913C204.04 277.913 204.513 277.795 204.968 277.558C205.423 277.321 205.797 276.976 206.09 276.521C206.384 276.062 206.531 275.499 206.531 274.831ZM212.406 272.182V279H211.142V268.091H212.37V269.803H212.484C212.74 269.244 213.137 268.796 213.677 268.46C214.222 268.119 214.894 267.949 215.694 267.949C216.428 267.949 217.072 268.103 217.626 268.411C218.185 268.714 218.618 269.161 218.926 269.753C219.238 270.345 219.395 271.071 219.395 271.933V279H218.13V272.011C218.13 271.116 217.879 270.409 217.377 269.888C216.88 269.367 216.213 269.107 215.375 269.107C214.802 269.107 214.293 269.23 213.848 269.476C213.403 269.722 213.05 270.077 212.789 270.541C212.534 271 212.406 271.547 212.406 272.182ZM222.738 279V268.091H224.009V279H222.738ZM223.384 266.216C223.124 266.216 222.901 266.128 222.717 265.953C222.532 265.773 222.44 265.558 222.44 265.307C222.44 265.056 222.532 264.843 222.717 264.668C222.901 264.488 223.124 264.398 223.384 264.398C223.645 264.398 223.867 264.488 224.052 264.668C224.237 264.843 224.329 265.056 224.329 265.307C224.329 265.558 224.237 265.773 224.052 265.953C223.867 266.128 223.645 266.216 223.384 266.216ZM231.614 279.227C230.639 279.227 229.789 278.983 229.064 278.496C228.345 278.008 227.786 277.34 227.388 276.493C226.99 275.645 226.792 274.679 226.792 273.595C226.792 272.501 226.993 271.528 227.395 270.676C227.802 269.824 228.366 269.156 229.086 268.673C229.805 268.186 230.641 267.942 231.593 267.942C232.322 267.942 232.982 268.084 233.574 268.368C234.166 268.647 234.654 269.043 235.037 269.554C235.426 270.061 235.669 270.652 235.769 271.33H234.49C234.358 270.714 234.038 270.188 233.532 269.753C233.03 269.312 232.391 269.092 231.614 269.092C230.918 269.092 230.302 269.282 229.767 269.661C229.232 270.035 228.813 270.558 228.51 271.23C228.212 271.898 228.063 272.672 228.063 273.553C228.063 274.438 228.21 275.222 228.503 275.903C228.797 276.58 229.209 277.111 229.739 277.494C230.274 277.878 230.899 278.07 231.614 278.07C232.097 278.07 232.537 277.98 232.935 277.8C233.337 277.615 233.674 277.355 233.944 277.018C234.218 276.682 234.403 276.282 234.498 275.818H235.776C235.681 276.476 235.447 277.063 235.073 277.58C234.703 278.091 234.223 278.493 233.631 278.787C233.044 279.08 232.372 279.227 231.614 279.227ZM241.532 279.249C240.874 279.249 240.273 279.121 239.728 278.865C239.184 278.605 238.751 278.231 238.429 277.743C238.107 277.25 237.946 276.654 237.946 275.953C237.946 275.413 238.047 274.959 238.251 274.589C238.455 274.22 238.743 273.917 239.118 273.68C239.492 273.444 239.934 273.257 240.446 273.119C240.957 272.982 241.52 272.875 242.136 272.8C242.747 272.724 243.263 272.658 243.684 272.601C244.11 272.544 244.435 272.454 244.657 272.331C244.88 272.208 244.991 272.009 244.991 271.734V271.479C244.991 270.735 244.769 270.151 244.324 269.724C243.883 269.294 243.249 269.078 242.42 269.078C241.634 269.078 240.993 269.251 240.495 269.597C240.003 269.942 239.657 270.349 239.458 270.818L238.258 270.385C238.504 269.788 238.845 269.312 239.281 268.957C239.717 268.598 240.204 268.339 240.744 268.183C241.284 268.022 241.831 267.942 242.385 267.942C242.801 267.942 243.234 267.996 243.684 268.105C244.139 268.214 244.56 268.403 244.949 268.673C245.337 268.938 245.652 269.31 245.893 269.788C246.135 270.262 246.255 270.863 246.255 271.592V279H244.991V277.274H244.913C244.761 277.596 244.537 277.909 244.238 278.212C243.94 278.515 243.566 278.763 243.116 278.957C242.666 279.152 242.138 279.249 241.532 279.249ZM241.703 278.091C242.375 278.091 242.958 277.942 243.45 277.643C243.942 277.345 244.321 276.95 244.586 276.457C244.856 275.96 244.991 275.413 244.991 274.817V273.24C244.896 273.33 244.738 273.411 244.515 273.482C244.297 273.553 244.044 273.616 243.755 273.673C243.471 273.725 243.187 273.77 242.903 273.808C242.619 273.846 242.363 273.879 242.136 273.908C241.52 273.983 240.995 274.102 240.559 274.263C240.124 274.424 239.79 274.646 239.558 274.93C239.326 275.21 239.21 275.57 239.21 276.01C239.21 276.673 239.447 277.187 239.92 277.551C240.394 277.911 240.988 278.091 241.703 278.091ZM253.915 268.091V269.192H248.709V268.091H253.915ZM250.336 265.477H251.607V276.152C251.607 276.607 251.685 276.964 251.841 277.224C251.998 277.48 252.201 277.662 252.452 277.771C252.703 277.875 252.971 277.928 253.255 277.928C253.42 277.928 253.562 277.918 253.681 277.899C253.799 277.875 253.903 277.852 253.993 277.828L254.263 278.972C254.14 279.019 253.989 279.062 253.809 279.099C253.629 279.142 253.406 279.163 253.141 279.163C252.677 279.163 252.23 279.062 251.799 278.858C251.373 278.654 251.022 278.351 250.748 277.949C250.473 277.546 250.336 277.047 250.336 276.45V265.477ZM256.8 279V268.091H258.072V279H256.8ZM257.447 266.216C257.186 266.216 256.964 266.128 256.779 265.953C256.594 265.773 256.502 265.558 256.502 265.307C256.502 265.056 256.594 264.843 256.779 264.668C256.964 264.488 257.186 264.398 257.447 264.398C257.707 264.398 257.93 264.488 258.114 264.668C258.299 264.843 258.391 265.056 258.391 265.307C258.391 265.558 258.299 265.773 258.114 265.953C257.93 266.128 257.707 266.216 257.447 266.216ZM265.655 279.227C264.713 279.227 263.88 278.988 263.155 278.51C262.435 278.032 261.872 277.371 261.465 276.528C261.058 275.681 260.854 274.703 260.854 273.595C260.854 272.478 261.058 271.495 261.465 270.648C261.872 269.795 262.435 269.133 263.155 268.659C263.88 268.181 264.713 267.942 265.655 267.942C266.597 267.942 267.428 268.181 268.148 268.659C268.868 269.137 269.431 269.8 269.838 270.648C270.25 271.495 270.456 272.478 270.456 273.595C270.456 274.703 270.253 275.681 269.846 276.528C269.438 277.371 268.873 278.032 268.148 278.51C267.428 278.988 266.597 279.227 265.655 279.227ZM265.655 278.07C266.413 278.07 267.054 277.866 267.58 277.459C268.105 277.052 268.503 276.509 268.773 275.832C269.048 275.155 269.185 274.41 269.185 273.595C269.185 272.781 269.048 272.033 268.773 271.351C268.503 270.669 268.105 270.122 267.58 269.71C267.054 269.298 266.413 269.092 265.655 269.092C264.902 269.092 264.261 269.298 263.73 269.71C263.205 270.122 262.805 270.669 262.53 271.351C262.26 272.033 262.125 272.781 262.125 273.595C262.125 274.41 262.26 275.155 262.53 275.832C262.805 276.509 263.205 277.052 263.73 277.459C264.256 277.866 264.898 278.07 265.655 278.07ZM274.496 272.182V279H273.232V268.091H274.46V269.803H274.574C274.83 269.244 275.227 268.796 275.767 268.46C276.312 268.119 276.984 267.949 277.784 267.949C278.518 267.949 279.162 268.103 279.716 268.411C280.275 268.714 280.708 269.161 281.016 269.753C281.328 270.345 281.484 271.071 281.484 271.933V279H280.22V272.011C280.22 271.116 279.969 270.409 279.467 269.888C278.97 269.367 278.303 269.107 277.464 269.107C276.892 269.107 276.383 269.23 275.938 269.476C275.492 269.722 275.14 270.077 274.879 270.541C274.624 271 274.496 271.547 274.496 272.182ZM26.9318 309V294.455H28.2031V300.172H28.3168C28.4588 299.845 28.6624 299.509 28.9276 299.163C29.1974 298.818 29.5502 298.529 29.9858 298.297C30.4261 298.06 30.9801 297.942 31.6477 297.942C32.5426 297.942 33.3286 298.179 34.0057 298.652C34.6828 299.121 35.2107 299.779 35.5895 300.626C35.9683 301.469 36.1577 302.452 36.1577 303.574C36.1577 304.701 35.9683 305.688 35.5895 306.536C35.2154 307.383 34.6899 308.044 34.0128 308.517C33.3404 308.991 32.5592 309.227 31.669 309.227C31.0062 309.227 30.4522 309.109 30.0071 308.872C29.5668 308.635 29.2116 308.344 28.9418 307.999C28.6719 307.648 28.4635 307.307 28.3168 306.976H28.1605V309H26.9318ZM28.1818 303.553C28.1818 304.433 28.312 305.214 28.5724 305.896C28.8376 306.573 29.2164 307.106 29.7088 307.494C30.206 307.878 30.8073 308.07 31.5128 308.07C32.2372 308.07 32.8504 307.871 33.3523 307.473C33.8542 307.071 34.2353 306.528 34.4957 305.847C34.7562 305.165 34.8864 304.4 34.8864 303.553C34.8864 302.714 34.7562 301.959 34.4957 301.287C34.2401 300.615 33.8613 300.082 33.3594 299.689C32.8575 299.291 32.242 299.092 31.5128 299.092C30.8026 299.092 30.1989 299.284 29.7017 299.668C29.2093 300.046 28.8329 300.572 28.5724 301.244C28.312 301.912 28.1818 302.681 28.1818 303.553ZM41.9815 309.249C41.3234 309.249 40.7221 309.121 40.1776 308.865C39.633 308.605 39.1998 308.231 38.8778 307.743C38.5559 307.25 38.3949 306.654 38.3949 305.953C38.3949 305.413 38.4967 304.959 38.7003 304.589C38.9039 304.22 39.1927 303.917 39.5668 303.68C39.9408 303.444 40.3835 303.257 40.8949 303.119C41.4063 302.982 41.9697 302.875 42.5852 302.8C43.196 302.724 43.7121 302.658 44.1335 302.601C44.5597 302.544 44.884 302.454 45.1065 302.331C45.3291 302.208 45.4403 302.009 45.4403 301.734V301.479C45.4403 300.735 45.2178 300.151 44.7727 299.724C44.3324 299.294 43.6979 299.078 42.8693 299.078C42.0833 299.078 41.4418 299.251 40.9446 299.597C40.4522 299.942 40.1065 300.349 39.9077 300.818L38.7074 300.385C38.9536 299.788 39.2945 299.312 39.7301 298.957C40.1657 298.598 40.6534 298.339 41.1932 298.183C41.733 298.022 42.2798 297.942 42.8338 297.942C43.2505 297.942 43.6837 297.996 44.1335 298.105C44.5881 298.214 45.0095 298.403 45.3977 298.673C45.786 298.938 46.1009 299.31 46.3423 299.788C46.5838 300.262 46.7045 300.863 46.7045 301.592V309H45.4403V307.274H45.3622C45.2107 307.596 44.9858 307.909 44.6875 308.212C44.3892 308.515 44.0152 308.763 43.5653 308.957C43.1155 309.152 42.5876 309.249 41.9815 309.249ZM42.152 308.091C42.8243 308.091 43.4067 307.942 43.8991 307.643C44.3916 307.345 44.7704 306.95 45.0355 306.457C45.3054 305.96 45.4403 305.413 45.4403 304.817V303.24C45.3456 303.33 45.187 303.411 44.9645 303.482C44.7467 303.553 44.4934 303.616 44.2045 303.673C43.9205 303.725 43.6364 303.77 43.3523 303.808C43.0682 303.846 42.8125 303.879 42.5852 303.908C41.9697 303.983 41.4441 304.102 41.0085 304.263C40.5729 304.424 40.2391 304.646 40.0071 304.93C39.7751 305.21 39.6591 305.57 39.6591 306.01C39.6591 306.673 39.8958 307.187 40.3693 307.551C40.8428 307.911 41.437 308.091 42.152 308.091ZM50.0675 309V298.091H51.2962V299.767H51.3885C51.6063 299.218 51.9851 298.775 52.5249 298.439C53.0694 298.098 53.6849 297.928 54.3714 297.928C54.4756 297.928 54.5916 297.93 54.7195 297.935C54.8473 297.939 54.9538 297.944 55.0391 297.949V299.234C54.9822 299.225 54.8828 299.211 54.7408 299.192C54.5987 299.173 54.4448 299.163 54.2791 299.163C53.7109 299.163 53.2043 299.284 52.7592 299.526C52.3189 299.762 51.9709 300.091 51.7152 300.513C51.4595 300.934 51.3317 301.415 51.3317 301.955V309H50.0675ZM57.1964 309V298.091H58.4251V299.767H58.5174C58.7352 299.218 59.114 298.775 59.6538 298.439C60.1983 298.098 60.8138 297.928 61.5004 297.928C61.6045 297.928 61.7205 297.93 61.8484 297.935C61.9762 297.939 62.0827 297.944 62.168 297.949V299.234C62.1112 299.225 62.0117 299.211 61.8697 299.192C61.7276 299.173 61.5737 299.163 61.408 299.163C60.8398 299.163 60.3332 299.284 59.8881 299.526C59.4478 299.762 59.0998 300.091 58.8441 300.513C58.5884 300.934 58.4606 301.415 58.4606 301.955V309H57.1964ZM64.3395 309V298.091H65.6108V309H64.3395ZM64.9858 296.216C64.7254 296.216 64.5028 296.128 64.3182 295.953C64.1335 295.773 64.0412 295.558 64.0412 295.307C64.0412 295.056 64.1335 294.843 64.3182 294.668C64.5028 294.488 64.7254 294.398 64.9858 294.398C65.2462 294.398 65.4688 294.488 65.6534 294.668C65.8381 294.843 65.9304 295.056 65.9304 295.307C65.9304 295.558 65.8381 295.773 65.6534 295.953C65.4688 296.128 65.2462 296.216 64.9858 296.216ZM73.3647 309.227C72.3467 309.227 71.466 308.991 70.7227 308.517C69.9793 308.039 69.404 307.378 68.9968 306.536C68.5943 305.688 68.3931 304.713 68.3931 303.609C68.3931 302.511 68.5943 301.536 68.9968 300.683C69.404 299.826 69.9651 299.156 70.68 298.673C71.3997 298.186 72.2307 297.942 73.1729 297.942C73.7648 297.942 74.3353 298.051 74.8846 298.268C75.4338 298.482 75.9263 298.811 76.3619 299.256C76.8022 299.696 77.1502 300.252 77.4059 300.925C77.6616 301.592 77.7894 302.383 77.7894 303.297V303.922H69.2667V302.807H76.4968C76.4968 302.106 76.3548 301.476 76.0707 300.918C75.7913 300.354 75.4007 299.909 74.8988 299.582C74.4016 299.256 73.8263 299.092 73.1729 299.092C72.4817 299.092 71.8732 299.277 71.3477 299.646C70.8221 300.016 70.4102 300.503 70.1119 301.109C69.8183 301.715 69.6692 302.378 69.6644 303.098V303.766C69.6644 304.632 69.8136 305.39 70.1119 306.038C70.4149 306.682 70.8434 307.182 71.3974 307.537C71.9513 307.892 72.6071 308.07 73.3647 308.07C73.8808 308.07 74.333 307.989 74.7212 307.828C75.1142 307.667 75.4433 307.452 75.7085 307.182C75.9783 306.907 76.1819 306.607 76.3192 306.28L77.5195 306.67C77.3538 307.13 77.0816 307.554 76.7028 307.942C76.3287 308.33 75.86 308.643 75.2965 308.879C74.7378 309.111 74.0939 309.227 73.3647 309.227ZM80.5753 309V298.091H81.804V299.767H81.8963C82.1141 299.218 82.4929 298.775 83.0327 298.439C83.5772 298.098 84.1927 297.928 84.8793 297.928C84.9834 297.928 85.0994 297.93 85.2273 297.935C85.3551 297.939 85.4616 297.944 85.5469 297.949V299.234C85.4901 299.225 85.3906 299.211 85.2486 299.192C85.1065 299.173 84.9527 299.163 84.7869 299.163C84.2188 299.163 83.7121 299.284 83.267 299.526C82.8267 299.762 82.4787 300.091 82.223 300.513C81.9673 300.934 81.8395 301.415 81.8395 301.955V309H80.5753ZM95.0337 300.484L93.8761 300.811C93.7624 300.484 93.6014 300.188 93.3931 299.923C93.1848 299.658 92.9125 299.447 92.5763 299.291C92.2449 299.135 91.833 299.057 91.3406 299.057C90.6019 299.057 89.9959 299.232 89.5224 299.582C89.0489 299.933 88.8121 300.385 88.8121 300.939C88.8121 301.408 88.9731 301.789 89.2951 302.082C89.6218 302.371 90.1237 302.601 90.8008 302.771L92.4485 303.176C93.3623 303.399 94.0465 303.751 94.5011 304.234C94.9603 304.717 95.19 305.323 95.19 306.053C95.19 306.668 95.0195 307.215 94.6786 307.693C94.3377 308.171 93.8619 308.548 93.2511 308.822C92.645 309.092 91.9419 309.227 91.1417 309.227C90.0763 309.227 89.198 308.988 88.5067 308.51C87.8155 308.027 87.3728 307.331 87.1786 306.422L88.3931 306.124C88.5494 306.772 88.8548 307.262 89.3093 307.594C89.7686 307.925 90.3723 308.091 91.1204 308.091C91.9585 308.091 92.6284 307.904 93.1303 307.53C93.6322 307.151 93.8832 306.678 93.8832 306.109C93.8832 305.669 93.7364 305.3 93.4428 305.001C93.1493 304.698 92.7042 304.476 92.1076 304.334L90.3249 303.908C89.378 303.68 88.6772 303.321 88.2227 302.828C87.7681 302.336 87.5408 301.725 87.5408 300.996C87.5408 300.394 87.7042 299.866 88.0309 299.412C88.3576 298.953 88.8074 298.593 89.3803 298.332C89.9532 298.072 90.6067 297.942 91.3406 297.942C92.3396 297.942 93.1374 298.169 93.734 298.624C94.3353 299.073 94.7686 299.694 95.0337 300.484ZM106.63 309.249C105.972 309.249 105.371 309.121 104.826 308.865C104.281 308.605 103.848 308.231 103.526 307.743C103.204 307.25 103.043 306.654 103.043 305.953C103.043 305.413 103.145 304.959 103.349 304.589C103.552 304.22 103.841 303.917 104.215 303.68C104.589 303.444 105.032 303.257 105.543 303.119C106.055 302.982 106.618 302.875 107.234 302.8C107.844 302.724 108.361 302.658 108.782 302.601C109.208 302.544 109.532 302.454 109.755 302.331C109.978 302.208 110.089 302.009 110.089 301.734V301.479C110.089 300.735 109.866 300.151 109.421 299.724C108.981 299.294 108.346 299.078 107.518 299.078C106.732 299.078 106.09 299.251 105.593 299.597C105.101 299.942 104.755 300.349 104.556 300.818L103.356 300.385C103.602 299.788 103.943 299.312 104.379 298.957C104.814 298.598 105.302 298.339 105.842 298.183C106.381 298.022 106.928 297.942 107.482 297.942C107.899 297.942 108.332 297.996 108.782 298.105C109.237 298.214 109.658 298.403 110.046 298.673C110.434 298.938 110.749 299.31 110.991 299.788C111.232 300.262 111.353 300.863 111.353 301.592V309H110.089V307.274H110.011C109.859 307.596 109.634 307.909 109.336 308.212C109.038 308.515 108.664 308.763 108.214 308.957C107.764 309.152 107.236 309.249 106.63 309.249ZM106.8 308.091C107.473 308.091 108.055 307.942 108.548 307.643C109.04 307.345 109.419 306.95 109.684 306.457C109.954 305.96 110.089 305.413 110.089 304.817V303.24C109.994 303.33 109.835 303.411 109.613 303.482C109.395 303.553 109.142 303.616 108.853 303.673C108.569 303.725 108.285 303.77 108.001 303.808C107.717 303.846 107.461 303.879 107.234 303.908C106.618 303.983 106.093 304.102 105.657 304.263C105.221 304.424 104.888 304.646 104.656 304.93C104.424 305.21 104.308 305.57 104.308 306.01C104.308 306.673 104.544 307.187 105.018 307.551C105.491 307.911 106.085 308.091 106.8 308.091ZM115.98 302.182V309H114.716V298.091H115.945V299.803H116.058C116.314 299.244 116.712 298.796 117.251 298.46C117.796 298.119 118.468 297.949 119.268 297.949C120.002 297.949 120.646 298.103 121.2 298.411C121.759 298.714 122.192 299.161 122.5 299.753C122.812 300.345 122.969 301.071 122.969 301.933V309H121.705V302.011C121.705 301.116 121.454 300.409 120.952 299.888C120.455 299.367 119.787 299.107 118.949 299.107C118.376 299.107 117.867 299.23 117.422 299.476C116.977 299.722 116.624 300.077 116.364 300.541C116.108 301 115.98 301.547 115.98 302.182ZM130.225 309.227C129.331 309.227 128.547 308.991 127.875 308.517C127.202 308.044 126.677 307.383 126.298 306.536C125.924 305.688 125.737 304.701 125.737 303.574C125.737 302.452 125.924 301.469 126.298 300.626C126.677 299.779 127.205 299.121 127.882 298.652C128.559 298.179 129.347 297.942 130.247 297.942C130.91 297.942 131.461 298.06 131.902 298.297C132.342 298.529 132.695 298.818 132.96 299.163C133.225 299.509 133.431 299.845 133.578 300.172H133.691V294.455H134.963V309H133.727V306.976H133.578C133.431 307.307 133.223 307.648 132.953 307.999C132.683 308.344 132.325 308.635 131.88 308.872C131.44 309.109 130.888 309.227 130.225 309.227ZM130.375 308.07C131.08 308.07 131.681 307.878 132.179 307.494C132.676 307.106 133.055 306.573 133.315 305.896C133.58 305.214 133.713 304.433 133.713 303.553C133.713 302.681 133.583 301.912 133.322 301.244C133.062 300.572 132.683 300.046 132.186 299.668C131.689 299.284 131.085 299.092 130.375 299.092C129.645 299.092 129.03 299.291 128.528 299.689C128.031 300.082 127.652 300.615 127.392 301.287C127.136 301.959 127.008 302.714 127.008 303.553C127.008 304.4 127.138 305.165 127.399 305.847C127.659 306.528 128.038 307.071 128.535 307.473C129.037 307.871 129.65 308.07 130.375 308.07ZM144.189 313.091V298.091H145.417V300.172H145.566C145.718 299.845 145.926 299.511 146.191 299.17C146.457 298.825 146.807 298.534 147.243 298.297C147.683 298.06 148.237 297.942 148.904 297.942C149.804 297.942 150.59 298.179 151.262 298.652C151.94 299.121 152.465 299.779 152.839 300.626C153.218 301.469 153.407 302.452 153.407 303.574C153.407 304.701 153.218 305.688 152.839 306.536C152.465 307.383 151.94 308.044 151.262 308.517C150.59 308.991 149.809 309.227 148.919 309.227C148.261 309.227 147.709 309.109 147.264 308.872C146.824 308.635 146.466 308.344 146.191 307.999C145.922 307.648 145.713 307.307 145.566 306.976H145.453V313.091H144.189ZM145.439 303.553C145.439 304.433 145.569 305.214 145.829 305.896C146.094 306.573 146.473 307.106 146.966 307.494C147.463 307.878 148.064 308.07 148.77 308.07C149.494 308.07 150.105 307.871 150.602 307.473C151.104 307.071 151.485 306.528 151.745 305.847C152.011 305.165 152.143 304.4 152.143 303.553C152.143 302.714 152.013 301.959 151.752 301.287C151.497 300.615 151.118 300.082 150.616 299.689C150.114 299.291 149.499 299.092 148.77 299.092C148.059 299.092 147.456 299.284 146.958 299.668C146.461 300.046 146.083 300.572 145.822 301.244C145.566 301.912 145.439 302.681 145.439 303.553ZM156.181 309V298.091H157.409V299.767H157.502C157.72 299.218 158.098 298.775 158.638 298.439C159.183 298.098 159.798 297.928 160.485 297.928C160.589 297.928 160.705 297.93 160.833 297.935C160.961 297.939 161.067 297.944 161.152 297.949V299.234C161.096 299.225 160.996 299.211 160.854 299.192C160.712 299.173 160.558 299.163 160.392 299.163C159.824 299.163 159.318 299.284 158.873 299.526C158.432 299.762 158.084 300.091 157.828 300.513C157.573 300.934 157.445 301.415 157.445 301.955V309H156.181ZM167.218 309.227C166.275 309.227 165.442 308.988 164.718 308.51C163.998 308.032 163.435 307.371 163.027 306.528C162.62 305.681 162.417 304.703 162.417 303.595C162.417 302.478 162.62 301.495 163.027 300.648C163.435 299.795 163.998 299.133 164.718 298.659C165.442 298.181 166.275 297.942 167.218 297.942C168.16 297.942 168.991 298.181 169.711 298.659C170.43 299.137 170.994 299.8 171.401 300.648C171.813 301.495 172.019 302.478 172.019 303.595C172.019 304.703 171.815 305.681 171.408 306.528C171.001 307.371 170.435 308.032 169.711 308.51C168.991 308.988 168.16 309.227 167.218 309.227ZM167.218 308.07C167.975 308.07 168.617 307.866 169.142 307.459C169.668 307.052 170.066 306.509 170.336 305.832C170.61 305.155 170.748 304.41 170.748 303.595C170.748 302.781 170.61 302.033 170.336 301.351C170.066 300.669 169.668 300.122 169.142 299.71C168.617 299.298 167.975 299.092 167.218 299.092C166.465 299.092 165.823 299.298 165.293 299.71C164.767 300.122 164.367 300.669 164.093 301.351C163.823 302.033 163.688 302.781 163.688 303.595C163.688 304.41 163.823 305.155 164.093 305.832C164.367 306.509 164.767 307.052 165.293 307.459C165.819 307.866 166.46 308.07 167.218 308.07ZM182.848 298.091L178.864 309H177.514L173.53 298.091H174.901L178.139 307.331H178.239L181.477 298.091H182.848ZM185.336 309V298.091H186.607V309H185.336ZM185.982 296.216C185.721 296.216 185.499 296.128 185.314 295.953C185.13 295.773 185.037 295.558 185.037 295.307C185.037 295.056 185.13 294.843 185.314 294.668C185.499 294.488 185.721 294.398 185.982 294.398C186.242 294.398 186.465 294.488 186.65 294.668C186.834 294.843 186.926 295.056 186.926 295.307C186.926 295.558 186.834 295.773 186.65 295.953C186.465 296.128 186.242 296.216 185.982 296.216ZM193.878 309.227C192.983 309.227 192.199 308.991 191.527 308.517C190.855 308.044 190.329 307.383 189.95 306.536C189.576 305.688 189.389 304.701 189.389 303.574C189.389 302.452 189.576 301.469 189.95 300.626C190.329 299.779 190.857 299.121 191.534 298.652C192.211 298.179 193 297.942 193.899 297.942C194.562 297.942 195.114 298.06 195.554 298.297C195.994 298.529 196.347 298.818 196.612 299.163C196.877 299.509 197.083 299.845 197.23 300.172H197.344V294.455H198.615V309H197.379V306.976H197.23C197.083 307.307 196.875 307.648 196.605 307.999C196.335 308.344 195.978 308.635 195.533 308.872C195.092 309.109 194.541 309.227 193.878 309.227ZM194.027 308.07C194.732 308.07 195.334 307.878 195.831 307.494C196.328 307.106 196.707 306.573 196.967 305.896C197.232 305.214 197.365 304.433 197.365 303.553C197.365 302.681 197.235 301.912 196.974 301.244C196.714 300.572 196.335 300.046 195.838 299.668C195.341 299.284 194.737 299.092 194.027 299.092C193.298 299.092 192.682 299.291 192.18 299.689C191.683 300.082 191.304 300.615 191.044 301.287C190.788 301.959 190.661 302.714 190.661 303.553C190.661 304.4 190.791 305.165 191.051 305.847C191.312 306.528 191.69 307.071 192.188 307.473C192.689 307.871 193.303 308.07 194.027 308.07ZM206.626 309.227C205.608 309.227 204.728 308.991 203.984 308.517C203.241 308.039 202.666 307.378 202.259 306.536C201.856 305.688 201.655 304.713 201.655 303.609C201.655 302.511 201.856 301.536 202.259 300.683C202.666 299.826 203.227 299.156 203.942 298.673C204.661 298.186 205.492 297.942 206.435 297.942C207.027 297.942 207.597 298.051 208.146 298.268C208.696 298.482 209.188 298.811 209.624 299.256C210.064 299.696 210.412 300.252 210.668 300.925C210.923 301.592 211.051 302.383 211.051 303.297V303.922H202.528V302.807H209.759C209.759 302.106 209.616 301.476 209.332 300.918C209.053 300.354 208.662 299.909 208.161 299.582C207.663 299.256 207.088 299.092 206.435 299.092C205.743 299.092 205.135 299.277 204.609 299.646C204.084 300.016 203.672 300.503 203.374 301.109C203.08 301.715 202.931 302.378 202.926 303.098V303.766C202.926 304.632 203.075 305.39 203.374 306.038C203.677 306.682 204.105 307.182 204.659 307.537C205.213 307.892 205.869 308.07 206.626 308.07C207.143 308.07 207.595 307.989 207.983 307.828C208.376 307.667 208.705 307.452 208.97 307.182C209.24 306.907 209.444 306.607 209.581 306.28L210.781 306.67C210.616 307.13 210.343 307.554 209.964 307.942C209.59 308.33 209.122 308.643 208.558 308.879C208 309.111 207.356 309.227 206.626 309.227ZM223.873 309.227C222.855 309.227 221.974 308.991 221.23 308.517C220.487 308.039 219.912 307.378 219.505 306.536C219.102 305.688 218.901 304.713 218.901 303.609C218.901 302.511 219.102 301.536 219.505 300.683C219.912 299.826 220.473 299.156 221.188 298.673C221.908 298.186 222.739 297.942 223.681 297.942C224.273 297.942 224.843 298.051 225.392 298.268C225.942 298.482 226.434 298.811 226.87 299.256C227.31 299.696 227.658 300.252 227.914 300.925C228.169 301.592 228.297 302.383 228.297 303.297V303.922H219.775V302.807H227.005C227.005 302.106 226.863 301.476 226.578 300.918C226.299 300.354 225.908 299.909 225.407 299.582C224.909 299.256 224.334 299.092 223.681 299.092C222.989 299.092 222.381 299.277 221.855 299.646C221.33 300.016 220.918 300.503 220.62 301.109C220.326 301.715 220.177 302.378 220.172 303.098V303.766C220.172 304.632 220.321 305.39 220.62 306.038C220.923 306.682 221.351 307.182 221.905 307.537C222.459 307.892 223.115 308.07 223.873 308.07C224.389 308.07 224.841 307.989 225.229 307.828C225.622 307.667 225.951 307.452 226.216 307.182C226.486 306.907 226.69 306.607 226.827 306.28L228.027 306.67C227.862 307.13 227.589 307.554 227.211 307.942C226.837 308.33 226.368 308.643 225.804 308.879C225.246 309.111 224.602 309.227 223.873 309.227ZM238.477 313.091V306.976H238.363C238.216 307.307 238.008 307.648 237.738 307.999C237.468 308.344 237.111 308.635 236.665 308.872C236.22 309.109 235.669 309.227 235.011 309.227C234.121 309.227 233.337 308.991 232.66 308.517C231.987 308.044 231.462 307.383 231.083 306.536C230.709 305.688 230.522 304.701 230.522 303.574C230.522 302.452 230.709 301.469 231.083 300.626C231.462 299.779 231.99 299.121 232.667 298.652C233.344 298.179 234.132 297.942 235.032 297.942C235.7 297.942 236.251 298.06 236.687 298.297C237.127 298.534 237.48 298.825 237.745 299.17C238.01 299.511 238.216 299.845 238.363 300.172H238.512V298.091H239.748V313.091H238.477ZM235.16 308.07C235.865 308.07 236.467 307.878 236.964 307.494C237.461 307.106 237.84 306.573 238.1 305.896C238.365 305.214 238.498 304.433 238.498 303.553C238.498 302.681 238.368 301.912 238.107 301.244C237.847 300.572 237.468 300.046 236.971 299.668C236.478 299.284 235.875 299.092 235.16 299.092C234.431 299.092 233.815 299.291 233.313 299.689C232.811 300.082 232.433 300.615 232.177 301.287C231.921 301.959 231.793 302.714 231.793 303.553C231.793 304.4 231.924 305.165 232.184 305.847C232.444 306.528 232.826 307.071 233.327 307.473C233.829 307.871 234.44 308.07 235.16 308.07ZM250.007 304.831V298.091H251.271V309H250.007V307.189H249.908C249.652 307.748 249.247 308.214 248.693 308.588C248.139 308.957 247.462 309.142 246.662 309.142C245.966 309.142 245.348 308.991 244.808 308.688C244.268 308.38 243.845 307.93 243.537 307.338C243.229 306.746 243.075 306.019 243.075 305.158V298.091H244.339V305.08C244.339 305.932 244.59 306.618 245.092 307.139C245.594 307.655 246.238 307.913 247.024 307.913C247.517 307.913 247.99 307.795 248.445 307.558C248.899 307.321 249.273 306.976 249.567 306.521C249.86 306.062 250.007 305.499 250.007 304.831ZM257.665 309.249C257.007 309.249 256.406 309.121 255.861 308.865C255.317 308.605 254.883 308.231 254.561 307.743C254.239 307.25 254.078 306.654 254.078 305.953C254.078 305.413 254.18 304.959 254.384 304.589C254.587 304.22 254.876 303.917 255.25 303.68C255.624 303.444 256.067 303.257 256.578 303.119C257.09 302.982 257.653 302.875 258.269 302.8C258.88 302.724 259.396 302.658 259.817 302.601C260.243 302.544 260.568 302.454 260.79 302.331C261.013 302.208 261.124 302.009 261.124 301.734V301.479C261.124 300.735 260.901 300.151 260.456 299.724C260.016 299.294 259.382 299.078 258.553 299.078C257.767 299.078 257.125 299.251 256.628 299.597C256.136 299.942 255.79 300.349 255.591 300.818L254.391 300.385C254.637 299.788 254.978 299.312 255.414 298.957C255.849 298.598 256.337 298.339 256.877 298.183C257.417 298.022 257.963 297.942 258.517 297.942C258.934 297.942 259.367 297.996 259.817 298.105C260.272 298.214 260.693 298.403 261.081 298.673C261.47 298.938 261.784 299.31 262.026 299.788C262.267 300.262 262.388 300.863 262.388 301.592V309H261.124V307.274H261.046C260.894 307.596 260.669 307.909 260.371 308.212C260.073 308.515 259.699 308.763 259.249 308.957C258.799 309.152 258.271 309.249 257.665 309.249ZM257.836 308.091C258.508 308.091 259.09 307.942 259.583 307.643C260.075 307.345 260.454 306.95 260.719 306.457C260.989 305.96 261.124 305.413 261.124 304.817V303.24C261.029 303.33 260.871 303.411 260.648 303.482C260.43 303.553 260.177 303.616 259.888 303.673C259.604 303.725 259.32 303.77 259.036 303.808C258.752 303.846 258.496 303.879 258.269 303.908C257.653 303.983 257.128 304.102 256.692 304.263C256.257 304.424 255.923 304.646 255.691 304.93C255.459 305.21 255.343 305.57 255.343 306.01C255.343 306.673 255.579 307.187 256.053 307.551C256.526 307.911 257.121 308.091 257.836 308.091ZM267.015 294.455V309H265.751V294.455H267.015ZM29.7159 339.249C29.0578 339.249 28.4564 339.121 27.9119 338.865C27.3674 338.605 26.9342 338.231 26.6122 337.743C26.2902 337.25 26.1293 336.654 26.1293 335.953C26.1293 335.413 26.2311 334.959 26.4347 334.589C26.6383 334.22 26.9271 333.917 27.3011 333.68C27.6752 333.444 28.1179 333.257 28.6293 333.119C29.1406 332.982 29.7041 332.875 30.3196 332.8C30.9304 332.724 31.4465 332.658 31.8679 332.601C32.294 332.544 32.6184 332.454 32.8409 332.331C33.0634 332.208 33.1747 332.009 33.1747 331.734V331.479C33.1747 330.735 32.9522 330.151 32.5071 329.724C32.0668 329.294 31.4323 329.078 30.6037 329.078C29.8177 329.078 29.1761 329.251 28.679 329.597C28.1866 329.942 27.8409 330.349 27.642 330.818L26.4418 330.385C26.688 329.788 27.0289 329.312 27.4645 328.957C27.9001 328.598 28.3878 328.339 28.9276 328.183C29.4673 328.022 30.0142 327.942 30.5682 327.942C30.9848 327.942 31.4181 327.996 31.8679 328.105C32.3224 328.214 32.7438 328.403 33.1321 328.673C33.5204 328.938 33.8352 329.31 34.0767 329.788C34.3182 330.262 34.4389 330.863 34.4389 331.592V339H33.1747V337.274H33.0966C32.9451 337.596 32.7202 337.909 32.4219 338.212C32.1236 338.515 31.7495 338.763 31.2997 338.957C30.8499 339.152 30.322 339.249 29.7159 339.249ZM29.8864 338.091C30.5587 338.091 31.1411 337.942 31.6335 337.643C32.1259 337.345 32.5047 336.95 32.7699 336.457C33.0398 335.96 33.1747 335.413 33.1747 334.817V333.24C33.08 333.33 32.9214 333.411 32.6989 333.482C32.4811 333.553 32.2277 333.616 31.9389 333.673C31.6548 333.725 31.3707 333.77 31.0866 333.808C30.8026 333.846 30.5469 333.879 30.3196 333.908C29.7041 333.983 29.1785 334.102 28.7429 334.263C28.3073 334.424 27.9735 334.646 27.7415 334.93C27.5095 335.21 27.3935 335.57 27.3935 336.01C27.3935 336.673 27.6302 337.187 28.1037 337.551C28.5772 337.911 29.1714 338.091 29.8864 338.091ZM42.0632 339.227C41.0878 339.227 40.2379 338.983 39.5135 338.496C38.7938 338.008 38.2351 337.34 37.8374 336.493C37.4396 335.645 37.2408 334.679 37.2408 333.595C37.2408 332.501 37.442 331.528 37.8445 330.676C38.2517 329.824 38.8151 329.156 39.5348 328.673C40.2545 328.186 41.0902 327.942 42.0419 327.942C42.7711 327.942 43.4316 328.084 44.0234 328.368C44.6153 328.647 45.103 329.043 45.4865 329.554C45.8748 330.061 46.1186 330.652 46.218 331.33H44.9396C44.8071 330.714 44.4875 330.188 43.9808 329.753C43.4789 329.312 42.8397 329.092 42.0632 329.092C41.3672 329.092 40.7517 329.282 40.2166 329.661C39.6816 330.035 39.2625 330.558 38.9595 331.23C38.6612 331.898 38.5121 332.672 38.5121 333.553C38.5121 334.438 38.6589 335.222 38.9524 335.903C39.246 336.58 39.6579 337.111 40.1882 337.494C40.7232 337.878 41.3482 338.07 42.0632 338.07C42.5462 338.07 42.9865 337.98 43.3842 337.8C43.7867 337.615 44.1229 337.355 44.3928 337.018C44.6674 336.682 44.852 336.282 44.9467 335.818H46.2251C46.1304 336.476 45.8961 337.063 45.522 337.58C45.1527 338.091 44.6721 338.493 44.0803 338.787C43.4931 339.08 42.8208 339.227 42.0632 339.227ZM53.196 339.227C52.2206 339.227 51.3707 338.983 50.6463 338.496C49.9266 338.008 49.3679 337.34 48.9702 336.493C48.5724 335.645 48.3736 334.679 48.3736 333.595C48.3736 332.501 48.5748 331.528 48.9773 330.676C49.3845 329.824 49.9479 329.156 50.6676 328.673C51.3873 328.186 52.223 327.942 53.1747 327.942C53.9039 327.942 54.5644 328.084 55.1562 328.368C55.7481 328.647 56.2358 329.043 56.6193 329.554C57.0076 330.061 57.2514 330.652 57.3509 331.33H56.0724C55.9399 330.714 55.6203 330.188 55.1136 329.753C54.6117 329.312 53.9725 329.092 53.196 329.092C52.5 329.092 51.8845 329.282 51.3494 329.661C50.8144 330.035 50.3954 330.558 50.0923 331.23C49.794 331.898 49.6449 332.672 49.6449 333.553C49.6449 334.438 49.7917 335.222 50.0852 335.903C50.3788 336.58 50.7907 337.111 51.321 337.494C51.8561 337.878 52.4811 338.07 53.196 338.07C53.679 338.07 54.1193 337.98 54.517 337.8C54.9195 337.615 55.2557 337.355 55.5256 337.018C55.8002 336.682 55.9848 336.282 56.0795 335.818H57.358C57.2633 336.476 57.0289 337.063 56.6548 337.58C56.2855 338.091 55.8049 338.493 55.2131 338.787C54.6259 339.08 53.9536 339.227 53.196 339.227ZM64.478 339.227C63.46 339.227 62.5793 338.991 61.8359 338.517C61.0926 338.039 60.5173 337.378 60.1101 336.536C59.7076 335.688 59.5064 334.713 59.5064 333.609C59.5064 332.511 59.7076 331.536 60.1101 330.683C60.5173 329.826 61.0784 329.156 61.7933 328.673C62.513 328.186 63.344 327.942 64.2862 327.942C64.8781 327.942 65.4486 328.051 65.9979 328.268C66.5471 328.482 67.0395 328.811 67.4751 329.256C67.9155 329.696 68.2635 330.252 68.5192 330.925C68.7749 331.592 68.9027 332.383 68.9027 333.297V333.922H60.38V332.807H67.6101C67.6101 332.106 67.468 331.476 67.1839 330.918C66.9046 330.354 66.514 329.909 66.0121 329.582C65.5149 329.256 64.9396 329.092 64.2862 329.092C63.5949 329.092 62.9865 329.277 62.4609 329.646C61.9354 330.016 61.5234 330.503 61.2251 331.109C60.9316 331.715 60.7824 332.378 60.7777 333.098V333.766C60.7777 334.632 60.9268 335.39 61.2251 336.038C61.5282 336.682 61.9567 337.182 62.5107 337.537C63.0646 337.892 63.7204 338.07 64.478 338.07C64.9941 338.07 65.4463 337.989 65.8345 337.828C66.2275 337.667 66.5566 337.452 66.8217 337.182C67.0916 336.907 67.2952 336.607 67.4325 336.28L68.6328 336.67C68.4671 337.13 68.1948 337.554 67.8161 337.942C67.442 338.33 66.9732 338.643 66.4098 338.879C65.8511 339.111 65.2071 339.227 64.478 339.227ZM79.0181 330.484L77.8604 330.811C77.7468 330.484 77.5858 330.188 77.3775 329.923C77.1692 329.658 76.8969 329.447 76.5607 329.291C76.2293 329.135 75.8174 329.057 75.3249 329.057C74.5863 329.057 73.9802 329.232 73.5067 329.582C73.0333 329.933 72.7965 330.385 72.7965 330.939C72.7965 331.408 72.9575 331.789 73.2795 332.082C73.6062 332.371 74.1081 332.601 74.7852 332.771L76.4329 333.176C77.3467 333.399 78.0309 333.751 78.4854 334.234C78.9447 334.717 79.1744 335.323 79.1744 336.053C79.1744 336.668 79.0039 337.215 78.663 337.693C78.3221 338.171 77.8462 338.548 77.2354 338.822C76.6294 339.092 75.9263 339.227 75.1261 339.227C74.0607 339.227 73.1824 338.988 72.4911 338.51C71.7998 338.027 71.3571 337.331 71.163 336.422L72.3775 336.124C72.5337 336.772 72.8391 337.262 73.2937 337.594C73.753 337.925 74.3567 338.091 75.1048 338.091C75.9428 338.091 76.6128 337.904 77.1147 337.53C77.6166 337.151 77.8675 336.678 77.8675 336.109C77.8675 335.669 77.7208 335.3 77.4272 335.001C77.1336 334.698 76.6886 334.476 76.092 334.334L74.3093 333.908C73.3623 333.68 72.6616 333.321 72.207 332.828C71.7525 332.336 71.5252 331.725 71.5252 330.996C71.5252 330.394 71.6886 329.866 72.0153 329.412C72.342 328.953 72.7918 328.593 73.3647 328.332C73.9376 328.072 74.591 327.942 75.3249 327.942C76.324 327.942 77.1218 328.169 77.7184 328.624C78.3197 329.073 78.753 329.694 79.0181 330.484ZM89.272 330.484L88.1143 330.811C88.0007 330.484 87.8397 330.188 87.6314 329.923C87.4231 329.658 87.1508 329.447 86.8146 329.291C86.4832 329.135 86.0713 329.057 85.5788 329.057C84.8402 329.057 84.2341 329.232 83.7607 329.582C83.2872 329.933 83.0504 330.385 83.0504 330.939C83.0504 331.408 83.2114 331.789 83.5334 332.082C83.8601 332.371 84.362 332.601 85.0391 332.771L86.6868 333.176C87.6006 333.399 88.2848 333.751 88.7393 334.234C89.1986 334.717 89.4283 335.323 89.4283 336.053C89.4283 336.668 89.2578 337.215 88.9169 337.693C88.576 338.171 88.1001 338.548 87.4893 338.822C86.8833 339.092 86.1802 339.227 85.38 339.227C84.3146 339.227 83.4363 338.988 82.745 338.51C82.0537 338.027 81.611 337.331 81.4169 336.422L82.6314 336.124C82.7876 336.772 83.093 337.262 83.5476 337.594C84.0069 337.925 84.6106 338.091 85.3587 338.091C86.1967 338.091 86.8667 337.904 87.3686 337.53C87.8705 337.151 88.1214 336.678 88.1214 336.109C88.1214 335.669 87.9747 335.3 87.6811 335.001C87.3875 334.698 86.9425 334.476 86.3459 334.334L84.5632 333.908C83.6162 333.68 82.9155 333.321 82.4609 332.828C82.0064 332.336 81.7791 331.725 81.7791 330.996C81.7791 330.394 81.9425 329.866 82.2692 329.412C82.5959 328.953 83.0457 328.593 83.6186 328.332C84.1915 328.072 84.8449 327.942 85.5788 327.942C86.5779 327.942 87.3757 328.169 87.9723 328.624C88.5736 329.073 89.0069 329.694 89.272 330.484ZM102.118 328.091V329.192H96.9123V328.091H102.118ZM98.5387 325.477H99.81V336.152C99.81 336.607 99.8881 336.964 100.044 337.224C100.201 337.48 100.404 337.662 100.655 337.771C100.906 337.875 101.174 337.928 101.458 337.928C101.623 337.928 101.766 337.918 101.884 337.899C102.002 337.875 102.106 337.852 102.196 337.828L102.466 338.972C102.343 339.019 102.192 339.062 102.012 339.099C101.832 339.142 101.609 339.163 101.344 339.163C100.88 339.163 100.433 339.062 100.002 338.858C99.5756 338.654 99.2253 338.351 98.9506 337.949C98.676 337.546 98.5387 337.047 98.5387 336.45V325.477ZM109.112 339.227C108.17 339.227 107.337 338.988 106.612 338.51C105.893 338.032 105.329 337.371 104.922 336.528C104.515 335.681 104.311 334.703 104.311 333.595C104.311 332.478 104.515 331.495 104.922 330.648C105.329 329.795 105.893 329.133 106.612 328.659C107.337 328.181 108.17 327.942 109.112 327.942C110.054 327.942 110.885 328.181 111.605 328.659C112.325 329.137 112.888 329.8 113.295 330.648C113.707 331.495 113.913 332.478 113.913 333.595C113.913 334.703 113.71 335.681 113.303 336.528C112.895 337.371 112.33 338.032 111.605 338.51C110.885 338.988 110.054 339.227 109.112 339.227ZM109.112 338.07C109.87 338.07 110.511 337.866 111.037 337.459C111.563 337.052 111.96 336.509 112.23 335.832C112.505 335.155 112.642 334.41 112.642 333.595C112.642 332.781 112.505 332.033 112.23 331.351C111.96 330.669 111.563 330.122 111.037 329.71C110.511 329.298 109.87 329.092 109.112 329.092C108.359 329.092 107.718 329.298 107.188 329.71C106.662 330.122 106.262 330.669 105.987 331.351C105.717 332.033 105.582 332.781 105.582 333.595C105.582 334.41 105.717 335.155 105.987 335.832C106.262 336.509 106.662 337.052 107.188 337.459C107.713 337.866 108.355 338.07 109.112 338.07ZM123.464 334.881L123.45 333.226H123.734L128.848 328.091H130.446L125.396 333.148L125.282 333.169L123.464 334.881ZM122.314 339V324.455H123.578V339H122.314ZM129.11 339L124.679 333.396L125.588 332.523L130.73 339H129.11ZM134.086 332.182V339H132.821V328.091H134.05V329.803H134.164C134.419 329.244 134.817 328.796 135.357 328.46C135.901 328.119 136.574 327.949 137.374 327.949C138.108 327.949 138.752 328.103 139.306 328.411C139.864 328.714 140.298 329.161 140.605 329.753C140.918 330.345 141.074 331.071 141.074 331.933V339H139.81V332.011C139.81 331.116 139.559 330.409 139.057 329.888C138.56 329.367 137.892 329.107 137.054 329.107C136.481 329.107 135.972 329.23 135.527 329.476C135.082 329.722 134.73 330.077 134.469 330.541C134.213 331 134.086 331.547 134.086 332.182ZM148.643 339.227C147.701 339.227 146.868 338.988 146.143 338.51C145.424 338.032 144.86 337.371 144.453 336.528C144.046 335.681 143.842 334.703 143.842 333.595C143.842 332.478 144.046 331.495 144.453 330.648C144.86 329.795 145.424 329.133 146.143 328.659C146.868 328.181 147.701 327.942 148.643 327.942C149.586 327.942 150.417 328.181 151.136 328.659C151.856 329.137 152.42 329.8 152.827 330.648C153.239 331.495 153.445 332.478 153.445 333.595C153.445 334.703 153.241 335.681 152.834 336.528C152.427 337.371 151.861 338.032 151.136 338.51C150.417 338.988 149.586 339.227 148.643 339.227ZM148.643 338.07C149.401 338.07 150.043 337.866 150.568 337.459C151.094 337.052 151.491 336.509 151.761 335.832C152.036 335.155 152.173 334.41 152.173 333.595C152.173 332.781 152.036 332.033 151.761 331.351C151.491 330.669 151.094 330.122 150.568 329.71C150.043 329.298 149.401 329.092 148.643 329.092C147.891 329.092 147.249 329.298 146.719 329.71C146.193 330.122 145.793 330.669 145.518 331.351C145.249 332.033 145.114 332.781 145.114 333.595C145.114 334.41 145.249 335.155 145.518 335.832C145.793 336.509 146.193 337.052 146.719 337.459C147.244 337.866 147.886 338.07 148.643 338.07ZM158.271 339L154.975 328.091H156.31L158.896 337.089H158.988L161.566 328.091H162.908L165.465 337.068H165.565L168.15 328.091H169.485L166.19 339H164.883L162.298 330.058H162.163L159.577 339H158.271ZM173.207 324.455V339H171.942V324.455H173.207ZM180.962 339.227C179.944 339.227 179.064 338.991 178.32 338.517C177.577 338.039 177.002 337.378 176.594 336.536C176.192 335.688 175.991 334.713 175.991 333.609C175.991 332.511 176.192 331.536 176.594 330.683C177.002 329.826 177.563 329.156 178.278 328.673C178.997 328.186 179.828 327.942 180.771 327.942C181.362 327.942 181.933 328.051 182.482 328.268C183.031 328.482 183.524 328.811 183.96 329.256C184.4 329.696 184.748 330.252 185.004 330.925C185.259 331.592 185.387 332.383 185.387 333.297V333.922H176.864V332.807H184.094C184.094 332.106 183.952 331.476 183.668 330.918C183.389 330.354 182.998 329.909 182.496 329.582C181.999 329.256 181.424 329.092 180.771 329.092C180.079 329.092 179.471 329.277 178.945 329.646C178.42 330.016 178.008 330.503 177.71 331.109C177.416 331.715 177.267 332.378 177.262 333.098V333.766C177.262 334.632 177.411 335.39 177.71 336.038C178.013 336.682 178.441 337.182 178.995 337.537C179.549 337.892 180.205 338.07 180.962 338.07C181.478 338.07 181.931 337.989 182.319 337.828C182.712 337.667 183.041 337.452 183.306 337.182C183.576 336.907 183.78 336.607 183.917 336.28L185.117 336.67C184.951 337.13 184.679 337.554 184.3 337.942C183.926 338.33 183.458 338.643 182.894 338.879C182.335 339.111 181.692 339.227 180.962 339.227ZM192.1 339.227C191.206 339.227 190.422 338.991 189.75 338.517C189.077 338.044 188.552 337.383 188.173 336.536C187.799 335.688 187.612 334.701 187.612 333.574C187.612 332.452 187.799 331.469 188.173 330.626C188.552 329.779 189.08 329.121 189.757 328.652C190.434 328.179 191.222 327.942 192.122 327.942C192.785 327.942 193.336 328.06 193.777 328.297C194.217 328.529 194.57 328.818 194.835 329.163C195.1 329.509 195.306 329.845 195.453 330.172H195.566V324.455H196.838V339H195.602V336.976H195.453C195.306 337.307 195.098 337.648 194.828 337.999C194.558 338.344 194.2 338.635 193.755 338.872C193.315 339.109 192.763 339.227 192.1 339.227ZM192.25 338.07C192.955 338.07 193.556 337.878 194.054 337.494C194.551 337.106 194.93 336.573 195.19 335.896C195.455 335.214 195.588 334.433 195.588 333.553C195.588 332.681 195.458 331.912 195.197 331.244C194.937 330.572 194.558 330.046 194.061 329.668C193.564 329.284 192.96 329.092 192.25 329.092C191.52 329.092 190.905 329.291 190.403 329.689C189.906 330.082 189.527 330.615 189.267 331.287C189.011 331.959 188.883 332.714 188.883 333.553C188.883 334.4 189.013 335.165 189.274 335.847C189.534 336.528 189.913 337.071 190.41 337.473C190.912 337.871 191.525 338.07 192.25 338.07ZM204.6 343.318C203.857 343.318 203.206 343.221 202.647 343.027C202.089 342.838 201.618 342.577 201.234 342.246C200.85 341.914 200.552 341.543 200.339 341.131L201.376 340.449C201.532 340.723 201.741 340.993 202.001 341.259C202.266 341.524 202.609 341.744 203.031 341.919C203.457 342.094 203.98 342.182 204.6 342.182C205.566 342.182 206.345 341.94 206.937 341.457C207.534 340.974 207.832 340.224 207.832 339.206V336.749H207.718C207.572 337.08 207.361 337.411 207.086 337.743C206.812 338.07 206.452 338.342 206.007 338.56C205.566 338.777 205.02 338.886 204.366 338.886C203.495 338.886 202.721 338.671 202.044 338.24C201.371 337.809 200.841 337.194 200.453 336.393C200.069 335.589 199.877 334.63 199.877 333.517C199.877 332.414 200.065 331.443 200.439 330.605C200.817 329.767 201.345 329.114 202.022 328.645C202.699 328.176 203.488 327.942 204.387 327.942C205.055 327.942 205.609 328.06 206.049 328.297C206.49 328.529 206.842 328.818 207.108 329.163C207.377 329.509 207.588 329.845 207.74 330.172H207.868V328.091H209.103V339.284C209.103 340.207 208.907 340.967 208.514 341.564C208.121 342.161 207.586 342.601 206.909 342.885C206.232 343.174 205.462 343.318 204.6 343.318ZM204.515 337.729C205.216 337.729 205.815 337.561 206.312 337.224C206.809 336.884 207.19 336.396 207.456 335.761C207.721 335.127 207.853 334.372 207.853 333.496C207.853 332.643 207.723 331.888 207.463 331.23C207.202 330.567 206.824 330.046 206.326 329.668C205.834 329.284 205.23 329.092 204.515 329.092C203.786 329.092 203.171 329.289 202.669 329.682C202.167 330.075 201.788 330.605 201.532 331.273C201.277 331.936 201.149 332.677 201.149 333.496C201.149 334.329 201.279 335.065 201.539 335.705C201.8 336.339 202.181 336.836 202.683 337.196C203.185 337.551 203.796 337.729 204.515 337.729ZM216.861 339.227C215.843 339.227 214.962 338.991 214.219 338.517C213.475 338.039 212.9 337.378 212.493 336.536C212.09 335.688 211.889 334.713 211.889 333.609C211.889 332.511 212.09 331.536 212.493 330.683C212.9 329.826 213.461 329.156 214.176 328.673C214.896 328.186 215.727 327.942 216.669 327.942C217.261 327.942 217.831 328.051 218.381 328.268C218.93 328.482 219.422 328.811 219.858 329.256C220.298 329.696 220.646 330.252 220.902 330.925C221.158 331.592 221.286 332.383 221.286 333.297V333.922H212.763V332.807H219.993C219.993 332.106 219.851 331.476 219.567 330.918C219.287 330.354 218.897 329.909 218.395 329.582C217.898 329.256 217.322 329.092 216.669 329.092C215.978 329.092 215.369 329.277 214.844 329.646C214.318 330.016 213.906 330.503 213.608 331.109C213.314 331.715 213.165 332.378 213.161 333.098V333.766C213.161 334.632 213.31 335.39 213.608 336.038C213.911 336.682 214.339 337.182 214.893 337.537C215.447 337.892 216.103 338.07 216.861 338.07C217.377 338.07 217.829 337.989 218.217 337.828C218.61 337.667 218.939 337.452 219.205 337.182C219.474 336.907 219.678 336.607 219.815 336.28L221.016 336.67C220.85 337.13 220.578 337.554 220.199 337.942C219.825 338.33 219.356 338.643 218.793 338.879C218.234 339.111 217.59 339.227 216.861 339.227ZM232.743 339.249C232.085 339.249 231.484 339.121 230.939 338.865C230.395 338.605 229.962 338.231 229.64 337.743C229.318 337.25 229.157 336.654 229.157 335.953C229.157 335.413 229.258 334.959 229.462 334.589C229.666 334.22 229.954 333.917 230.328 333.68C230.703 333.444 231.145 333.257 231.657 333.119C232.168 332.982 232.731 332.875 233.347 332.8C233.958 332.724 234.474 332.658 234.895 332.601C235.321 332.544 235.646 332.454 235.868 332.331C236.091 332.208 236.202 332.009 236.202 331.734V331.479C236.202 330.735 235.98 330.151 235.534 329.724C235.094 329.294 234.46 329.078 233.631 329.078C232.845 329.078 232.203 329.251 231.706 329.597C231.214 329.942 230.868 330.349 230.669 330.818L229.469 330.385C229.715 329.788 230.056 329.312 230.492 328.957C230.927 328.598 231.415 328.339 231.955 328.183C232.495 328.022 233.042 327.942 233.596 327.942C234.012 327.942 234.445 327.996 234.895 328.105C235.35 328.214 235.771 328.403 236.159 328.673C236.548 328.938 236.863 329.31 237.104 329.788C237.346 330.262 237.466 330.863 237.466 331.592V339H236.202V337.274H236.124C235.972 337.596 235.748 337.909 235.449 338.212C235.151 338.515 234.777 338.763 234.327 338.957C233.877 339.152 233.349 339.249 232.743 339.249ZM232.914 338.091C233.586 338.091 234.168 337.942 234.661 337.643C235.153 337.345 235.532 336.95 235.797 336.457C236.067 335.96 236.202 335.413 236.202 334.817V333.24C236.107 333.33 235.949 333.411 235.726 333.482C235.508 333.553 235.255 333.616 234.966 333.673C234.682 333.725 234.398 333.77 234.114 333.808C233.83 333.846 233.574 333.879 233.347 333.908C232.731 333.983 232.206 334.102 231.77 334.263C231.335 334.424 231.001 334.646 230.769 334.93C230.537 335.21 230.421 335.57 230.421 336.01C230.421 336.673 230.658 337.187 231.131 337.551C231.605 337.911 232.199 338.091 232.914 338.091ZM242.093 332.182V339H240.829V328.091H242.058V329.803H242.172C242.427 329.244 242.825 328.796 243.365 328.46C243.909 328.119 244.582 327.949 245.382 327.949C246.116 327.949 246.76 328.103 247.314 328.411C247.872 328.714 248.306 329.161 248.613 329.753C248.926 330.345 249.082 331.071 249.082 331.933V339H247.818V332.011C247.818 331.116 247.567 330.409 247.065 329.888C246.568 329.367 245.9 329.107 245.062 329.107C244.489 329.107 243.98 329.23 243.535 329.476C243.09 329.722 242.737 330.077 242.477 330.541C242.221 331 242.093 331.547 242.093 332.182ZM256.339 339.227C255.444 339.227 254.66 338.991 253.988 338.517C253.316 338.044 252.79 337.383 252.411 336.536C252.037 335.688 251.85 334.701 251.85 333.574C251.85 332.452 252.037 331.469 252.411 330.626C252.79 329.779 253.318 329.121 253.995 328.652C254.672 328.179 255.46 327.942 256.36 327.942C257.023 327.942 257.575 328.06 258.015 328.297C258.455 328.529 258.808 328.818 259.073 329.163C259.338 329.509 259.544 329.845 259.691 330.172H259.805V324.455H261.076V339H259.84V336.976H259.691C259.544 337.307 259.336 337.648 259.066 337.999C258.796 338.344 258.439 338.635 257.994 338.872C257.553 339.109 257.002 339.227 256.339 339.227ZM256.488 338.07C257.193 338.07 257.795 337.878 258.292 337.494C258.789 337.106 259.168 336.573 259.428 335.896C259.693 335.214 259.826 334.433 259.826 333.553C259.826 332.681 259.696 331.912 259.435 331.244C259.175 330.572 258.796 330.046 258.299 329.668C257.802 329.284 257.198 329.092 256.488 329.092C255.759 329.092 255.143 329.291 254.641 329.689C254.144 330.082 253.765 330.615 253.505 331.287C253.249 331.959 253.121 332.714 253.121 333.553C253.121 334.4 253.252 335.165 253.512 335.847C253.772 336.528 254.151 337.071 254.648 337.473C255.15 337.871 255.763 338.07 256.488 338.07ZM26.669 369V358.091H27.8977V359.767H27.9901C28.2079 359.218 28.5866 358.775 29.1264 358.439C29.6709 358.098 30.2865 357.928 30.973 357.928C31.0772 357.928 31.1932 357.93 31.321 357.935C31.4489 357.939 31.5554 357.944 31.6406 357.949V359.234C31.5838 359.225 31.4844 359.211 31.3423 359.192C31.2003 359.173 31.0464 359.163 30.8807 359.163C30.3125 359.163 29.8059 359.284 29.3608 359.526C28.9205 359.762 28.5724 360.091 28.3168 360.513C28.0611 360.934 27.9332 361.415 27.9332 361.955V369H26.669ZM37.8764 369.227C36.8584 369.227 35.9777 368.991 35.2344 368.517C34.491 368.039 33.9157 367.378 33.5085 366.536C33.1061 365.688 32.9048 364.713 32.9048 363.609C32.9048 362.511 33.1061 361.536 33.5085 360.683C33.9157 359.826 34.4768 359.156 35.1918 358.673C35.9115 358.186 36.7424 357.942 37.6847 357.942C38.2765 357.942 38.8471 358.051 39.3963 358.268C39.9455 358.482 40.438 358.811 40.8736 359.256C41.3139 359.696 41.6619 360.252 41.9176 360.925C42.1733 361.592 42.3011 362.383 42.3011 363.297V363.922H33.7784V362.807H41.0085C41.0085 362.106 40.8665 361.476 40.5824 360.918C40.303 360.354 39.9124 359.909 39.4105 359.582C38.9134 359.256 38.3381 359.092 37.6847 359.092C36.9934 359.092 36.3849 359.277 35.8594 359.646C35.3338 360.016 34.9219 360.503 34.6236 361.109C34.33 361.715 34.1809 362.378 34.1761 363.098V363.766C34.1761 364.632 34.3253 365.39 34.6236 366.038C34.9266 366.682 35.3551 367.182 35.9091 367.537C36.4631 367.892 37.1188 368.07 37.8764 368.07C38.3925 368.07 38.8447 367.989 39.233 367.828C39.6259 367.667 39.955 367.452 40.2202 367.182C40.4901 366.907 40.6937 366.607 40.831 366.28L42.0312 366.67C41.8655 367.13 41.5933 367.554 41.2145 367.942C40.8404 368.33 40.3717 368.643 39.8082 368.879C39.2495 369.111 38.6056 369.227 37.8764 369.227ZM52.4165 360.484L51.2589 360.811C51.1452 360.484 50.9843 360.188 50.7759 359.923C50.5676 359.658 50.2953 359.447 49.9592 359.291C49.6277 359.135 49.2158 359.057 48.7234 359.057C47.9847 359.057 47.3787 359.232 46.9052 359.582C46.4317 359.933 46.195 360.385 46.195 360.939C46.195 361.408 46.3559 361.789 46.6779 362.082C47.0046 362.371 47.5065 362.601 48.1836 362.771L49.8313 363.176C50.7451 363.399 51.4293 363.751 51.8839 364.234C52.3432 364.717 52.5728 365.323 52.5728 366.053C52.5728 366.668 52.4023 367.215 52.0614 367.693C51.7205 368.171 51.2447 368.548 50.6339 368.822C50.0278 369.092 49.3247 369.227 48.5245 369.227C47.4592 369.227 46.5808 368.988 45.8896 368.51C45.1983 368.027 44.7556 367.331 44.5614 366.422L45.7759 366.124C45.9322 366.772 46.2376 367.262 46.6921 367.594C47.1514 367.925 47.7551 368.091 48.5032 368.091C49.3413 368.091 50.0112 367.904 50.5131 367.53C51.015 367.151 51.266 366.678 51.266 366.109C51.266 365.669 51.1192 365.3 50.8256 365.001C50.5321 364.698 50.087 364.476 49.4904 364.334L47.7077 363.908C46.7608 363.68 46.06 363.321 45.6055 362.828C45.1509 362.336 44.9237 361.725 44.9237 360.996C44.9237 360.394 45.087 359.866 45.4137 359.412C45.7404 358.953 46.1902 358.593 46.7631 358.332C47.3361 358.072 47.9895 357.942 48.7234 357.942C49.7224 357.942 50.5202 358.169 51.1168 358.624C51.7182 359.073 52.1514 359.694 52.4165 360.484ZM59.581 369.227C58.6387 369.227 57.8054 368.988 57.081 368.51C56.3613 368.032 55.7978 367.371 55.3906 366.528C54.9834 365.681 54.7798 364.703 54.7798 363.595C54.7798 362.478 54.9834 361.495 55.3906 360.648C55.7978 359.795 56.3613 359.133 57.081 358.659C57.8054 358.181 58.6387 357.942 59.581 357.942C60.5232 357.942 61.3542 358.181 62.0739 358.659C62.7936 359.137 63.357 359.8 63.7642 360.648C64.1761 361.495 64.3821 362.478 64.3821 363.595C64.3821 364.703 64.1785 365.681 63.7713 366.528C63.3641 367.371 62.7983 368.032 62.0739 368.51C61.3542 368.988 60.5232 369.227 59.581 369.227ZM59.581 368.07C60.3385 368.07 60.9801 367.866 61.5057 367.459C62.0313 367.052 62.429 366.509 62.6989 365.832C62.9735 365.155 63.1108 364.41 63.1108 363.595C63.1108 362.781 62.9735 362.033 62.6989 361.351C62.429 360.669 62.0313 360.122 61.5057 359.71C60.9801 359.298 60.3385 359.092 59.581 359.092C58.8281 359.092 58.1866 359.298 57.6562 359.71C57.1307 360.122 56.7306 360.669 56.456 361.351C56.1861 362.033 56.0511 362.781 56.0511 363.595C56.0511 364.41 56.1861 365.155 56.456 365.832C56.7306 366.509 57.1307 367.052 57.6562 367.459C58.1818 367.866 58.8234 368.07 59.581 368.07ZM74.0891 364.831V358.091H75.3533V369H74.0891V367.189H73.9897C73.734 367.748 73.3292 368.214 72.7752 368.588C72.2212 368.957 71.5442 369.142 70.744 369.142C70.0479 369.142 69.43 368.991 68.8903 368.688C68.3505 368.38 67.9267 367.93 67.619 367.338C67.3112 366.746 67.1573 366.019 67.1573 365.158V358.091H68.4215V365.08C68.4215 365.932 68.6725 366.618 69.1744 367.139C69.6763 367.655 70.3202 367.913 71.1062 367.913C71.5986 367.913 72.0721 367.795 72.5266 367.558C72.9812 367.321 73.3552 366.976 73.6488 366.521C73.9424 366.062 74.0891 365.499 74.0891 364.831ZM78.7003 369V358.091H79.929V359.767H80.0213C80.2391 359.218 80.6179 358.775 81.1577 358.439C81.7022 358.098 82.3177 357.928 83.0043 357.928C83.1084 357.928 83.2244 357.93 83.3523 357.935C83.4801 357.939 83.5866 357.944 83.6719 357.949V359.234C83.6151 359.225 83.5156 359.211 83.3736 359.192C83.2315 359.173 83.0777 359.163 82.9119 359.163C82.3438 359.163 81.8371 359.284 81.392 359.526C80.9517 359.762 80.6037 360.091 80.348 360.513C80.0923 360.934 79.9645 361.415 79.9645 361.955V369H78.7003ZM89.7585 369.227C88.7831 369.227 87.9332 368.983 87.2088 368.496C86.4891 368.008 85.9304 367.34 85.5327 366.493C85.1349 365.645 84.9361 364.679 84.9361 363.595C84.9361 362.501 85.1373 361.528 85.5398 360.676C85.947 359.824 86.5104 359.156 87.2301 358.673C87.9498 358.186 88.7855 357.942 89.7372 357.942C90.4664 357.942 91.1269 358.084 91.7188 358.368C92.3106 358.647 92.7983 359.043 93.1818 359.554C93.5701 360.061 93.8139 360.652 93.9134 361.33H92.6349C92.5024 360.714 92.1828 360.188 91.6761 359.753C91.1742 359.312 90.535 359.092 89.7585 359.092C89.0625 359.092 88.447 359.282 87.9119 359.661C87.3769 360.035 86.9579 360.558 86.6548 361.23C86.3565 361.898 86.2074 362.672 86.2074 363.553C86.2074 364.438 86.3542 365.222 86.6477 365.903C86.9413 366.58 87.3532 367.111 87.8835 367.494C88.4186 367.878 89.0436 368.07 89.7585 368.07C90.2415 368.07 90.6818 367.98 91.0795 367.8C91.482 367.615 91.8182 367.355 92.0881 367.018C92.3627 366.682 92.5473 366.282 92.642 365.818H93.9205C93.8258 366.476 93.5914 367.063 93.2173 367.58C92.848 368.091 92.3674 368.493 91.7756 368.787C91.1884 369.08 90.5161 369.227 89.7585 369.227ZM101.04 369.227C100.022 369.227 99.1418 368.991 98.3984 368.517C97.6551 368.039 97.0798 367.378 96.6726 366.536C96.2701 365.688 96.0689 364.713 96.0689 363.609C96.0689 362.511 96.2701 361.536 96.6726 360.683C97.0798 359.826 97.6409 359.156 98.3558 358.673C99.0755 358.186 99.9065 357.942 100.849 357.942C101.441 357.942 102.011 358.051 102.56 358.268C103.11 358.482 103.602 358.811 104.038 359.256C104.478 359.696 104.826 360.252 105.082 360.925C105.337 361.592 105.465 362.383 105.465 363.297V363.922H96.9425V362.807H104.173C104.173 362.106 104.031 361.476 103.746 360.918C103.467 360.354 103.076 359.909 102.575 359.582C102.077 359.256 101.502 359.092 100.849 359.092C100.157 359.092 99.549 359.277 99.0234 359.646C98.4979 360.016 98.0859 360.503 97.7876 361.109C97.4941 361.715 97.3449 362.378 97.3402 363.098V363.766C97.3402 364.632 97.4893 365.39 97.7876 366.038C98.0907 366.682 98.5192 367.182 99.0732 367.537C99.6271 367.892 100.283 368.07 101.04 368.07C101.557 368.07 102.009 367.989 102.397 367.828C102.79 367.667 103.119 367.452 103.384 367.182C103.654 366.907 103.858 366.607 103.995 366.28L105.195 366.67C105.03 367.13 104.757 367.554 104.379 367.942C104.004 368.33 103.536 368.643 102.972 368.879C102.414 369.111 101.77 369.227 101.04 369.227ZM115.581 360.484L114.423 360.811C114.309 360.484 114.148 360.188 113.94 359.923C113.732 359.658 113.459 359.447 113.123 359.291C112.792 359.135 112.38 359.057 111.887 359.057C111.149 359.057 110.543 359.232 110.069 359.582C109.596 359.933 109.359 360.385 109.359 360.939C109.359 361.408 109.52 361.789 109.842 362.082C110.169 362.371 110.671 362.601 111.348 362.771L112.995 363.176C113.909 363.399 114.593 363.751 115.048 364.234C115.507 364.717 115.737 365.323 115.737 366.053C115.737 366.668 115.566 367.215 115.225 367.693C114.885 368.171 114.409 368.548 113.798 368.822C113.192 369.092 112.489 369.227 111.689 369.227C110.623 369.227 109.745 368.988 109.054 368.51C108.362 368.027 107.92 367.331 107.725 366.422L108.94 366.124C109.096 366.772 109.402 367.262 109.856 367.594C110.315 367.925 110.919 368.091 111.667 368.091C112.505 368.091 113.175 367.904 113.677 367.53C114.179 367.151 114.43 366.678 114.43 366.109C114.43 365.669 114.283 365.3 113.99 365.001C113.696 364.698 113.251 364.476 112.654 364.334L110.872 363.908C109.925 363.68 109.224 363.321 108.77 362.828C108.315 362.336 108.088 361.725 108.088 360.996C108.088 360.394 108.251 359.866 108.578 359.412C108.904 358.953 109.354 358.593 109.927 358.332C110.5 358.072 111.154 357.942 111.887 357.942C112.886 357.942 113.684 358.169 114.281 358.624C114.882 359.073 115.315 359.694 115.581 360.484ZM119.513 369.107C119.234 369.107 118.993 369.007 118.789 368.808C118.59 368.605 118.491 368.363 118.491 368.084C118.491 367.8 118.59 367.558 118.789 367.359C118.993 367.161 119.234 367.061 119.513 367.061C119.798 367.061 120.039 367.161 120.238 367.359C120.437 367.558 120.536 367.8 120.536 368.084C120.536 368.268 120.489 368.439 120.394 368.595C120.304 368.751 120.181 368.877 120.025 368.972C119.873 369.062 119.703 369.107 119.513 369.107Z" fill="black"/>
</svg>
