<svg width="45" height="46" viewBox="0 0 45 46" fill="none" xmlns="http://www.w3.org/2000/svg">
<path d="M27.6939 23.75C27.9751 23.8812 28.2939 23.9375 28.5939 23.9375C29.2126 23.9375 29.7939 23.6938 30.2439 23.2625L34.3314 19.25H36.0939C38.9439 19.25 41.2501 16.9438 41.2501 14.0938V9.40625C41.2501 6.55625 38.9439 4.25 36.0939 4.25H27.6564C24.8064 4.25 22.5001 6.55625 22.5001 9.40625V14.0938C22.5001 16.4563 24.0939 18.4437 26.2501 19.0625V21.5938C26.2501 22.5312 26.8314 23.375 27.6939 23.75ZM15.0001 25.8125C11.3814 25.8125 8.43763 22.8687 8.43763 19.25C8.43763 15.6313 11.3814 12.6875 15.0001 12.6875C18.6189 12.6875 21.5626 15.6313 21.5626 19.25C21.5626 22.8687 18.6189 25.8125 15.0001 25.8125ZM15.0001 41.75C11.1376 41.75 8.17513 40.7 6.18763 38.6188C3.68263 35.9862 3.74451 32.6675 3.75013 32.3244V32.3C3.75013 30.2937 5.43763 28.625 7.50013 28.625H22.5001C24.5626 28.625 26.2501 30.3125 26.2501 32.375L26.252 32.3863C26.2576 32.6244 26.3364 35.9675 23.8145 38.6188C21.8251 40.7 18.8626 41.75 15.0001 41.75Z" fill="#305CDE"/>
</svg>
