<svg width="50" height="51" viewBox="0 0 50 51" fill="none" xmlns="http://www.w3.org/2000/svg">
<path d="M40.0805 30.7205L32.2505 26.9855L28.9395 25.406C30.3855 24.495 31.56 23.089 32.3285 21.3955C32.9695 19.9837 33.3011 18.4511 33.301 16.9005C33.301 15.987 33.156 15.1195 32.954 14.2825C31.969 10.2265 28.8015 7.23853 24.999 7.23853C21.2685 7.23853 18.149 10.12 17.103 14.0605C16.8615 14.9645 16.6955 15.9045 16.6955 16.9005C16.6955 18.63 17.0995 20.2425 17.786 21.645C18.5795 23.272 19.756 24.6135 21.188 25.476L18.017 26.9525L9.93303 30.7175C9.23103 31.0465 8.76953 31.8385 8.76953 32.723V41.6055C8.76953 42.796 9.59903 43.761 10.623 43.761H22.6295V36.96C22.6312 36.8899 22.6517 36.8215 22.689 36.762L22.684 36.759L24.6505 33.353L24.6555 33.356C24.7255 33.236 24.85 33.151 24.999 33.151C25.148 33.151 25.2725 33.2355 25.3425 33.356L25.3445 33.3545L25.3625 33.386C25.365 33.391 25.3685 33.395 25.3705 33.4L27.311 36.7605L27.3085 36.762C27.3458 36.8216 27.3664 36.8902 27.368 36.9605V43.7615H39.3745C40.3985 43.7615 41.2285 42.7965 41.2285 41.606V32.723C41.23 31.8415 40.776 31.057 40.0805 30.7205ZM27.31 28.443L27.315 28.446L25.348 31.852L25.343 31.849C25.3089 31.9104 25.2591 31.9616 25.1988 31.9975C25.1385 32.0334 25.0697 32.0528 24.9995 32.0535C24.9293 32.0528 24.8606 32.0334 24.8002 31.9975C24.7399 31.9616 24.6902 31.9104 24.656 31.849L24.6535 31.8505L24.6335 31.816C24.632 31.8125 24.629 31.8095 24.6275 31.806L22.687 28.4445L22.689 28.443C22.6517 28.3834 22.6312 28.3148 22.6295 28.2445C22.6295 28.022 22.81 27.8415 23.0325 27.8415H26.9655C27.188 27.8415 27.3685 28.022 27.3685 28.2445C27.3677 28.3148 27.3475 28.3835 27.31 28.443Z" fill="white"/>
</svg>
