<svg width="45" height="46" viewBox="0 0 45 46" fill="none" xmlns="http://www.w3.org/2000/svg">
<path d="M22.5 39.875C18.1875 39.875 14.43 38.4456 11.2275 35.5869C8.025 32.7281 6.18875 29.1575 5.71875 24.875H9.5625C10 28.125 11.4456 30.8125 13.8994 32.9375C16.3531 35.0625 19.22 36.125 22.5 36.125C26.1562 36.125 29.2581 34.8519 31.8056 32.3056C34.3531 29.7594 35.6262 26.6575 35.625 23C35.6238 19.3425 34.3506 16.2413 31.8056 13.6962C29.2606 11.1513 26.1588 9.8775 22.5 9.875C20.3438 9.875 18.3281 10.375 16.4531 11.375C14.5781 12.375 13 13.75 11.7188 15.5H16.875V19.25H5.625V8H9.375V12.4062C10.9688 10.4062 12.9144 8.85938 15.2119 7.76562C17.5094 6.67188 19.9388 6.125 22.5 6.125C24.8438 6.125 27.0394 6.57063 29.0869 7.46188C31.1344 8.35313 32.9156 9.55563 34.4306 11.0694C35.9456 12.5831 37.1488 14.3644 38.04 16.4131C38.9313 18.4619 39.3763 20.6575 39.375 23C39.3737 25.3425 38.9287 27.5381 38.04 29.5869C37.1513 31.6356 35.9481 33.4169 34.4306 34.9306C32.9131 36.4444 31.1319 37.6475 29.0869 38.54C27.0419 39.4325 24.8463 39.8775 22.5 39.875ZM27.75 30.875L20.625 23.75V13.625H24.375V22.25L30.375 28.25L27.75 30.875Z" fill="#305CDE"/>
</svg>
