<svg width="45" height="46" viewBox="0 0 45 46" fill="none" xmlns="http://www.w3.org/2000/svg">
<path fill-rule="evenodd" clip-rule="evenodd" d="M22.5 8C19.8764 7.99952 17.2986 8.68716 15.0239 9.9943C12.7491 11.3014 10.857 13.1823 9.5363 15.4493C8.21564 17.7162 7.51266 20.2899 7.49752 22.9134C7.48238 25.537 8.15561 28.1186 9.45002 30.4006C10.3249 29.2636 11.4496 28.343 12.7371 27.71C14.0245 27.0769 15.4403 26.7485 16.875 26.75H28.125C29.5597 26.7485 30.9755 27.0769 32.263 27.71C33.5505 28.343 34.6751 29.2636 35.55 30.4006C36.8444 28.1186 37.5177 25.537 37.5025 22.9134C37.4874 20.2899 36.7844 17.7162 35.4637 15.4493C34.1431 13.1823 32.2509 11.3014 29.9762 9.9943C27.7014 8.68716 25.1236 7.99952 22.5 8ZM37.3931 34.3925C39.9001 31.1243 41.2561 27.1189 41.25 23C41.25 12.6444 32.8556 4.25 22.5 4.25C12.1444 4.25 3.75002 12.6444 3.75002 23C3.74383 27.119 5.09984 31.1244 7.6069 34.3925L7.59752 34.4262L8.26315 35.2006C10.0217 37.2566 12.2051 38.9068 14.663 40.0374C17.1208 41.1681 19.7946 41.7524 22.5 41.75C26.3013 41.757 30.0139 40.6023 33.1406 38.4406C34.4736 37.5196 35.6823 36.4307 36.7369 35.2006L37.4025 34.4262L37.3931 34.3925ZM22.5 11.75C21.0082 11.75 19.5774 12.3426 18.5225 13.3975C17.4677 14.4524 16.875 15.8832 16.875 17.375C16.875 18.8668 17.4677 20.2976 18.5225 21.3525C19.5774 22.4074 21.0082 23 22.5 23C23.9919 23 25.4226 22.4074 26.4775 21.3525C27.5324 20.2976 28.125 18.8668 28.125 17.375C28.125 15.8832 27.5324 14.4524 26.4775 13.3975C25.4226 12.3426 23.9919 11.75 22.5 11.75Z" fill="white"/>
</svg>
