<svg width="45" height="46" viewBox="0 0 45 46" fill="none" xmlns="http://www.w3.org/2000/svg">
<path d="M22.5 27.2188C24.83 27.2188 26.7188 25.33 26.7188 23C26.7188 20.67 24.83 18.7812 22.5 18.7812C20.17 18.7812 18.2812 20.67 18.2812 23C18.2812 25.33 20.17 27.2188 22.5 27.2188Z" fill="#305CDE"/>
<path d="M41.3429 26.8672L41.3016 26.8338L38.5278 24.6585C38.3521 24.5195 38.2119 24.3409 38.1187 24.1372C38.0255 23.9336 37.982 23.7107 37.9916 23.4869V22.4709C37.9828 22.2486 38.0269 22.0273 38.1203 21.8253C38.2136 21.6233 38.3536 21.4464 38.5287 21.309L41.3016 19.1328L41.3429 19.0994C41.7706 18.7432 42.0576 18.2464 42.1526 17.698C42.2476 17.1495 42.1444 16.5852 41.8615 16.1059L38.1077 9.61074C38.1033 9.60461 38.0995 9.59815 38.0962 9.59141C37.8118 9.1187 37.3708 8.76053 36.8498 8.57911C36.3288 8.39768 35.7607 8.40445 35.2442 8.59824L35.2134 8.60967L31.9527 9.92187C31.7469 10.0051 31.5242 10.0382 31.3031 10.0185C31.082 9.99878 30.8687 9.9268 30.6809 9.8085C30.3926 9.62686 30.0997 9.45518 29.802 9.29346C29.609 9.1888 29.4433 9.04026 29.3183 8.85981C29.1932 8.67935 29.1124 8.47204 29.0822 8.25459L28.5909 4.775L28.5803 4.71172C28.4734 4.17277 28.1841 3.68707 27.7613 3.33622C27.3384 2.98538 26.8077 2.79079 26.2582 2.78516H18.7418C18.1847 2.78694 17.646 2.9853 17.2207 3.34529C16.7955 3.70528 16.5109 4.2038 16.4171 4.75303L16.4092 4.80225L15.9197 8.28887C15.8896 8.5057 15.8094 8.71252 15.6854 8.89287C15.5613 9.07323 15.3969 9.22213 15.2051 9.32773C14.9066 9.48851 14.6135 9.65911 14.3262 9.83926C14.1387 9.95684 13.926 10.0283 13.7055 10.0477C13.485 10.0671 13.2631 10.0339 13.058 9.95088L9.79457 8.63252L9.76381 8.62021C9.24654 8.42621 8.67763 8.4197 8.15605 8.6018C7.63447 8.7839 7.19324 9.1431 6.90912 9.61689L6.8977 9.63623L3.13862 16.1357C2.85528 16.6156 2.75187 17.1805 2.84687 17.7296C2.94188 18.2787 3.2291 18.7761 3.65717 19.1328L3.69848 19.1662L6.47231 21.3415C6.64797 21.4805 6.78815 21.6591 6.88135 21.8628C6.97456 22.0664 7.01811 22.2893 7.00844 22.5131V23.5291C7.01724 23.7514 6.97316 23.9727 6.8798 24.1747C6.78644 24.3767 6.64649 24.5536 6.47143 24.691L3.69848 26.8672L3.65717 26.9006C3.22952 27.2568 2.94253 27.7536 2.84753 28.302C2.75253 28.8505 2.85571 29.4148 3.13862 29.8941L6.89243 36.3893C6.89674 36.3954 6.90056 36.4019 6.90385 36.4086C7.18829 36.8813 7.62929 37.2395 8.15029 37.4209C8.67129 37.6023 9.23938 37.5955 9.7559 37.4018L9.78666 37.3903L13.0448 36.0781C13.2506 35.9949 13.4732 35.9618 13.6943 35.9815C13.9154 36.0012 14.1287 36.0732 14.3165 36.1915C14.6048 36.3737 14.8978 36.5454 15.1955 36.7065C15.3884 36.8112 15.5541 36.9597 15.6792 37.1402C15.8042 37.3206 15.8851 37.528 15.9153 37.7454L16.4039 41.225L16.4145 41.2883C16.5216 41.8281 16.8116 42.3145 17.2356 42.6654C17.6595 43.0164 18.1915 43.2104 18.7418 43.2148H26.2582C26.8154 43.2131 27.3541 43.0147 27.7794 42.6547C28.2046 42.2947 28.4892 41.7962 28.583 41.247L28.5909 41.1978L29.0804 37.7111C29.1109 37.4939 29.1918 37.2868 29.3167 37.1064C29.4415 36.926 29.6068 36.7774 29.7994 36.6723C30.0999 36.5105 30.3935 36.3392 30.6783 36.1607C30.8658 36.0432 31.0785 35.9717 31.299 35.9523C31.5194 35.9329 31.7414 35.9661 31.9465 36.0491L35.2099 37.3631L35.2407 37.3754C35.7579 37.5697 36.3269 37.5764 36.8486 37.3943C37.3703 37.2122 37.8115 36.8528 38.0954 36.3787C38.0989 36.3721 38.1027 36.3657 38.1068 36.3594L41.8606 29.8651C42.1444 29.3854 42.2482 28.8202 42.1534 28.2709C42.0585 27.7216 41.7712 27.224 41.3429 26.8672ZM29.5234 23.3305C29.4594 24.6915 29.0013 26.0047 28.2048 27.1102C27.4084 28.2157 26.3078 29.066 25.0371 29.5577C23.7663 30.0494 22.3801 30.1612 21.0469 29.8797C19.7138 29.5981 18.4912 28.9353 17.5278 27.9717C16.5643 27.0082 15.9016 25.7855 15.6202 24.4523C15.3388 23.1191 15.4508 21.7329 15.9427 20.4622C16.4345 19.1915 17.2849 18.0911 18.3906 17.2948C19.4962 16.4984 20.8094 16.0405 22.1705 15.9767C23.1476 15.9336 24.123 16.0944 25.0346 16.4488C25.9462 16.8031 26.7742 17.3433 27.4657 18.0349C28.1573 18.7266 28.6974 19.5546 29.0516 20.4663C29.4059 21.3779 29.5665 22.3533 29.5234 23.3305Z" fill="#305CDE"/>
</svg>
