<svg width="41" height="41" viewBox="0 0 41 41" fill="none" xmlns="http://www.w3.org/2000/svg">
<g clip-path="url(#clip0_75_5577)">
<path d="M21.8516 12.7739V27.7739H26.8516C27.1831 27.7739 27.501 27.9056 27.7354 28.14C27.9699 28.3745 28.1016 28.6924 28.1016 29.0239C28.1016 29.3554 27.9699 29.6734 27.7354 29.9078C27.501 30.1422 27.1831 30.2739 26.8516 30.2739H14.3516C14.02 30.2739 13.7021 30.1422 13.4677 29.9078C13.2333 29.6734 13.1016 29.3554 13.1016 29.0239C13.1016 28.6924 13.2333 28.3745 13.4677 28.14C13.7021 27.9056 14.02 27.7739 14.3516 27.7739H19.3516V12.7739H13.1016V14.0239C13.1016 14.3554 12.9699 14.6734 12.7354 14.9078C12.501 15.1422 12.1831 15.2739 11.8516 15.2739C11.52 15.2739 11.2021 15.1422 10.9677 14.9078C10.7333 14.6734 10.6016 14.3554 10.6016 14.0239V11.5239C10.6016 11.1924 10.7333 10.8745 10.9677 10.64C11.2021 10.4056 11.52 10.2739 11.8516 10.2739H29.3516C29.5178 10.2739 29.6825 10.307 29.8358 10.3714C29.9891 10.4358 30.128 10.5301 30.2444 10.6488C30.3608 10.7676 30.4524 10.9083 30.5137 11.0629C30.575 11.2174 30.6049 11.3827 30.6016 11.5489L30.5491 14.0489C30.5424 14.3804 30.4044 14.6958 30.1653 14.9255C29.9262 15.1552 29.6056 15.2806 29.2741 15.2739C28.9425 15.2673 28.6272 15.1292 28.3975 14.8901C28.1678 14.651 28.0424 14.3304 28.0491 13.9989L28.0741 12.7739H21.8516ZM3.10156 37.7739H6.85156C7.18308 37.7739 7.50103 37.9056 7.73545 38.14C7.96987 38.3745 8.10156 38.6924 8.10156 39.0239C8.10156 39.3554 7.96987 39.6734 7.73545 39.9078C7.50103 40.1422 7.18308 40.2739 6.85156 40.2739H1.85156C1.52004 40.2739 1.2021 40.1422 0.967679 39.9078C0.733259 39.6734 0.601563 39.3554 0.601562 39.0239V34.0339C0.601563 33.7024 0.733259 33.3845 0.967679 33.15C1.2021 32.9156 1.52004 32.7839 1.85156 32.7839C2.18308 32.7839 2.50103 32.9156 2.73545 33.15C2.96987 33.3845 3.10156 33.7024 3.10156 34.0339V37.7739ZM3.10156 2.77393V6.51643C3.10156 6.84795 2.96987 7.16589 2.73545 7.40031C2.50103 7.63473 2.18308 7.76643 1.85156 7.76643C1.52004 7.76643 1.2021 7.63473 0.967679 7.40031C0.733259 7.16589 0.601563 6.84795 0.601562 6.51643V1.52393C0.601563 1.19241 0.733259 0.874463 0.967679 0.640042C1.2021 0.405622 1.52004 0.273926 1.85156 0.273926L6.85156 0.273926C7.18308 0.273926 7.50103 0.405622 7.73545 0.640042C7.96987 0.874463 8.10156 1.19241 8.10156 1.52393C8.10156 1.85545 7.96987 2.17339 7.73545 2.40781C7.50103 2.64223 7.18308 2.77393 6.85156 2.77393H3.10156ZM38.1016 2.77393H34.3641C34.0325 2.77393 33.7146 2.64223 33.4802 2.40781C33.2458 2.17339 33.1141 1.85545 33.1141 1.52393C33.1141 1.19241 33.2458 0.874463 33.4802 0.640042C33.7146 0.405622 34.0325 0.273926 34.3641 0.273926L39.3516 0.273926C39.6831 0.273926 40.001 0.405622 40.2354 0.640042C40.4699 0.874463 40.6016 1.19241 40.6016 1.52393V6.52393C40.6016 6.85545 40.4699 7.17339 40.2354 7.40781C40.001 7.64223 39.6831 7.77393 39.3516 7.77393C39.02 7.77393 38.7021 7.64223 38.4677 7.40781C38.2333 7.17339 38.1016 6.85545 38.1016 6.52393V2.77393ZM38.1016 37.7739V34.0239C38.1016 33.6924 38.2333 33.3745 38.4677 33.14C38.7021 32.9056 39.02 32.7739 39.3516 32.7739C39.6831 32.7739 40.001 32.9056 40.2354 33.14C40.4699 33.3745 40.6016 33.6924 40.6016 34.0239V39.0239C40.6016 39.3554 40.4699 39.6734 40.2354 39.9078C40.001 40.1422 39.6831 40.2739 39.3516 40.2739H34.3516C34.02 40.2739 33.7021 40.1422 33.4677 39.9078C33.2333 39.6734 33.1016 39.3554 33.1016 39.0239C33.1016 38.6924 33.2333 38.3745 33.4677 38.14C33.7021 37.9056 34.02 37.7739 34.3516 37.7739H38.1016ZM0.601562 16.5239C0.601563 16.1924 0.733259 15.8745 0.967679 15.64C1.2021 15.4056 1.52004 15.2739 1.85156 15.2739C2.18308 15.2739 2.50103 15.4056 2.73545 15.64C2.96987 15.8745 3.10156 16.1924 3.10156 16.5239V24.0239C3.10156 24.3554 2.96987 24.6734 2.73545 24.9078C2.50103 25.1422 2.18308 25.2739 1.85156 25.2739C1.52004 25.2739 1.2021 25.1422 0.967679 24.9078C0.733259 24.6734 0.601563 24.3554 0.601562 24.0239V16.5239ZM24.3516 0.273926C24.6831 0.273926 25.001 0.405622 25.2354 0.640042C25.4699 0.874463 25.6016 1.19241 25.6016 1.52393C25.6016 1.85545 25.4699 2.17339 25.2354 2.40781C25.001 2.64223 24.6831 2.77393 24.3516 2.77393H16.8516C16.52 2.77393 16.2021 2.64223 15.9677 2.40781C15.7333 2.17339 15.6016 1.85545 15.6016 1.52393C15.6016 1.19241 15.7333 0.874463 15.9677 0.640042C16.2021 0.405622 16.52 0.273926 16.8516 0.273926L24.3516 0.273926ZM38.1016 16.5239C38.1016 16.1924 38.2333 15.8745 38.4677 15.64C38.7021 15.4056 39.02 15.2739 39.3516 15.2739C39.6831 15.2739 40.001 15.4056 40.2354 15.64C40.4699 15.8745 40.6016 16.1924 40.6016 16.5239V24.0239C40.6016 24.3554 40.4699 24.6734 40.2354 24.9078C40.001 25.1422 39.6831 25.2739 39.3516 25.2739C39.02 25.2739 38.7021 25.1422 38.4677 24.9078C38.2333 24.6734 38.1016 24.3554 38.1016 24.0239V16.5239ZM24.3516 37.7739C24.6831 37.7739 25.001 37.9056 25.2354 38.14C25.4699 38.3745 25.6016 38.6924 25.6016 39.0239C25.6016 39.3554 25.4699 39.6734 25.2354 39.9078C25.001 40.1422 24.6831 40.2739 24.3516 40.2739H16.8516C16.52 40.2739 16.2021 40.1422 15.9677 39.9078C15.7333 39.6734 15.6016 39.3554 15.6016 39.0239C15.6016 38.6924 15.7333 38.3745 15.9677 38.14C16.2021 37.9056 16.52 37.7739 16.8516 37.7739H24.3516Z" fill="white"/>
</g>
<defs>
<clipPath id="clip0_75_5577">
<rect width="40" height="40" fill="white" transform="translate(0.601562 0.273926)"/>
</clipPath>
</defs>
</svg>
