<svg width="570" height="522" viewBox="0 0 570 522" fill="none" xmlns="http://www.w3.org/2000/svg">
<path d="M537.698 254.735C537.698 254.735 530.917 250.547 526.378 274.093C521.84 297.639 520.66 310.795 520.66 310.795C520.66 310.795 519.3 315.843 516.851 313.48C514.401 311.117 510.493 303.64 507.17 306.15C503.847 308.661 503.307 315.171 505.162 323.884C507.017 332.596 510.565 351.914 510.925 353.672C511.285 355.431 510.925 358.143 509.061 356.948C507.197 355.753 495.859 342.933 492.104 351.337C488.349 359.74 496.183 382.749 497.012 385.287C497.84 387.824 497.633 389.072 496.859 389.985C496.084 390.898 492.545 386.052 489.222 382.602C485.899 379.152 481.622 376.024 479.722 381.138C477.822 386.253 479.416 404.765 494.941 431.104L502.667 442.595L513.303 438.568C535.717 427.963 543.488 413.317 543.632 407.477C543.777 401.637 539.04 401.033 534.996 401.423C530.953 401.812 526.234 403.248 525.892 401.879C525.55 400.51 525.802 399.275 527.387 397.744C528.972 396.214 543.659 382.508 543.344 372.426C543.029 362.344 528.873 364.586 526.883 364.197C524.892 363.808 525.559 361.177 526.423 359.942C527.288 358.706 537.068 344.906 541.669 338.865C546.271 332.824 548.144 327.012 546.091 322.139C544.038 317.266 538.166 320.796 535.285 320.957C532.403 321.118 532.961 315.708 532.961 315.708C532.961 315.708 536.518 303.546 540.769 279.879C545.019 256.212 537.581 254.601 537.581 254.601" fill="#EBEBEB"/>
<path d="M533.601 275.811C533.601 275.811 533.601 275.986 533.528 276.321C533.456 276.657 533.393 277.154 533.285 277.785C533.06 279.127 532.736 280.98 532.313 283.383C531.466 288.256 530.197 295.29 528.612 303.976C525.442 321.333 520.921 345.255 515.878 371.661C510.835 398.067 506.278 421.935 503.037 439.306C501.434 447.965 500.128 454.972 499.218 459.845C498.777 462.248 498.426 464.114 498.183 465.416C498.057 466.034 497.966 466.517 497.894 466.866L497.795 467.363C497.795 467.363 497.795 467.188 497.858 466.853C497.921 466.517 498.003 466.021 498.111 465.39C498.336 464.047 498.66 462.195 499.083 459.778C499.93 454.919 501.199 447.884 502.784 439.199C505.954 421.841 510.475 397.919 515.518 371.5C520.561 345.081 525.118 321.199 528.359 303.868C529.962 295.209 531.268 288.202 532.169 283.329L533.213 277.758C533.339 277.127 533.429 276.657 533.492 276.308L533.601 275.811Z" fill="#E0E0E0"/>
<path d="M512.357 317.011C512.528 317.311 512.671 317.645 512.78 318.004C513.023 318.675 513.366 319.642 513.78 320.85C514.599 323.253 515.671 326.636 516.806 330.395L519.687 340.033L520.588 342.96C520.715 343.304 520.815 343.669 520.885 344.047C520.714 343.747 520.571 343.412 520.462 343.054C520.21 342.396 519.876 341.416 519.471 340.208C518.661 337.778 517.625 334.382 516.481 330.623L513.555 321.011L512.654 318.111C512.529 317.761 512.43 317.392 512.357 317.011Z" fill="#E0E0E0"/>
<path d="M521.885 344.074C521.885 343.94 526.387 340.329 532.097 336.019C537.806 331.71 542.426 328.327 542.48 328.462C542.534 328.596 537.977 332.207 532.268 336.516C526.559 340.825 521.93 344.181 521.885 344.074Z" fill="#E0E0E0"/>
<path d="M512.906 384.078C513.158 383.931 513.421 383.831 513.69 383.783L515.842 383.166C517.643 382.642 520.165 381.904 522.911 380.951C525.658 379.997 528.125 379.017 529.908 378.266L532.025 377.407C532.282 377.279 532.547 377.194 532.817 377.151C532.58 377.35 532.33 377.507 532.07 377.621C531.583 377.876 530.872 378.239 529.989 378.655C528.188 379.474 525.757 380.534 523.001 381.488C520.246 382.441 517.724 383.112 515.887 383.541C514.986 383.743 514.23 383.904 513.717 383.984C513.451 384.069 513.178 384.101 512.906 384.078Z" fill="#E0E0E0"/>
<path d="M500.677 362.438C500.877 362.665 501.059 362.927 501.218 363.217C501.551 363.727 502.019 364.492 502.586 365.432C503.739 367.338 505.288 369.97 507.008 372.923C508.728 375.876 510.241 378.548 511.331 380.508C511.88 381.488 512.321 382.293 512.618 382.843C512.915 383.394 513.069 383.729 513.042 383.756C512.839 383.538 512.658 383.281 512.501 382.991C512.177 382.481 511.709 381.716 511.132 380.763C509.989 378.87 508.431 376.225 506.72 373.285C505.009 370.345 503.487 367.661 502.388 365.701C501.848 364.707 501.407 363.915 501.109 363.351C500.94 363.076 500.794 362.769 500.677 362.438Z" fill="#E0E0E0"/>
<path d="M489.745 396.281C489.996 396.574 490.226 396.908 490.429 397.275L492.23 400.12C493.707 402.537 495.724 405.906 497.939 409.638C500.155 413.37 502.136 416.793 503.568 419.277L505.234 422.23C505.45 422.582 505.643 422.964 505.81 423.371C505.562 423.073 505.332 422.74 505.126 422.378L503.325 419.532C501.857 417.116 499.84 413.746 497.624 410.014C495.409 406.282 493.428 402.859 491.996 400.376L490.33 397.422C490.107 397.076 489.911 396.693 489.745 396.281Z" fill="#E0E0E0"/>
<path d="M505.504 422.566C505.824 422.381 506.156 422.246 506.495 422.163L509.196 421.224C511.483 420.445 514.599 419.344 518.111 417.988C521.623 416.632 524.685 415.303 526.937 414.31L529.638 413.142C529.96 412.973 530.291 412.852 530.629 412.78C530.324 413.005 530.008 413.194 529.683 413.344C529.071 413.679 528.17 414.149 527.054 414.686C524.82 415.773 521.704 417.183 518.237 418.525C514.77 419.868 511.592 420.928 509.295 421.613C508.142 421.948 507.206 422.217 506.594 422.365C506.236 422.486 505.871 422.553 505.504 422.566Z" fill="#E0E0E0"/>
<path d="M510.412 479.431C511.459 477.681 512.797 476.374 514.291 475.641C515.785 474.908 517.382 474.775 518.922 475.256C520.455 475.778 521.903 476.75 523.181 478.114C524.46 479.479 525.544 481.209 526.369 483.204C527.153 485.029 527.756 487.231 527.27 489.325C527.019 490.268 526.604 491.093 526.067 491.716C525.53 492.339 524.892 492.737 524.217 492.869C522.864 493.098 521.494 492.793 520.246 491.983C515.905 489.513 511.997 485.942 510.34 479.431" fill="#E0E0E0"/>
<path d="M503.037 473.028C505.326 469.451 507.01 465.111 507.95 460.37C508.89 455.628 509.058 450.621 508.44 445.763C508.116 443.307 507.305 440.514 505.648 440.031C503.991 439.548 502.541 441.696 501.65 443.83C499.84 448.335 498.967 453.539 499.14 458.783C499.313 464.028 500.525 469.078 502.622 473.297" fill="#E0E0E0"/>
<path d="M538.499 439.575C538.781 441.63 538.781 443.749 538.499 445.805C538.217 447.86 537.66 449.809 536.86 451.536C535.243 454.976 533.121 457.822 530.656 459.859C525.973 463.98 519.777 465.228 514.347 465.148C514.779 456.18 519.669 448.73 522.317 445.173C526.495 439.575 536.329 433.211 538.526 439.575" fill="#E0E0E0"/>
<path d="M494.562 486.238C495.303 485.453 496.076 484.74 496.877 484.103C499.984 481.919 503.273 480.366 506.657 479.485C510.086 478.637 513.606 479.189 516.842 481.083C517.803 481.681 518.711 482.457 519.543 483.392C519.863 483.705 520.149 484.09 520.39 484.533C519.196 483.446 517.95 482.495 516.662 481.687C513.487 480.009 510.081 479.548 506.756 480.344C503.423 481.225 500.169 482.671 497.057 484.653" fill="#FAFAFA"/>
<path d="M494.481 486.372L498.633 481.888C502.136 478.102 506.963 472.867 512.258 466.987C517.553 461.107 522.272 455.67 525.703 451.724L529.764 447.079C530.243 446.475 530.755 445.931 531.295 445.454C530.872 446.146 530.408 446.78 529.908 447.347C529.008 448.529 527.648 450.193 525.964 452.234C522.605 456.261 517.859 461.819 512.618 467.712C507.377 473.605 502.451 478.707 498.876 482.345C497.075 484.157 495.634 485.62 494.617 486.6" fill="#FAFAFA"/>
<path d="M504.729 451.2C504.878 451.704 504.975 452.238 505.017 452.784C505.117 453.402 505.184 454.03 505.216 454.664C505.297 455.504 505.342 456.352 505.351 457.201C505.393 459.407 505.29 461.615 505.044 463.792C504.715 466.45 504.202 469.051 503.514 471.551C502.782 474.031 501.876 476.389 500.812 478.586C499.935 480.364 498.939 482.006 497.84 483.486C497.425 484.067 496.986 484.609 496.525 485.11C496.193 485.512 495.841 485.875 495.472 486.197C494.877 486.761 494.571 486.654 494.571 486.613C495.602 485.501 496.592 484.304 497.534 483.029C498.566 481.514 499.507 479.865 500.344 478.102C502.398 473.774 503.808 468.839 504.477 463.631C504.744 461.51 504.885 459.358 504.9 457.201C504.963 453.509 504.639 451.24 504.729 451.2Z" fill="#FAFAFA"/>
<path d="M91.1607 467.47C102.165 447.025 100.058 418.915 94.7629 395.113C93.8623 391.086 93.349 386.777 91.3769 383.81C89.4047 380.843 85.9737 379.783 83.8664 382.468C82.1464 384.75 81.9573 388.589 81.399 391.945C80.655 396.424 79.0751 400.496 76.8423 403.691C75.3924 405.759 73.4293 407.504 71.4391 406.846C68.7375 405.947 67.5308 401.288 66.7654 397.288C65.3725 389.833 63.9737 382.387 62.5689 374.95C61.9464 370.889 60.8882 367.004 59.435 363.445C57.8591 360.022 55.3286 357.297 52.573 357.351C49.8174 357.404 47.0978 360.962 47.3229 365.096C47.5479 366.794 47.8488 368.466 48.2234 370.104C48.4756 371.795 48.3135 373.849 47.3229 374.775C46.3323 375.702 45.0536 375.044 44.0269 374.225C40.4248 371.392 37.5791 367.016 34.8145 362.626C32.0499 358.237 29.3123 353.672 25.9353 350.37C22.5583 347.068 18.4158 345.094 14.5165 346.45C10.6172 347.806 7.22225 353.162 7.3123 359.136C7.40235 365.11 10.7613 369.943 14.0573 373.446C18.9529 378.652 24.3276 382.776 30.0147 385.689C31.0647 386.054 32.0104 386.904 32.7163 388.119C33.8149 390.522 32.6442 393.905 31.0503 395.543C29.2492 397.409 27.0249 398.04 25.0077 399.315C22.9905 400.59 21.0004 402.953 20.7842 406.242C20.4871 410.793 23.6209 414.068 26.4216 415.894C32.0323 419.534 38.0209 421.709 44.126 422.324C46.3143 422.553 48.5656 422.593 50.5648 423.962C52.564 425.331 54.221 428.5 53.8067 431.721C53.3925 434.943 51.1051 436.93 48.9348 437.266C46.7646 437.601 44.5853 436.729 42.406 436.474C38.3176 436.004 33.6438 438.46 32.212 444.233C31.813 446.177 31.7216 448.232 31.945 450.237C32.1685 452.243 32.7006 454.144 33.4997 455.791C35.1185 459.046 37.1577 461.784 39.4973 463.846C47.3781 471.74 56.5241 476.373 65.9999 477.27C75.4014 477.968 83.5422 475.713 91.1247 467.39" fill="#EBEBEB"/>
<path d="M10.1489 351.967L10.4821 352.223L11.4907 352.934C12.3912 353.552 13.67 354.464 15.327 355.713C20.0064 359.207 24.5037 363.218 28.7809 367.714C31.4825 370.547 34.3912 373.836 37.453 377.447C40.5148 381.058 43.7567 384.964 47.0797 389.26C50.5514 393.715 53.8582 398.447 56.9855 403.436C58.6155 406.041 60.1644 408.806 61.7403 411.679L66.5222 420.338C72.6487 431.274 78.361 442.711 83.6322 454.596C87.8992 464.336 91.5443 474.651 94.5197 485.405C96.5113 492.672 98.0781 500.182 99.2024 507.851C99.5806 510.536 99.8508 512.697 99.9949 514.147C100.076 514.831 100.139 515.382 100.184 515.784C100.2 515.976 100.227 516.164 100.265 516.348C100.277 516.156 100.277 515.963 100.265 515.771C100.229 515.368 100.184 514.818 100.13 514.12C100.013 512.67 99.7788 510.535 99.4275 507.797C98.3841 500.084 96.8771 492.527 94.9249 485.217C91.9936 474.395 88.375 464.016 84.1185 454.22C78.858 442.294 73.1453 430.824 67.0084 419.868L62.1726 411.196C60.5967 408.35 59.0387 405.53 57.3998 402.926C54.2414 397.918 50.8982 393.177 47.3859 388.723C44.0539 384.427 40.785 380.548 37.7142 376.937C34.6434 373.326 31.7256 370.077 28.988 367.258C24.6819 362.789 20.1439 358.839 15.417 355.444C13.742 354.236 12.4273 353.364 11.5267 352.759L10.5091 352.129C10.3928 352.058 10.2722 352.004 10.1489 351.967Z" fill="#E0E0E0"/>
<path d="M57.2467 402.953C57.2686 402.347 57.2444 401.739 57.1747 401.141C57.1026 399.973 56.9585 398.295 56.7514 396.227C56.3552 392.093 55.6708 386.401 54.8963 380.118C54.1219 373.836 53.5005 368.157 53.0953 364.009C52.9152 361.942 52.7801 360.264 52.69 359.109C52.6707 358.501 52.6073 357.898 52.5009 357.31C52.4561 357.913 52.4561 358.52 52.5009 359.123C52.5009 360.304 52.609 361.982 52.744 364.076C53.0142 368.238 53.5815 373.956 54.356 380.185C55.1305 386.414 55.8239 391.958 56.3552 396.295C56.5893 398.228 56.7874 399.865 56.9405 401.168C56.9979 401.778 57.1006 402.377 57.2467 402.953Z" fill="#E0E0E0"/>
<path d="M20.9375 408.363C21.4186 408.321 21.8955 408.204 22.3603 408.014C23.2609 407.746 24.5757 407.343 26.2056 406.94C29.4565 406.067 33.9862 405.101 39.0022 404.363C44.0181 403.624 48.5838 403.275 51.8888 403.154C53.5457 403.074 54.8875 403.06 55.8061 403.047C56.2872 403.09 56.7701 403.058 57.2469 402.953C56.7749 402.819 56.2955 402.752 55.8151 402.752C54.9145 402.671 53.5457 402.604 51.8888 402.604C48.5658 402.604 43.9821 402.872 38.9481 403.597C34.6496 404.198 30.3753 405.135 26.1426 406.403C24.5126 406.886 23.2068 407.356 22.3153 407.745C21.8451 407.893 21.3842 408.099 20.9375 408.363Z" fill="#E0E0E0"/>
<path d="M83.4252 453.455C83.4882 453.224 83.5277 452.979 83.5423 452.73C83.6053 452.153 83.6773 451.455 83.7674 450.609C83.9565 448.77 84.1816 446.112 84.4338 442.81C84.9471 436.205 85.4514 427.05 85.9287 416.941C86.406 406.833 86.8292 397.664 87.2615 391.059C87.4686 387.851 87.6397 385.206 87.7658 383.233L87.9008 381.098C87.926 380.849 87.926 380.596 87.9008 380.346C87.8425 380.585 87.8032 380.833 87.7838 381.085C87.7297 381.649 87.6487 382.347 87.5586 383.192C87.3695 385.032 87.1444 387.703 86.8922 391.005C86.3879 397.597 85.8746 406.752 85.4064 416.874C84.9381 426.996 84.5058 436.138 84.0646 442.743L83.5603 450.569C83.5062 451.428 83.4702 452.126 83.4342 452.704C83.4155 452.953 83.4125 453.205 83.4252 453.455Z" fill="#E0E0E0"/>
<path d="M33.3735 451.468C33.5372 451.54 33.7074 451.571 33.8778 451.562L35.3367 451.643L40.7399 451.871C45.2425 452.073 51.5462 452.448 58.4263 452.878C65.3064 453.308 71.6011 453.616 76.1307 453.67C78.4001 453.67 80.2282 453.67 81.5339 453.67L82.9928 453.603C83.1599 453.642 83.33 453.642 83.4971 453.603C83.3323 453.542 83.1626 453.515 82.9928 453.522L81.5339 453.428L76.1758 453.2C71.6731 453.012 65.3694 452.623 58.4803 452.193C51.5913 451.764 45.3146 451.468 40.7759 451.401C38.5156 451.401 36.6785 451.401 35.3727 451.401H33.9139C33.7326 451.39 33.5511 451.413 33.3735 451.468Z" fill="#E0E0E0"/>
<path d="M198.405 186.714L200.926 225.698H213.669L216.722 186.714H198.405Z" fill="#F5F5F5"/>
<path d="M198.405 181.64C197.621 183.098 197.199 184.913 197.207 186.781H217.919C218.02 185.843 217.964 184.883 217.755 183.986C217.546 183.088 217.191 182.282 216.722 181.64H198.405Z" fill="#E0E0E0"/>
<path d="M200.764 178.109L200.062 181.962L215.695 182.136L214.66 178.069L200.764 178.109Z" fill="#E0E0E0"/>
<path d="M198.144 196.474C198.144 196.836 199.656 216.1 199.656 216.1H215.236L216.722 196.474H198.144Z" fill="#EBEBEB"/>
<path d="M570 521.651C570 521.852 442.395 522 285.018 522C127.641 522 0 521.852 0 521.651C0 521.45 127.578 521.275 285 521.275C442.422 521.275 570 521.463 570 521.651Z" fill="#263238"/>
<path d="M497.509 120.466C511.661 99.3698 511.661 65.1665 497.509 44.0706C483.358 22.9747 460.413 22.9747 446.262 44.0706C432.11 65.1665 432.11 99.3698 446.262 120.466C460.413 141.562 483.358 141.562 497.509 120.466Z" fill="#305CDE"/>
<path d="M488.34 83.9242C487.918 84.0336 487.489 84.0785 487.061 84.0584L483.54 84.1658C480.55 84.1658 476.336 84.2732 471.68 84.2732H471.455V83.9242C471.455 82.8099 471.455 81.6286 471.455 80.4338C471.455 72.6075 471.455 65.5194 471.527 60.3913C471.527 57.9212 471.581 55.8673 471.599 54.3235C471.591 53.5784 471.622 52.8335 471.689 52.0951C471.764 52.8325 471.797 53.5779 471.788 54.3235C471.788 55.8673 471.833 57.9212 471.86 60.3913C471.86 65.5194 471.932 72.6075 471.932 80.4338C471.932 81.6286 471.932 82.8099 471.932 83.9242L471.698 83.5885C476.399 83.5885 480.568 83.5885 483.558 83.6959L487.079 83.8033C487.501 83.7941 487.923 83.8345 488.34 83.9242Z" fill="#FAFAFA"/>
<path d="M471.797 37.1136C472.026 38.6002 472.105 40.1296 472.031 41.651C472.106 43.1724 472.027 44.702 471.797 46.1884C471.562 44.7031 471.483 43.1724 471.563 41.651C471.483 40.1296 471.562 38.5989 471.797 37.1136Z" fill="#FAFAFA"/>
<path d="M488.304 44.403C487.777 45.6857 487.118 46.8365 486.35 47.8127C485.691 48.9543 484.919 49.9409 484.062 50.7392C484.591 49.4546 485.251 48.2998 486.017 47.316C486.677 46.1797 487.448 45.1977 488.304 44.403Z" fill="#FAFAFA"/>
<path d="M497.967 60.1363C497.198 61.1035 496.358 61.9367 495.463 62.6198C494.644 63.4851 493.762 64.2101 492.833 64.7811C494.281 62.6633 496.038 61.0736 497.967 60.1363Z" fill="#FAFAFA"/>
<path d="M503.622 83.4677C500.863 83.9331 498.078 83.9331 495.319 83.4677C498.078 83.0024 500.863 83.0024 503.622 83.4677Z" fill="#FAFAFA"/>
<path d="M446.06 82.6354C443.455 83.1009 440.822 83.1009 438.216 82.6354C440.822 82.17 443.455 82.17 446.06 82.6354Z" fill="#FAFAFA"/>
<path d="M450.13 100.007C449.253 101.518 448.258 102.87 447.168 104.034C446.178 105.379 445.083 106.542 443.908 107.497C444.791 105.993 445.785 104.642 446.87 103.47C447.864 102.132 448.958 100.97 450.13 100.007Z" fill="#FAFAFA"/>
<path d="M460.172 113.444C459.586 115.252 458.912 116.993 458.154 118.653C457.527 120.428 456.814 122.133 456.02 123.754C456.937 119.945 458.348 116.442 460.172 113.444Z" fill="#FAFAFA"/>
<path d="M471.797 130.762C471.561 128.719 471.482 126.642 471.563 124.573C471.483 122.504 471.561 120.427 471.797 118.384C472.028 120.428 472.106 122.504 472.031 124.573C472.107 126.642 472.028 128.718 471.797 130.762Z" fill="#FAFAFA"/>
<path d="M489.691 122.573C487.227 120.647 485.099 117.888 483.477 114.518C484.556 115.779 485.59 117.123 486.575 118.545C487.659 119.807 488.699 121.152 489.691 122.573Z" fill="#FAFAFA"/>
<path d="M498.084 109.041C497.085 108.012 496.177 106.799 495.382 105.43C494.465 104.248 493.654 102.894 492.969 101.403C493.982 102.431 494.904 103.644 495.715 105.014C496.614 106.205 497.409 107.557 498.084 109.041Z" fill="#FAFAFA"/>
<path d="M449.797 66.0027C448.888 65.1436 448.069 64.0896 447.366 62.8748C446.556 61.8281 445.852 60.6117 445.276 59.2637C446.181 60.1216 446.997 61.1707 447.699 62.3781C448.514 63.4263 449.221 64.6476 449.797 66.0027Z" fill="#FAFAFA"/>
<path d="M460.108 49.719C459.219 48.8835 458.418 47.8566 457.731 46.6717C456.931 45.6559 456.239 44.4656 455.678 43.1411C456.569 43.9715 457.371 44.999 458.055 46.1884C458.855 47.2042 459.547 48.3946 460.108 49.719Z" fill="#FAFAFA"/>
<path d="M486.206 521.678L420.233 521.275C418.347 521.266 416.482 520.704 414.742 519.619C413.003 518.535 411.424 516.95 410.096 514.955C408.768 512.96 407.716 510.594 407.002 507.993C406.287 505.392 405.924 502.607 405.932 499.796L406.626 253.943C406.649 248.277 408.18 242.857 410.881 238.871C413.582 234.884 417.233 232.658 421.034 232.679L487.007 233.136C488.892 233.144 490.758 233.707 492.498 234.792C494.237 235.876 495.816 237.461 497.144 239.456C498.472 241.451 499.524 243.816 500.238 246.417C500.952 249.018 501.316 251.804 501.307 254.614L500.614 500.454C500.583 506.113 499.05 511.523 496.349 515.501C493.649 519.478 490.002 521.699 486.206 521.678Z" fill="#263238"/>
<path d="M486.935 241.593L474.148 241.499C473.308 241.524 472.508 242.043 471.925 242.943C471.341 243.844 471.02 245.052 471.032 246.305V249.755C471.044 251.009 470.722 252.22 470.136 253.121C469.55 254.022 468.749 254.539 467.907 254.561L442.98 254.386C442.139 254.354 441.34 253.826 440.759 252.918C440.178 252.009 439.863 250.795 439.882 249.54V246.09C439.902 244.835 439.587 243.62 439.006 242.712C438.425 241.803 437.626 241.275 436.785 241.244H432.282L421.088 241.163C419.768 241.151 418.459 241.527 417.236 242.269C416.012 243.011 414.9 244.106 413.96 245.489C413.021 246.873 412.274 248.52 411.762 250.334C411.25 252.148 410.983 254.096 410.975 256.064L410.291 496.024C410.286 499.996 411.339 503.809 413.218 506.625C415.097 509.442 417.649 511.031 420.314 511.046L486.143 511.502C487.463 511.514 488.773 511.139 489.996 510.396C491.219 509.654 492.332 508.56 493.271 507.176C494.21 505.792 494.957 504.146 495.469 502.331C495.981 500.517 496.249 498.57 496.256 496.601L496.94 256.641C496.946 254.674 496.692 252.724 496.192 250.903C495.693 249.082 494.957 247.426 494.028 246.028C493.099 244.631 491.995 243.52 490.778 242.759C489.561 241.998 488.255 241.602 486.935 241.593Z" fill="white"/>
<path d="M441.692 439.722L442.341 457.55C442.35 457.857 442.438 458.148 442.588 458.36C442.737 458.573 442.936 458.691 443.142 458.691L464.665 458.919C464.771 458.923 464.877 458.894 464.976 458.836C465.074 458.777 465.164 458.69 465.24 458.578C465.316 458.467 465.375 458.334 465.416 458.187C465.456 458.04 465.476 457.883 465.475 457.724L465.547 443.844C465.547 443.523 465.462 443.216 465.31 442.989C465.158 442.763 464.952 442.635 464.737 442.635H451.499C451.285 442.631 451.081 442.501 450.932 442.273L448.644 438.877C448.572 438.765 448.485 438.676 448.389 438.616C448.293 438.556 448.19 438.526 448.086 438.528L442.503 438.46C442.393 438.46 442.285 438.493 442.184 438.557C442.083 438.621 441.992 438.715 441.916 438.833C441.841 438.951 441.782 439.091 441.743 439.243C441.705 439.396 441.687 439.559 441.692 439.722Z" fill="#305CDE"/>
<path d="M465.576 440.539L442.055 440.282L441.952 461.236L465.473 461.493L465.576 440.539Z" fill="#F5F5F5"/>
<path d="M440.18 442.139L441.873 464.007C441.886 464.196 441.946 464.37 442.041 464.497C442.136 464.623 442.259 464.693 442.386 464.692L465.304 464.947C465.435 464.944 465.56 464.871 465.656 464.739C465.753 464.608 465.813 464.429 465.827 464.235L467.087 442.407C467.094 442.301 467.085 442.193 467.062 442.092C467.039 441.99 467.003 441.897 466.954 441.818C466.906 441.738 466.848 441.675 466.782 441.63C466.717 441.586 466.646 441.563 466.574 441.561L440.702 441.28C440.629 441.279 440.556 441.301 440.489 441.346C440.422 441.39 440.361 441.454 440.312 441.535C440.263 441.616 440.225 441.712 440.203 441.816C440.18 441.92 440.172 442.03 440.18 442.139Z" fill="#305CDE"/>
<path d="M479.091 372.547C478.834 371.326 478.697 370.055 478.686 368.775C478.515 367.58 478.371 366.09 478.092 364.439L477.578 361.754C477.389 360.814 477.101 359.874 476.849 358.868C474.622 350.774 470.584 344.079 465.422 339.919C460.259 335.759 454.29 334.39 448.527 336.046C445.201 337.011 442.034 338.94 439.207 341.725C437.292 343.632 435.544 345.887 434.002 348.437C433.434 349.323 433.029 350.048 432.741 350.531C432.453 351.014 432.282 351.256 432.237 351.216C432.192 351.176 432.291 350.867 432.516 350.29C432.83 349.459 433.185 348.665 433.578 347.913C435.01 345.094 436.715 342.61 438.639 340.543C441.519 337.449 444.802 335.286 448.275 334.194C452.552 332.85 456.988 333.145 461.168 335.051C465.348 336.957 469.135 340.413 472.175 345.094C474.633 348.903 476.537 353.428 477.768 358.384C478.002 359.445 478.272 360.438 478.434 361.418C478.596 362.398 478.722 363.325 478.857 364.197C479.073 365.942 479.145 367.473 479.235 368.708C479.306 369.991 479.257 371.283 479.091 372.547Z" fill="#305CDE"/>
<path d="M466.907 359.002C467.141 358.545 472.725 364.278 479.371 371.809L479.74 372.238L478.65 372.722C481.352 361.271 483.783 352.263 484.143 352.451C484.504 352.639 482.649 361.955 479.974 373.42L479.659 374.762L478.884 373.889L478.515 373.473C471.824 365.956 466.628 359.472 466.907 359.002Z" fill="#305CDE"/>
<path d="M430.886 366.211C431.039 367.437 431.072 368.689 430.985 369.929C431.03 371.111 431.084 372.614 431.192 374.212C431.356 376.086 431.603 377.943 431.931 379.769C432.787 384.503 434.235 388.953 436.199 392.885C438.583 397.679 441.702 401.555 445.294 404.188L446.006 404.739L446.735 405.168L448.194 406.027C448.689 406.256 449.185 406.443 449.671 406.658C450.154 406.898 450.647 407.086 451.148 407.222C456.278 408.861 461.622 408.112 466.457 405.074C468.514 403.779 470.461 402.126 472.256 400.147C472.896 399.449 473.382 398.886 473.715 398.483C474.048 398.08 474.247 397.932 474.283 397.986C474.319 398.04 474.184 398.308 473.904 398.792C473.501 399.499 473.065 400.163 472.599 400.778C470.883 403.073 468.95 404.977 466.862 406.43C463.759 408.619 460.387 409.834 456.956 410.001C454.92 410.098 452.883 409.842 450.887 409.236C450.363 409.088 449.846 408.895 449.338 408.658C448.816 408.444 448.293 408.242 447.771 408.001L446.195 407.168L445.412 406.712L444.664 406.148L443.178 405.007C442.701 404.577 442.278 404.121 441.782 403.665C440.881 402.785 440.017 401.821 439.198 400.778C438.784 400.295 438.432 399.704 438.054 399.181C437.676 398.657 437.289 398.134 436.965 397.543L435.992 395.825L435.515 394.979L435.091 394.08C433.071 389.897 431.641 385.148 430.886 380.118C430.599 378.21 430.412 376.271 430.328 374.319C430.328 372.601 430.328 371.111 430.328 369.902C430.389 368.637 430.577 367.393 430.886 366.211Z" fill="#305CDE"/>
<path d="M441.864 381.89C441.593 382.293 436.523 375.594 430.553 366.909L430.22 366.412L431.336 366.13C427.734 377.004 424.564 385.501 424.222 385.246C423.88 384.991 426.482 376.091 430.076 365.204L430.508 363.861L431.201 364.868L431.534 365.352C437.505 374.091 442.134 381.474 441.864 381.89Z" fill="#305CDE"/>
<path d="M83.3802 226.262H365.985C366.782 226.262 367.571 226.496 368.308 226.951C369.044 227.406 369.713 228.072 370.277 228.912C370.84 229.752 371.287 230.75 371.592 231.848C371.897 232.945 372.054 234.122 372.054 235.31V498.158C372.054 503.346 370.672 508.321 368.211 511.989C365.751 515.657 362.413 517.718 358.934 517.718H89.5218C86.042 517.718 82.7047 515.657 80.244 511.989C77.7834 508.321 76.4011 503.346 76.4011 498.158V236.679C76.3999 235.312 76.5795 233.958 76.9297 232.694C77.2799 231.43 77.7938 230.282 78.442 229.314C79.0902 228.347 79.86 227.579 80.7073 227.055C81.5546 226.532 82.4629 226.262 83.3802 226.262Z" fill="#263238"/>
<path d="M64.0366 496.158H384.355V503.233C384.355 505.652 384.036 508.047 383.415 510.281C382.794 512.516 381.884 514.546 380.737 516.256C379.589 517.967 378.227 519.323 376.728 520.249C375.229 521.175 373.623 521.651 372 521.651H76.4009C74.7784 521.651 73.1718 521.175 71.6727 520.249C70.1737 519.323 68.8117 517.967 67.6644 516.256C66.5171 514.546 65.607 512.516 64.9861 510.281C64.3652 508.047 64.0456 505.652 64.0456 503.233V496.158H64.0366Z" fill="#263238"/>
<path d="M363.292 237.847H84.3438V483.969H363.292V237.847Z" fill="#455A64"/>
<path d="M195.082 496.158L199.053 505.582H254.985L258.678 496.158H195.082Z" fill="#455A64"/>
<path d="M350.468 254.239H93.646V483.875H350.468V254.239Z" fill="white"/>
<path d="M104.606 265.555C104.608 266.194 104.482 266.818 104.245 267.35C104.008 267.882 103.671 268.297 103.276 268.543C102.88 268.788 102.445 268.853 102.025 268.729C101.605 268.605 101.219 268.298 100.916 267.847C100.613 267.395 100.407 266.82 100.324 266.194C100.241 265.568 100.285 264.919 100.449 264.33C100.614 263.74 100.893 263.237 101.249 262.884C101.606 262.531 102.025 262.344 102.453 262.347C103.024 262.35 103.57 262.69 103.973 263.29C104.376 263.891 104.603 264.705 104.606 265.555Z" fill="#263238"/>
<path d="M113.395 265.555C113.395 266.19 113.269 266.81 113.032 267.338C112.796 267.865 112.46 268.277 112.066 268.519C111.673 268.762 111.24 268.826 110.823 268.702C110.405 268.578 110.022 268.273 109.721 267.824C109.42 267.375 109.215 266.804 109.132 266.181C109.049 265.559 109.091 264.914 109.254 264.327C109.417 263.741 109.693 263.24 110.047 262.888C110.401 262.535 110.817 262.347 111.243 262.347C111.813 262.35 112.359 262.69 112.762 263.29C113.165 263.891 113.393 264.705 113.395 265.555Z" fill="#263238"/>
<path d="M122.193 265.555C122.195 266.194 122.069 266.818 121.833 267.35C121.596 267.882 121.258 268.297 120.863 268.543C120.468 268.788 120.033 268.853 119.612 268.729C119.192 268.605 118.806 268.298 118.504 267.847C118.201 267.395 117.995 266.82 117.912 266.194C117.829 265.568 117.872 264.919 118.037 264.33C118.202 263.74 118.48 263.237 118.837 262.884C119.194 262.531 119.613 262.344 120.041 262.347C120.611 262.35 121.157 262.69 121.56 263.29C121.963 263.891 122.191 264.705 122.193 265.555Z" fill="#263238"/>
<path d="M350.468 279.637C350.468 279.839 292.97 280 222.062 280C151.154 280 93.646 279.839 93.646 279.637C93.646 279.436 151.127 279.275 222.062 279.275C292.997 279.275 350.468 279.409 350.468 279.637Z" fill="#263238"/>
<path d="M372.045 496.346H76.4009V497.756H372.045V496.346Z" fill="#455A64"/>
<path d="M179.467 330.891L182.051 401.799C182.097 403.013 182.451 404.157 183.041 404.997C183.631 405.837 184.414 406.311 185.23 406.323L270.78 407.249C271.632 407.256 272.45 406.76 273.056 405.869C273.662 404.978 274.006 403.765 274.013 402.497L274.283 347.323C274.286 346.692 274.205 346.067 274.045 345.484C273.885 344.9 273.649 344.369 273.351 343.921C273.054 343.474 272.699 343.118 272.309 342.875C271.919 342.631 271.501 342.505 271.078 342.503L218.451 342.436C217.606 342.445 216.792 341.964 216.181 341.094L207.104 327.562C206.504 326.693 205.698 326.211 204.862 326.22L182.672 325.978C182.244 325.978 181.819 326.106 181.424 326.354C181.03 326.603 180.672 326.967 180.373 327.425C180.074 327.883 179.84 328.426 179.684 329.021C179.529 329.617 179.455 330.253 179.467 330.891Z" fill="#305CDE"/>
<path d="M274.365 334.157L180.874 333.135L180.464 416.417L273.955 417.439L274.365 334.157Z" fill="#F5F5F5"/>
<path d="M173.406 340.53L180.115 427.452C180.178 428.192 180.419 428.871 180.794 429.365C181.168 429.859 181.65 430.134 182.15 430.137L273.257 431.131C273.777 431.137 274.279 430.85 274.663 430.327C275.048 429.804 275.285 429.084 275.328 428.312L280.344 341.523C280.369 341.1 280.335 340.673 280.243 340.271C280.152 339.868 280.006 339.498 279.814 339.184C279.622 338.87 279.388 338.618 279.127 338.446C278.867 338.273 278.585 338.183 278.3 338.181L175.468 337.053C175.173 337.049 174.881 337.14 174.611 337.319C174.342 337.498 174.101 337.761 173.905 338.091C173.71 338.42 173.564 338.809 173.478 339.23C173.392 339.65 173.367 340.094 173.406 340.53Z" fill="#305CDE"/>
<path d="M246.8 384.696C246.511 384.696 246.665 380.897 245.116 375.487C244.216 372.362 242.923 369.524 241.306 367.124C239.319 364.224 236.9 362.067 234.246 360.828C231.578 359.655 228.763 359.425 226.024 360.156C223.779 360.783 221.637 362.06 219.721 363.915C216.434 367.137 215.083 370.399 214.885 370.158C214.822 370.09 215.056 369.204 215.722 367.822C216.682 365.859 217.839 364.129 219.153 362.694C221.121 360.534 223.374 359.024 225.763 358.264C228.71 357.32 231.77 357.514 234.652 358.827C237.535 360.14 240.145 362.529 242.234 365.768C243.916 368.402 245.214 371.529 246.043 374.95C246.581 377.236 246.884 379.63 246.944 382.051C246.953 383.77 246.89 384.696 246.8 384.696Z" fill="#E0E0E0"/>
<path d="M238.47 375.474C238.704 375.017 242.567 378.803 247.088 383.931L247.34 384.213L246.25 384.709C248.051 376.91 249.852 370.815 250.204 371.003C250.555 371.191 249.402 377.581 247.583 385.394L247.268 386.737L246.493 385.864L246.241 385.569C241.712 380.467 238.236 375.93 238.47 375.474Z" fill="#E0E0E0"/>
<path d="M213.93 380.387C214.218 380.387 213.759 384.079 214.831 389.556C215.429 392.738 216.422 395.725 217.757 398.362C219.376 401.589 221.488 404.193 223.917 405.96C224.551 406.418 225.2 406.825 225.862 407.182C226.529 407.464 227.186 407.799 227.843 407.987C229.115 408.401 230.414 408.604 231.716 408.591C233.932 408.557 236.124 407.892 238.172 406.631C239.57 405.778 240.9 404.693 242.135 403.396C243.035 402.483 243.486 401.906 243.567 402.054C243.648 402.201 243.287 402.913 242.477 404.054C241.322 405.666 240.007 407.002 238.578 408.014C236.445 409.559 234.121 410.423 231.752 410.551C230.347 410.625 228.941 410.449 227.564 410.028C226.853 409.84 226.141 409.491 225.412 409.182C224.688 408.803 223.981 408.354 223.296 407.84C220.916 406.11 218.831 403.598 217.196 400.494C215.562 397.39 214.42 393.774 213.858 389.918C213.668 388.592 213.551 387.245 213.507 385.891C213.507 384.709 213.507 383.689 213.561 382.87C213.696 381.246 213.858 380.32 213.93 380.387Z" fill="#E0E0E0"/>
<path d="M221.441 391.059C221.162 391.475 217.649 387.032 213.57 381.085L213.345 380.763L214.471 380.467C212.003 387.878 209.761 393.596 209.419 393.355C209.076 393.113 210.76 386.965 213.21 379.541L213.633 378.199L214.327 379.206L214.561 379.541C218.631 385.502 221.711 390.643 221.441 391.059Z" fill="#E0E0E0"/>
<path d="M143.77 135.796L139.402 156.134C138.566 160.277 136.979 163.997 134.817 166.884C132.655 169.771 130.001 171.714 127.146 172.498L97.9867 180.66L90.053 180.284L97.9867 165.638L119.906 154.496C120.956 154.156 121.924 153.394 122.704 152.29C123.483 151.187 124.045 149.786 124.327 148.24L133.062 119.928L144.112 130.037L143.77 135.796Z" fill="#B78876"/>
<path d="M186.77 115.861C186.364 119.015 180.196 141.958 180.196 141.958C180.196 141.958 156.188 129.876 156.503 128.05C156.764 126.614 161.375 103.631 166.904 90.9048C167.945 88.4538 169.356 86.3993 171.024 84.9053C172.693 83.4113 174.572 82.5191 176.513 82.2998C177.602 82.1925 179.944 83.8705 180.583 84.4075C185.635 88.6361 189.931 91.4821 186.77 115.861Z" fill="#455A64"/>
<path d="M152.892 71.3859C142.031 73.1981 140.284 84.1927 135.205 95.0261L127.884 115.163L141.347 127.473L140.879 158.349L134.467 187.882L185.122 180.781L180.439 155.489L187.193 115.78C187.706 110.41 189.102 100.302 188.157 94.9858C185.203 78.3396 173.604 73.5069 165.643 70.3924C163.995 69.7481 156.053 69.7884 154.675 70.2985" fill="#305CDE"/>
<path d="M186.329 115.538C186.286 115.678 186.25 115.821 186.221 115.968C186.149 116.277 186.059 116.706 185.942 117.243L184.897 122.116C183.996 126.358 182.745 132.413 181.214 139.756L181.385 139.635L158.872 127.231L158.313 126.882L158.403 127.164C159.761 119.623 161.513 112.253 163.644 105.121C165.313 99.2413 167.575 93.777 170.353 88.918C171.438 87.0893 172.719 85.5423 174.145 84.3403C175.215 83.4224 176.415 82.8935 177.648 82.7965C177.885 82.7702 178.122 82.7702 178.359 82.7965L178.99 82.8905C179.179 82.8905 179.359 82.8905 179.521 82.9845L179.953 83.159L180.547 83.3872H180.755C180.694 83.3327 180.626 83.2962 180.556 83.2798L179.971 82.9979L179.539 82.8099C179.361 82.7526 179.18 82.7123 178.999 82.6891L178.368 82.5683C178.125 82.5414 177.882 82.5414 177.639 82.5683C176.375 82.6348 175.14 83.1503 174.037 84.0718C172.583 85.2648 171.275 86.8121 170.164 88.6495C167.347 93.5056 165.053 98.9856 163.365 104.893C161.186 112.049 159.4 119.456 158.025 127.043V127.244L158.151 127.325L158.719 127.674C167.166 132.386 175 136.574 181.295 139.998L181.421 140.065V139.877L185.023 122.17C185.437 120.076 185.771 118.425 185.996 117.27C186.104 116.733 186.185 116.286 186.239 115.928C186.276 115.802 186.306 115.672 186.329 115.538Z" fill="#263238"/>
<path d="M159.232 122.573C159.232 122.694 164.41 125.378 170.867 128.56C177.323 131.742 182.573 134.225 182.573 134.091C182.573 133.957 177.395 131.285 170.948 128.104C164.5 124.922 159.259 122.465 159.232 122.573Z" fill="#263238"/>
<path d="M156.503 186.969L158.448 117.149H141.924L137.268 190.715L156.503 186.969Z" fill="#263238"/>
<g opacity="0.3">
<path d="M180.115 139.206C179.152 145.778 177.901 152.249 176.369 158.577C175.393 162.595 174.015 166.37 172.281 169.773C169.704 174.192 166.271 177.311 162.456 178.7C158.657 180.068 154.718 180.355 150.848 179.546L170.137 163.302L175.27 136.735L180.115 139.206Z" fill="black"/>
</g>
<path d="M177.9 137.715L173.145 160.913C172.321 165.088 170.742 168.845 168.58 171.769C166.417 174.694 163.756 176.674 160.889 177.492L131.721 185.748L123.787 185.358L131.721 170.592L153.648 159.315C154.704 158.96 155.674 158.18 156.454 157.061C157.233 155.941 157.792 154.525 158.07 152.965L162.131 129.621L177.9 137.715Z" fill="#B78876"/>
<path d="M140.915 157.543C141.005 156.821 141.053 156.089 141.059 155.355C141.104 153.811 141.167 151.798 141.248 149.354C141.392 144.293 141.563 137.272 141.725 129.58C141.887 121.888 141.995 114.814 142.058 109.793C142.058 107.35 142.058 105.336 142.058 103.792C142.095 103.059 142.095 102.323 142.058 101.591C141.969 102.312 141.924 103.045 141.923 103.779C141.869 105.323 141.806 107.336 141.725 109.766C141.581 114.827 141.41 121.848 141.248 129.553C141.086 137.259 140.978 144.32 140.915 149.341C140.915 151.784 140.915 153.811 140.87 155.342C140.848 156.076 140.863 156.812 140.915 157.543Z" fill="#263238"/>
<path d="M129.856 109.806C131.666 111.788 133.564 113.582 135.539 115.176C137.436 116.975 139.416 118.572 141.464 119.955C139.655 117.973 137.756 116.179 135.782 114.585C133.884 112.786 131.904 111.19 129.856 109.806Z" fill="#263238"/>
<path d="M63.1181 338.181L62.938 324.891L80.0481 315.843L80.7505 334.341L79.796 335.026C75.5004 338.047 57.832 349.954 54.5361 350.397C50.8619 350.907 63.1181 338.181 63.1181 338.181Z" fill="#305CDE"/>
<g opacity="0.4">
<path d="M57.2107 344.745C57.2107 344.745 53.0322 349.659 53.9418 350.464C54.8513 351.27 73.006 340.248 80.7326 334.355L80.5615 333.831L59.453 346.96C59.453 346.96 58.1563 344.249 57.2107 344.745Z" fill="white"/>
</g>
<path d="M80.8135 333.657L80.5523 333.872L79.7869 334.408L76.9772 336.355C74.5728 337.966 71.2318 340.127 67.5036 342.396C63.7754 344.665 60.3714 346.611 57.895 347.967L54.9502 349.538L54.1488 349.94C54.0564 349.998 53.9596 350.039 53.8606 350.061L54.1308 349.887L54.9232 349.417L57.8409 347.752C60.2994 346.343 63.6944 344.369 67.4226 342.114C71.1508 339.859 74.5008 337.711 76.9232 336.154L79.7869 334.301L80.5703 333.804C80.6475 333.742 80.729 333.692 80.8135 333.657Z" fill="#263238"/>
<path d="M59.5607 347.309C59.2345 346.674 58.8631 346.094 58.4531 345.578C58.0055 345.145 57.5248 344.793 57.0212 344.53C57.5893 344.505 58.1438 344.791 58.5792 345.336C59.0601 345.788 59.4102 346.492 59.5607 347.309Z" fill="#263238"/>
<path d="M63.28 340.919C63.28 340.986 62.9108 340.718 62.5326 340.315C62.1544 339.913 61.8662 339.523 61.9022 339.456C61.9382 339.389 62.2714 339.657 62.6496 340.06C63.0279 340.463 63.316 340.839 63.28 340.919Z" fill="#263238"/>
<path d="M64.2979 339.12C64.2979 339.201 63.9557 339.12 63.5774 338.906C63.1992 338.691 62.9201 338.476 62.9381 338.396C62.9561 338.315 63.2803 338.396 63.6495 338.61C64.0187 338.825 64.3159 339.04 64.2979 339.12Z" fill="#263238"/>
<path d="M64.4958 336.382C64.4958 336.462 64.1716 336.758 63.7123 337.053C63.4358 337.279 63.127 337.403 62.8118 337.416C63.0448 337.122 63.3139 336.898 63.6042 336.758C63.8787 336.534 64.1834 336.406 64.4958 336.382Z" fill="#263238"/>
<path d="M64.3697 334.677C64.3697 334.677 64.0815 335.254 63.5592 335.644C63.2615 335.913 62.9166 336.044 62.5686 336.019C62.5686 335.925 62.9828 335.724 63.4691 335.348C63.7568 335.089 64.058 334.865 64.3697 334.677Z" fill="#263238"/>
<path d="M62.1814 339.174C61.8633 339.457 61.5166 339.661 61.1548 339.778C60.7659 339.936 60.3679 340.04 59.9661 340.087C59.7237 340.127 59.479 340.127 59.2367 340.087C59.0883 340.052 58.9537 339.938 58.8584 339.765C58.8127 339.659 58.7883 339.535 58.7883 339.409C58.7883 339.283 58.8127 339.159 58.8584 339.053C59.1708 338.532 59.5951 338.19 60.0586 338.084C60.522 337.979 60.9956 338.117 61.3979 338.476C61.6375 338.678 61.8461 338.952 62.0103 339.282C62.0754 339.399 62.1216 339.536 62.1454 339.684C61.9155 339.274 61.6379 338.928 61.3259 338.664C60.9846 338.402 60.6005 338.291 60.2182 338.342C59.7634 338.391 59.3398 338.704 59.0385 339.214C58.9215 339.483 59.0385 339.738 59.2907 339.778C59.5153 339.812 59.7415 339.812 59.9661 339.778C60.3562 339.74 60.7443 339.664 61.1278 339.55C61.7761 339.362 62.1634 339.12 62.1814 339.174Z" fill="#263238"/>
<path d="M61.9385 339.416C61.7249 339.17 61.5779 338.817 61.5242 338.422C61.448 337.982 61.448 337.52 61.5242 337.08C61.5409 336.792 61.609 336.515 61.7214 336.279C61.8338 336.043 61.9865 335.856 62.1636 335.738C62.2753 335.713 62.3891 335.752 62.4825 335.846C62.5759 335.941 62.642 336.084 62.6679 336.248C62.7083 336.508 62.7083 336.779 62.6679 337.04C62.627 337.455 62.5514 337.861 62.4428 338.248C62.3595 338.623 62.2139 338.96 62.0195 339.228C62.0195 339.228 62.1546 338.825 62.2987 338.181C62.3884 337.798 62.4488 337.402 62.4788 336.999C62.5328 336.597 62.4788 335.952 62.1996 336.046C61.9205 336.14 61.7764 336.704 61.6953 337.093C61.6419 337.479 61.6419 337.876 61.6953 338.261C61.7469 338.659 61.8285 339.046 61.9385 339.416Z" fill="#263238"/>
<path d="M78.7154 327.361C78.7154 327.361 78.2381 327.576 77.5537 328.139C76.6649 328.874 75.927 329.955 75.4195 331.267C74.9298 332.597 74.696 334.102 74.7441 335.617C74.7441 336.785 74.9422 337.483 74.9062 337.496C74.8701 337.51 74.8431 337.335 74.7711 337.013C74.6853 336.575 74.628 336.125 74.6 335.67C74.5005 334.104 74.724 332.53 75.2405 331.158C75.757 329.786 76.542 328.681 77.4907 327.992C77.7778 327.774 78.0797 327.603 78.3912 327.482C78.4944 327.416 78.6038 327.376 78.7154 327.361Z" fill="#263238"/>
<path d="M74.3748 318.568C75.4078 321.713 76.3101 324.95 77.0763 328.26C76.528 326.704 76.0379 325.104 75.6085 323.468C75.1321 321.873 74.7201 320.236 74.3748 318.568Z" fill="#263238"/>
<path d="M72.2854 336.543C71.596 337.273 70.8451 337.864 70.0521 338.302C69.2878 338.835 68.4792 339.214 67.6477 339.429C67.6477 339.349 68.7013 338.812 69.9711 338.02C71.2408 337.228 72.2494 336.462 72.2854 336.543Z" fill="#263238"/>
<path d="M75.4012 334.677C75.4552 334.677 75.4012 335.053 75.4012 335.469C75.4012 335.885 75.4012 336.248 75.4012 336.274C75.4012 336.301 75.2211 335.952 75.2301 335.469C75.2391 334.986 75.3471 334.677 75.4012 334.677Z" fill="#263238"/>
<path d="M75.9777 331.751C76.0317 331.751 75.9777 332.1 75.8966 332.449C75.8156 332.798 75.6805 333.053 75.6265 333.012C75.5725 332.972 75.6265 332.677 75.7075 332.328C75.7886 331.979 75.9237 331.724 75.9777 331.751Z" fill="#263238"/>
<path d="M77.3915 329.737C77.3915 329.831 77.1844 329.952 76.9863 330.22C76.7882 330.489 76.6711 330.771 76.6081 330.744C76.545 330.717 76.6081 330.301 76.8512 329.979C77.0944 329.656 77.3825 329.656 77.3915 329.737Z" fill="#263238"/>
<path d="M78.4541 328.542C78.4991 328.609 78.4541 328.784 78.328 328.945C78.202 329.106 78.0939 329.173 78.0489 329.106C78.0038 329.039 78.0489 328.864 78.1839 328.717C78.319 328.569 78.4181 328.475 78.4541 328.542Z" fill="#263238"/>
<path d="M131.72 189.037L81.5338 190.379C77.6534 190.488 73.9299 192.682 71.0478 196.556C68.1657 200.431 66.3187 205.726 65.8465 211.469L55.9407 332.019H83.1907L91.5116 227.887H131.009L131.72 189.037Z" fill="#263238"/>
<path d="M56.2649 324.407C56.2649 324.595 62.2354 324.81 69.6018 324.877C76.9681 324.944 82.8125 324.676 82.9386 324.649C83.7851 324.528 76.9681 324.246 69.6018 324.179C62.2354 324.112 56.2649 324.219 56.2649 324.407Z" fill="#455A64"/>
<path d="M178.827 227.94C198.855 218.06 185.131 178.566 185.131 178.566L97.5814 190.836C95.9107 190.82 94.2543 191.296 92.7077 192.238C91.1611 193.18 89.7547 194.569 88.5695 196.325C87.3844 198.08 86.4438 200.168 85.802 202.467C85.1602 204.767 84.8298 207.233 84.8298 209.724C84.8275 212.204 85.1532 214.662 85.7885 216.955C86.4237 219.248 87.356 221.332 88.5319 223.087C89.7079 224.843 91.1045 226.235 92.6418 227.186C94.1792 228.136 95.8271 228.625 97.4913 228.625L178.827 227.967" fill="#263238"/>
<path d="M152.063 186.056L151.811 183.237L129.406 181.922L118.411 140.588L76.5178 144.83L90.6562 190.715L152.063 186.056Z" fill="#455A64"/>
<path d="M101.922 167.397C102.153 167.945 102.489 168.38 102.886 168.644C103.283 168.908 103.724 168.991 104.152 168.882C104.581 168.772 104.978 168.476 105.294 168.03C105.61 167.584 105.829 167.008 105.925 166.376C106.021 165.743 105.989 165.083 105.833 164.478C105.677 163.873 105.404 163.35 105.049 162.976C104.693 162.603 104.271 162.395 103.837 162.379C103.402 162.363 102.974 162.539 102.606 162.886C102.115 163.35 101.767 164.085 101.639 164.931C101.511 165.776 101.612 166.663 101.922 167.397Z" fill="white"/>
<path d="M159.322 185.237C159.238 185.218 159.153 185.218 159.07 185.237H158.331L155.513 185.412L145.138 186.137L110.918 188.822C109.252 188.929 107.595 189.144 105.974 189.171C104.353 189.198 102.732 189.305 101.157 189.439C99.5806 189.574 98.0317 189.735 96.5188 189.963C95.0154 190.127 93.5324 190.578 92.1062 191.305C90.7441 192.022 89.4962 193.151 88.4411 194.621C87.4563 196.03 86.6962 197.75 86.2167 199.655C85.7776 201.415 85.4755 203.243 85.3162 205.105C85.153 206.813 85.0717 208.536 85.0731 210.26C85.0434 213.238 85.4426 216.191 86.2438 218.919C86.8503 220.973 87.7764 222.781 88.9453 224.195C89.6847 225.09 90.5311 225.769 91.4398 226.195C92.0702 226.464 92.0792 226.383 91.4398 226.061C90.5597 225.59 89.7425 224.89 89.0264 223.994C87.8959 222.575 86.9992 220.789 86.4059 218.771C85.6486 216.075 85.2834 213.169 85.3342 210.247C85.343 208.548 85.4333 206.852 85.6044 205.173C85.7632 203.337 86.0654 201.534 86.5049 199.803C86.978 197.986 87.7127 196.345 88.6572 194.997C89.6817 193.596 90.8855 192.519 92.1963 191.829C93.5899 191.147 95.0367 190.737 96.5008 190.607C98.0137 190.392 99.5536 190.231 101.13 190.097C102.705 189.963 104.299 189.869 105.929 189.842C107.559 189.815 109.207 189.6 110.882 189.493L145.102 186.647L155.477 185.707L158.295 185.412L159.025 185.331L159.322 185.237Z" fill="#455A64"/>
<path d="M155.945 117.203C155.945 117.203 158.178 84.9847 177.485 76.5945C178.919 77.4051 180.231 78.6275 181.349 80.1923C181.349 80.1923 163.158 79.0646 158.448 117.203H155.945Z" fill="#263238"/>
<path d="M142.077 118.76C142.077 118.76 137.637 88.9717 153.784 71.0234C155.329 71.0198 156.86 71.4762 158.286 72.3658C158.286 72.3658 140.014 80.756 144.517 118.935L142.077 118.76Z" fill="#263238"/>
<path d="M175.135 13.2855C175.556 11.5347 176.296 9.99324 177.271 8.83389C178.247 7.67454 179.42 6.94308 180.658 6.72149C181.897 6.49989 183.153 6.79692 184.285 7.57927C185.417 8.36162 186.38 9.5984 187.067 11.151C187.836 13.2179 188.441 15.4121 188.868 17.6886C189.312 19.9651 190.286 21.9309 191.615 23.2329C193.245 24.5753 195.379 24.092 196.865 25.7567C198.513 27.5958 198.558 31.6499 197.171 33.9321C196.435 35.0128 195.501 35.744 194.486 36.0331C193.471 36.3222 192.422 36.1563 191.47 35.5564C191.943 37.3518 192.208 39.2537 192.254 41.1812C192.273 42.1471 192.133 43.1053 191.846 43.9714C191.559 44.8376 191.133 45.5851 190.606 46.1482C190.025 46.6136 189.375 46.8494 188.716 46.8329C188.057 46.8165 187.411 46.5484 186.842 46.0542C185.714 45.0344 184.749 43.66 184.014 42.0269C183.826 43.3833 183.505 44.6908 183.06 45.9066C182.836 46.5148 182.527 47.0442 182.154 47.4589C181.781 47.8735 181.353 48.1636 180.898 48.3095C180.33 48.3818 179.76 48.2212 179.249 47.845C178.738 47.4687 178.305 46.8912 177.999 46.175C177.396 44.7395 177.031 43.1104 176.936 41.4228C176.602 37.2471 176.785 33.0153 177.476 28.9382C177.899 26.3339 178.503 23.6625 178.17 21.0179C177.836 18.3733 176.089 15.9032 174.369 16.6952" fill="#263238"/>
<path d="M197.72 31.2874C197.72 31.2874 197.63 31.3814 197.432 31.4888C197.139 31.6535 196.838 31.7837 196.532 31.8781C195.41 32.199 194.258 32.199 193.137 31.8781C191.443 31.4098 189.879 30.2155 188.634 28.4415C187.904 27.3999 187.295 26.184 186.833 24.8438C186.363 23.4011 186.027 21.8702 185.833 20.2929C185.642 18.7637 185.358 17.2631 184.987 15.8092C184.634 14.4958 184.041 13.3562 183.276 12.5202C182.621 11.8152 181.871 11.3301 181.078 11.0984C180.285 10.8666 179.468 10.8937 178.683 11.1778C177.612 11.5882 176.625 12.3859 175.81 13.5002C175.225 14.2788 174.973 14.8427 174.91 14.8427C174.948 14.6916 175.003 14.5509 175.072 14.4265C175.244 14.0416 175.44 13.682 175.657 13.3526C176.46 12.1219 177.467 11.2283 178.575 10.7617C179.408 10.4179 180.282 10.3539 181.134 10.5745C181.986 10.795 182.794 11.2945 183.501 12.037C184.342 12.9263 184.996 14.1561 185.383 15.581C185.781 17.0696 186.083 18.6114 186.284 20.1855C186.485 21.7065 186.818 23.1821 187.274 24.5753C187.706 25.8574 188.278 27.0233 188.967 28.0253C190.134 29.7394 191.606 30.9182 193.209 31.4217C194.295 31.7677 195.414 31.8223 196.514 31.5828C197.288 31.4485 197.711 31.2874 197.72 31.2874Z" fill="#455A64"/>
<path d="M182.609 47.0745C182.609 47.0745 182.519 47.0745 182.384 46.8597C182.177 46.6148 181.992 46.3304 181.835 46.0139C181.251 44.839 180.898 43.4441 180.817 41.9867C180.684 39.8437 180.846 37.6828 181.294 35.6369C181.865 33.217 182.322 30.741 182.663 28.2267C182.935 25.7321 182.616 23.1744 181.763 20.991C181.051 19.1999 179.998 17.7652 178.737 16.8698C177.89 16.2507 176.975 15.8685 176.035 15.7421C175.689 15.7415 175.343 15.7056 175 15.6347C175.341 15.485 175.699 15.4304 176.053 15.4736C177.027 15.4982 177.987 15.8227 178.872 16.4267C180.209 17.3114 181.333 18.7816 182.096 20.642C183.037 22.9346 183.401 25.6515 183.123 28.3073C182.786 30.8606 182.313 33.37 181.709 35.8115C181.259 37.7747 181.067 39.8482 181.141 41.9195C181.187 43.3168 181.475 44.6724 181.979 45.8529C182.339 46.6717 182.645 47.0342 182.609 47.0745Z" fill="#455A64"/>
<path d="M144.346 30.8981C139.843 15.4065 146.012 5.96917 150.028 2.58624C152.415 0.572591 155.251 0.156438 157.998 0.0490433C160.721 -0.142565 163.448 0.227873 166.103 1.14984C168.757 2.09069 171.179 4.1287 173.091 7.02969C176.378 12.2786 177.125 20.0379 176.819 27.1662C176.474 35.6568 174.839 43.9194 172.037 51.3299C171.723 52.3016 171.237 53.1276 170.632 53.7195C170.322 54.0059 169.952 54.111 169.592 54.0143C169.233 53.9176 168.911 53.6261 168.687 53.1959" fill="#263238"/>
<path d="M168.579 12.8156C169.309 12.9298 169.983 13.4485 170.469 14.269C170.954 15.0895 171.215 16.1519 171.2 17.2456L169.534 76.3126C169.471 83.2933 160.988 91.5358 155.981 91.3747C150.929 91.2136 151.991 83.1993 152.379 76.6079C152.597 71.5541 152.555 66.4827 152.253 61.4385C152.253 61.4385 145.823 59.7873 144.517 47.3966C143.86 41.2214 144.067 31.0861 144.418 22.8033C144.493 21.0358 144.807 19.3091 145.341 17.7271C145.875 16.1452 146.618 14.7407 147.526 13.5981C148.434 12.4556 149.487 11.5987 150.623 11.0789C151.759 10.5592 152.953 10.3873 154.135 10.5737L168.579 12.8156Z" fill="#B78876"/>
<path d="M146.57 30.8041C146.565 31.2197 146.67 31.6216 146.862 31.9229C147.054 32.2243 147.318 32.401 147.597 32.415C147.733 32.4315 147.87 32.4072 148 32.3435C148.13 32.2798 148.25 32.1781 148.353 32.0443C148.457 31.9105 148.541 31.7473 148.601 31.5643C148.661 31.3813 148.697 31.1822 148.704 30.9786C148.707 30.5618 148.6 30.16 148.407 29.859C148.213 29.558 147.948 29.3817 147.669 29.3677C147.533 29.3532 147.397 29.3789 147.268 29.4434C147.139 29.5079 147.02 29.61 146.918 29.7436C146.816 29.8772 146.733 30.0398 146.673 30.2218C146.613 30.4039 146.578 30.6018 146.57 30.8041Z" fill="#263238"/>
<path d="M145.877 28.0387C146.012 28.2401 146.822 27.3541 147.975 27.3541C149.128 27.3541 149.965 28.2133 150.091 28.0119C150.217 27.8105 150.019 27.542 149.65 27.1393C149.15 26.6234 148.556 26.3514 147.948 26.3607C147.349 26.3577 146.766 26.6399 146.282 27.1662C145.931 27.5689 145.814 27.9448 145.877 28.0387Z" fill="#263238"/>
<path d="M157.818 30.8041C157.813 31.2197 157.918 31.6216 158.11 31.9229C158.302 32.2243 158.566 32.401 158.844 32.415C158.981 32.4315 159.118 32.4072 159.248 32.3435C159.378 32.2798 159.498 32.1781 159.601 32.0443C159.704 31.9105 159.788 31.7473 159.849 31.5643C159.909 31.3813 159.944 31.1822 159.952 30.9786C159.955 30.5618 159.848 30.16 159.654 29.859C159.461 29.558 159.196 29.3817 158.916 29.3677C158.781 29.3532 158.645 29.3789 158.516 29.4434C158.387 29.5079 158.268 29.61 158.166 29.7436C158.063 29.8772 157.98 30.0398 157.92 30.2218C157.861 30.4039 157.826 30.6018 157.818 30.8041Z" fill="#263238"/>
<path d="M157.187 28.3609C157.322 28.5623 158.133 27.6763 159.277 27.6763C160.42 27.6763 161.276 28.5354 161.402 28.3206C161.528 28.1059 161.33 27.8642 160.961 27.4615C160.462 26.9415 159.867 26.669 159.259 26.6829C158.66 26.6799 158.076 26.9621 157.593 27.4883C157.241 27.8911 157.124 28.2669 157.187 28.3609Z" fill="#263238"/>
<path d="M153.009 41.0738C152.404 40.7931 151.778 40.6263 151.145 40.5771C150.848 40.5771 150.569 40.4428 150.524 40.134C150.49 39.6664 150.56 39.1954 150.722 38.7916C150.992 37.7356 151.292 36.6214 151.622 35.449C152.407 32.6414 153.042 29.7463 153.522 26.7903C152.559 29.5044 151.749 32.3332 151.1 35.2476C150.812 36.4289 150.533 37.5432 150.271 38.6037C150.082 39.1297 150.028 39.7405 150.118 40.322C150.161 40.4756 150.225 40.6132 150.308 40.7247C150.391 40.8362 150.489 40.9188 150.596 40.9664C150.76 41.0304 150.93 41.0664 151.1 41.0738C151.734 41.1953 152.375 41.1953 153.009 41.0738Z" fill="#263238"/>
<path d="M152.217 61.3713C156.158 61.4716 160.04 59.9329 163.428 56.9279C163.428 56.9279 160.727 65.4657 152.37 64.2978L152.217 61.3713Z" fill="#AA6550"/>
<path d="M153.522 45.2084C153.743 44.7979 154.029 44.4769 154.355 44.2751C154.681 44.0733 155.036 43.9972 155.386 44.0539C155.64 44.0898 155.886 44.201 156.11 44.3808C156.334 44.5606 156.532 44.8055 156.692 45.101C156.843 45.391 156.932 45.7415 156.948 46.1075C156.964 46.4735 156.906 46.8382 156.782 47.155C156.595 47.4597 156.352 47.6757 156.083 47.7759C155.814 47.8762 155.531 47.8563 155.269 47.7188C154.725 47.4226 154.225 46.9661 153.801 46.3764C153.672 46.2456 153.561 46.0766 153.477 45.8797C153.433 45.7851 153.409 45.6727 153.409 45.5575C153.409 45.4423 153.433 45.3298 153.477 45.2353" fill="#AA6550"/>
<path d="M156.395 42.2551C156.206 42.2551 156.206 44.1077 155.134 45.4233C154.063 46.7389 152.739 46.5375 152.73 46.7657C152.721 46.9939 153.027 47.1282 153.585 47.1416C154.319 47.1674 155.035 46.8007 155.603 46.1079C156.151 45.4378 156.5 44.4735 156.575 43.423C156.62 42.7116 156.485 42.2551 156.395 42.2551Z" fill="#263238"/>
<path d="M156.665 25.3539C156.782 25.8237 157.935 25.5955 159.277 25.8371C160.618 26.0788 161.726 26.6292 161.897 26.213C161.978 26.0117 161.789 25.5687 161.348 25.1257C160.768 24.5563 160.103 24.2061 159.412 24.1054C158.721 23.9817 158.02 24.106 157.367 24.4679C156.872 24.7632 156.62 25.1257 156.665 25.3539Z" fill="#263238"/>
<path d="M146.318 23.0717C146.525 23.461 147.318 23.0717 148.263 23.0717C149.209 23.0717 150.064 23.3268 150.208 22.9241C150.352 22.5213 150.163 22.3334 149.812 21.9575C149.34 21.5074 148.787 21.2869 148.227 21.3266C147.669 21.3415 147.128 21.6134 146.678 22.1052C146.318 22.4811 146.21 22.8838 146.318 23.0717Z" fill="#263238"/>
<path d="M144.4 22.763C145.859 12.1712 147.84 16.3596 150.082 11.2986C153.324 16.1985 160.789 21.8367 165.346 22.9509C165.818 22.9987 166.275 23.2151 166.679 23.5819C166.98 24.0563 167.205 24.627 167.336 25.2504C167.467 25.8739 167.501 26.5337 167.435 27.1796C167.346 30.8581 167.549 34.5394 168.039 38.1473C168.552 41.7864 169.81 45.0982 171.641 47.6248C174.342 38.993 174.667 28.9382 173.442 19.5546C172.938 15.7287 172.091 11.7148 170.038 9.27156C168.492 7.66704 166.704 6.65711 164.833 6.33164C160.276 5.08317 155.458 4.77442 151.127 7.20422C146.795 9.63402 143.418 12.5739 142.833 19.4606" fill="#263238"/>
<path d="M175.909 15.3259C175.628 15.6244 175.326 15.8764 175.009 16.0777C174.639 16.3582 174.253 16.5917 173.856 16.7757L173.118 17.1516L172.271 17.4738C170.871 17.973 169.441 18.2653 168.003 18.3464C166.231 18.4388 164.458 18.2769 162.708 17.8631C160.974 17.4201 159.273 16.7278 157.629 15.7957C156.911 15.3782 156.211 14.8985 155.53 14.3593L154.63 13.6344L153.819 12.8558C153.355 12.4113 152.909 11.9225 152.487 11.3926L151.964 10.7482L151.559 10.1441C151.293 9.79493 151.057 9.39814 150.857 8.96277C151.865 10.1991 152.914 11.3596 154 12.4397L154.81 13.1646L155.711 13.8492C156.385 14.3485 157.077 14.7965 157.782 15.1917C159.407 16.0804 161.083 16.7455 162.789 17.1785C164.498 17.5837 166.227 17.7678 167.958 17.7289C169.368 17.6801 170.773 17.442 172.154 17.0174C174.523 16.2522 175.864 15.1782 175.909 15.3259Z" fill="#455A64"/>
<path d="M173.55 6.94916C173.339 7.28857 173.096 7.58227 172.83 7.82174C172.548 8.14898 172.247 8.43659 171.929 8.6809L171.326 9.16417L170.624 9.6206C168.013 11.1174 165.234 11.8556 162.438 11.7953C159.654 11.8166 156.877 11.3662 154.162 10.4529C153.34 10.1924 152.528 9.86524 151.73 9.47293C151.416 9.37094 151.113 9.20374 150.83 8.97623C150.83 8.86884 152.118 9.39238 154.198 9.96963C156.898 10.7486 159.642 11.1397 162.393 11.1375C165.15 11.1967 167.892 10.5379 170.497 9.19102C171.541 8.52597 172.56 7.7776 173.55 6.94916Z" fill="#455A64"/>
<path d="M147.93 4.25084C147.93 4.1703 148.218 4.08975 148.659 4.25084C149.243 4.49467 149.762 5.00097 150.145 5.70067C150.534 6.39793 150.773 7.25429 150.83 8.15732C150.83 8.84196 150.749 9.24469 150.686 9.23126C150.524 8.12807 150.218 7.08331 149.785 6.15709C149.02 4.68042 147.903 4.43878 147.93 4.25084Z" fill="#455A64"/>
<path d="M190.994 17.6349C191.056 17.463 191.142 17.3121 191.246 17.1919C191.524 16.8188 191.873 16.5841 192.245 16.5207C192.852 16.4036 193.467 16.6079 193.983 17.0979C194.331 17.4328 194.609 17.9051 194.788 18.4621C194.966 19.0192 195.036 19.6391 194.992 20.2526C194.939 20.9899 194.766 21.6966 194.488 22.3118C194.21 22.927 193.836 23.432 193.398 23.7832C192.877 24.1439 192.301 24.2869 191.73 24.197C191.159 24.1072 190.615 23.7878 190.156 23.2731C189.644 22.7494 189.231 22.0373 188.958 21.2058C188.698 20.3607 188.548 19.4495 188.517 18.5209C188.556 16.6447 188.523 14.7667 188.418 12.8961C188.173 11.161 187.636 9.54722 186.858 8.20634C186.08 6.86546 185.086 5.84155 183.969 5.23083C183.047 4.75702 182.065 4.60383 181.097 4.78299C180.13 4.96215 179.202 5.46891 178.386 6.26451C177.259 7.31418 176.346 8.80464 175.748 10.5737C175.333 11.849 175.243 12.6276 175.198 12.6142C175.191 12.4194 175.206 12.2242 175.243 12.037C175.316 11.4953 175.431 10.9681 175.585 10.4663C176.058 8.87186 176.784 7.47279 177.7 6.38991C178.616 5.30703 179.695 4.57288 180.845 4.25086C181.938 3.95172 183.064 4.08124 184.113 4.62674C185.311 5.25955 186.378 6.34196 187.212 7.76939C188.047 9.19682 188.62 10.921 188.877 12.7753C188.989 14.6722 189.022 16.5776 188.976 18.4806C188.996 19.3381 189.127 20.1816 189.364 20.9641C189.621 21.6819 189.992 22.2949 190.444 22.7496C190.84 23.2027 191.311 23.489 191.807 23.5787C192.303 23.6684 192.805 23.5583 193.263 23.2597C193.653 22.9629 193.989 22.5292 194.241 21.996C194.494 21.4628 194.656 20.8461 194.713 20.1989C194.761 19.6687 194.709 19.1289 194.563 18.6403C194.416 18.1517 194.181 17.7337 193.884 17.4335C193.424 16.9572 192.868 16.7298 192.308 16.7892C191.822 16.8595 191.362 17.1552 190.994 17.6349Z" fill="#263238"/>
<path d="M169.101 23.2329C168.805 23.3254 168.502 23.3571 168.201 23.3268C167.642 23.3268 166.832 23.3268 165.832 23.3268C163.206 23.2628 160.603 22.5926 158.115 21.34C155.602 20.035 153.407 17.6419 151.811 14.4668C151.343 13.4995 150.965 12.4429 150.685 11.3255C150.569 10.9252 150.499 10.4986 150.478 10.0636C150.925 11.5018 151.459 12.8767 152.072 14.1714C153.692 17.1563 155.838 19.4105 158.268 20.6822C160.716 21.9046 163.263 22.6271 165.841 22.8301C166.932 22.8712 168.021 23.0057 169.101 23.2329Z" fill="#263238"/>
<path d="M180.935 53.5987C180.888 54.0444 180.75 54.4575 180.538 54.78C180.267 55.2451 179.936 55.6239 179.565 55.8938C179.194 56.1636 178.79 56.319 178.377 56.3506C177.141 56.4008 175.942 55.7259 175.036 54.4712C174.465 53.7345 174.102 52.7038 174.018 51.585C173.975 50.9591 174.058 50.328 174.257 49.773C174.456 49.2181 174.762 48.7645 175.135 48.4706C175.534 48.1965 175.988 48.1652 176.402 48.3834C176.816 48.6015 177.156 49.0518 177.35 49.6385C177.426 49.9294 177.458 50.2419 177.442 50.5531C177.426 50.8643 177.364 51.1665 177.26 51.4373C177.08 51.953 176.793 52.3676 176.441 52.6187C175.805 53.0009 175.095 53.0009 174.46 52.6187C173.918 52.347 173.427 51.8868 173.028 51.2762C172.448 50.4052 172.077 49.2723 171.974 48.0544C171.913 47.6085 171.928 47.1465 172.019 46.712C172.064 46.712 172.019 47.1818 172.154 47.9739C172.319 49.0885 172.705 50.1034 173.262 50.8869C173.635 51.4273 174.089 51.8276 174.586 52.0549C175.127 52.3483 175.722 52.3243 176.252 51.9877C176.518 51.8083 176.732 51.4933 176.855 51.0996C176.979 50.7058 177.005 50.2591 176.927 49.8398C176.778 49.4354 176.532 49.1294 176.238 48.9827C175.945 48.836 175.625 48.8592 175.342 49.0478C175.061 49.2931 174.833 49.654 174.686 50.0874C174.54 50.5208 174.48 51.0081 174.514 51.491C174.589 52.4378 174.893 53.3111 175.369 53.9477C176.189 55.1119 177.272 55.7734 178.404 55.8002C179.166 55.7827 179.894 55.3312 180.439 54.5384C180.781 54.0148 180.899 53.5718 180.935 53.5987Z" fill="#263238"/>
<path d="M142.599 118.545C142.599 118.626 142.527 118.814 142.545 119.109C142.563 119.405 142.716 119.673 142.959 119.525C143.202 119.378 143.184 119.042 143.04 118.801C142.896 118.559 142.752 118.545 142.734 118.451C142.716 118.358 142.923 118.143 143.247 118.451C143.341 118.534 143.42 118.649 143.478 118.787C143.536 118.925 143.571 119.081 143.58 119.244C143.583 119.454 143.542 119.661 143.463 119.837C143.384 120.012 143.271 120.147 143.139 120.223C143.01 120.309 142.866 120.333 142.728 120.293C142.589 120.252 142.462 120.148 142.365 119.995C142.292 119.875 142.241 119.73 142.216 119.573C142.191 119.416 142.192 119.252 142.221 119.096C142.32 118.545 142.59 118.465 142.599 118.545Z" fill="#455A64"/>
<path d="M157.008 118.129C157.008 118.237 156.818 118.317 156.701 118.68C156.662 118.772 156.64 118.877 156.635 118.986C156.631 119.095 156.646 119.203 156.677 119.302C156.709 119.4 156.756 119.484 156.816 119.548C156.875 119.611 156.945 119.651 157.017 119.663C157.09 119.676 157.163 119.661 157.231 119.62C157.298 119.578 157.358 119.512 157.404 119.427C157.45 119.343 157.48 119.242 157.493 119.135C157.505 119.027 157.5 118.917 157.476 118.814C157.413 118.425 157.233 118.277 157.251 118.17C157.269 118.062 157.575 118.062 157.782 118.626C157.838 118.797 157.868 118.986 157.868 119.176C157.868 119.367 157.838 119.556 157.782 119.727C157.702 119.942 157.58 120.117 157.432 120.227C157.284 120.337 157.117 120.378 156.954 120.344C156.806 120.332 156.664 120.258 156.543 120.131C156.423 120.004 156.329 119.828 156.272 119.625C156.216 119.421 156.199 119.198 156.224 118.981C156.249 118.764 156.314 118.562 156.413 118.398C156.719 117.915 157.026 118.049 157.008 118.129Z" fill="#455A64"/>
<path d="M143.527 130.077C143.527 130.077 143.527 130.789 143.527 132.064C143.555 133.85 143.752 135.622 144.112 137.326C144.38 138.467 144.792 139.52 145.328 140.427C145.968 141.415 146.811 142.058 147.723 142.253C148.722 142.569 149.763 142.355 150.668 141.649C151.623 140.839 152.4 139.63 152.901 138.172C153.761 135.663 154.281 132.926 154.432 130.117L154.657 130.466C151.433 130.466 148.678 130.372 146.697 130.305L144.364 130.211C144.063 130.217 143.762 130.191 143.464 130.131C143.719 130.066 143.979 130.039 144.238 130.05L146.525 129.956C148.498 129.889 151.316 129.822 154.63 129.809H154.864V130.158C154.739 133.091 154.206 135.953 153.297 138.561C152.755 140.138 151.912 141.44 150.875 142.307C149.879 143.069 148.737 143.296 147.642 142.951C146.642 142.713 145.725 141.98 145.04 140.87C144.478 139.891 144.052 138.754 143.788 137.528C143.451 135.783 143.299 133.972 143.338 132.158C143.323 131.453 143.387 130.75 143.527 130.077Z" fill="#455A64"/>
<path d="M178.593 197.749C178.387 197.99 178.152 198.168 177.9 198.273C177.23 198.631 176.53 198.844 175.819 198.903C174.638 199.036 173.452 198.781 172.344 198.157C171.236 197.532 170.234 196.553 169.407 195.289C168.58 194.024 167.95 192.505 167.559 190.838C167.169 189.171 167.028 187.397 167.147 185.64C167.204 184.586 167.365 183.55 167.625 182.566C167.814 181.868 167.958 181.519 167.985 181.546C167.725 182.891 167.556 184.272 167.481 185.667C167.405 187.342 167.567 189.021 167.956 190.596C168.345 192.172 168.952 193.607 169.738 194.809C170.524 196.011 171.471 196.952 172.517 197.572C173.563 198.192 174.685 198.477 175.81 198.407C176.75 198.321 177.682 198.101 178.593 197.749Z" fill="#455A64"/>
<path d="M93.637 226.262C93.637 226.074 113.178 225.913 137.268 225.913C161.357 225.913 180.898 226.074 180.898 226.262C180.898 226.45 161.366 226.611 137.268 226.611C113.169 226.611 93.637 226.464 93.637 226.262Z" fill="#455A64"/>
<path d="M390.362 166.269C390.362 166.269 390.092 166.269 389.542 166.269H387.066L377.439 166.363L341.319 166.551L216.676 166.833H216.334L216.244 166.349C214.88 159.37 214.64 152.009 215.545 144.865C216.45 137.722 218.474 130.998 221.452 125.241C224.43 119.484 228.278 114.856 232.683 111.736C237.087 108.615 241.924 107.089 246.799 107.282L246.34 108.168C245.574 104.124 245.249 99.9224 245.376 95.7241C245.764 81.3735 251.239 67.5331 259.65 61.076C263.729 57.8956 268.269 56.2512 272.873 56.2863C277.477 56.3214 282.005 58.0349 286.062 61.2773L285.414 61.6264C289.917 45.3292 299.345 33.5158 309.602 28.0656C319.859 22.6153 331.305 23.2194 340.274 30.2135C348.799 36.9377 355.505 47.8444 359.258 61.0894C362.689 72.7738 363.492 85.8003 361.545 98.2211L361.194 97.6304C366.093 96.8588 371.045 97.9152 375.602 100.705C379.656 103.158 383.306 106.89 386.3 111.645C387.668 113.775 388.807 116.207 389.677 118.854C390.445 121.311 391.048 123.874 391.479 126.506C392.21 131.089 392.62 135.772 392.703 140.481C392.862 146.968 392.487 153.46 391.587 159.812C391.347 161.46 391.046 163.086 390.686 164.685C390.434 165.759 390.299 166.269 390.299 166.269" fill="#305CDE"/>
<g opacity="0.3">
<path d="M390.362 166.269C390.362 166.269 390.092 166.269 389.542 166.269H387.066L377.439 166.363L341.319 166.551L216.676 166.833H216.334L216.244 166.349C214.88 159.37 214.64 152.009 215.545 144.865C216.45 137.722 218.474 130.998 221.452 125.241C224.43 119.484 228.278 114.856 232.683 111.736C237.087 108.615 241.924 107.089 246.799 107.282L246.34 108.168C245.574 104.124 245.249 99.9224 245.376 95.7241C245.764 81.3735 251.239 67.5331 259.65 61.076C263.729 57.8956 268.269 56.2512 272.873 56.2863C277.477 56.3214 282.005 58.0349 286.062 61.2773L285.414 61.6264C289.917 45.3292 299.345 33.5158 309.602 28.0656C319.859 22.6153 331.305 23.2194 340.274 30.2135C348.799 36.9377 355.505 47.8444 359.258 61.0894C362.689 72.7738 363.492 85.8003 361.545 98.2211L361.194 97.6304C366.093 96.8588 371.045 97.9152 375.602 100.705C379.656 103.158 383.306 106.89 386.3 111.645C387.668 113.775 388.807 116.207 389.677 118.854C390.445 121.311 391.048 123.874 391.479 126.506C392.21 131.089 392.62 135.772 392.703 140.481C392.862 146.968 392.487 153.46 391.587 159.812C391.347 161.46 391.046 163.086 390.686 164.685C390.434 165.759 390.299 166.269 390.299 166.269" fill="black"/>
</g>
<path d="M376.584 166.269C376.584 166.269 376.314 166.269 375.755 166.269H373.288L363.652 166.363L327.541 166.551L202.889 166.833H202.556L202.457 166.349C201.092 159.369 200.853 152.006 201.759 144.862C202.664 137.717 204.689 130.992 207.668 125.235C210.647 119.478 214.496 114.851 218.902 111.731C223.308 108.611 228.145 107.087 233.021 107.282L232.562 108.168C231.789 104.112 231.464 99.8957 231.598 95.6839C231.977 81.3333 237.461 67.4928 245.872 61.0357C249.95 57.8553 254.488 56.211 259.09 56.2461C263.693 56.2812 268.219 57.9947 272.275 61.237L271.636 61.5861C276.139 45.289 285.567 33.4756 295.824 28.0253C306.081 22.575 317.518 23.1791 326.487 30.1732C335.015 36.893 341.721 47.8011 345.471 61.0491C348.911 72.7047 349.732 85.7056 347.812 98.1137L347.461 97.523C352.36 96.7457 357.313 97.8023 361.869 100.597C365.927 103.047 369.58 106.78 372.576 111.538C373.941 113.668 375.077 116.1 375.944 118.747C376.716 121.201 377.319 123.764 377.746 126.399C378.477 130.981 378.887 135.665 378.97 140.373C379.127 146.861 378.749 153.354 377.845 159.704C377.608 161.354 377.308 162.981 376.944 164.577C376.692 165.651 376.557 166.162 376.557 166.162" fill="#305CDE"/>
<path d="M322.66 106.316C322.403 105.081 322.266 103.797 322.255 102.503C322.084 101.295 321.94 99.8186 321.652 98.1137L321.138 95.4288C320.94 94.4891 320.652 93.536 320.4 92.5158C319.072 87.8071 317.149 83.523 314.736 79.8969C311.774 75.4861 308.132 72.2261 304.128 70.4028C300.124 68.5795 295.882 68.2487 291.772 69.4393C288.409 70.4053 285.208 72.3534 282.353 75.1715C280.422 77.0856 278.653 79.3392 277.084 81.8837C276.517 82.7831 276.103 83.5215 275.815 84.0182C275.527 84.5149 275.346 84.7431 275.31 84.7028C275.274 84.6625 275.364 84.3403 275.59 83.7765C275.903 82.9296 276.261 82.1216 276.661 81.3601C278.112 78.5159 279.839 76.0095 281.785 73.9231C284.697 70.8083 288.013 68.632 291.52 67.5331C295.84 66.1759 300.321 66.4738 304.543 68.3989C308.765 70.3239 312.591 73.8134 315.663 78.541C318.142 82.3945 320.067 86.9628 321.319 91.9653C321.553 93.0393 321.832 94.0461 321.994 95.0261C322.156 96.0061 322.282 96.9592 322.417 97.8318C322.642 99.6038 322.705 101.148 322.795 102.396C322.874 103.706 322.828 105.025 322.66 106.316Z" fill="#FAFAFA"/>
<path d="M310.305 92.6365C310.539 92.1667 316.176 98.0063 322.912 105.591L323.291 106.007L322.201 106.504C324.902 94.9321 327.388 85.817 327.748 86.0049C328.108 86.1929 326.226 95.6033 323.525 107.188L323.209 108.531L322.435 107.658L322.066 107.229C315.321 99.644 310.071 93.0393 310.305 92.6365Z" fill="#FAFAFA"/>
<path d="M273.896 99.926C274.044 101.162 274.074 102.423 273.986 103.671C274.031 104.866 274.094 106.356 274.203 108.007C274.362 109.902 274.611 111.777 274.95 113.619C275.811 118.407 277.275 122.908 279.264 126.882C281.687 131.744 284.859 135.667 288.512 138.32L289.223 138.856L289.971 139.299L291.439 140.159C291.934 140.4 292.438 140.588 292.934 140.816C293.421 141.044 293.917 141.228 294.419 141.367C296.331 141.98 298.282 142.272 300.237 142.239C303.562 142.164 306.845 141.134 309.909 139.206C311.989 137.893 313.957 136.217 315.771 134.212C316.419 133.514 316.915 132.936 317.248 132.534C317.581 132.131 317.779 131.983 317.815 132.023C317.851 132.064 317.725 132.359 317.437 132.842C317.032 133.561 316.59 134.23 316.113 134.843C314.382 137.159 312.431 139.081 310.323 140.548C307.187 142.764 303.778 143.993 300.309 144.159C298.251 144.259 296.193 143.997 294.176 143.38C293.646 143.245 293.123 143.057 292.609 142.817C292.087 142.588 291.547 142.387 291.024 142.132L289.467 141.233L288.683 140.776L287.927 140.199L286.423 139.044C285.936 138.615 285.477 138.145 285.009 137.702C284.1 136.81 283.228 135.837 282.397 134.789C281.983 134.292 281.623 133.702 281.236 133.178C280.848 132.654 280.47 132.117 280.146 131.527L279.155 129.782L278.678 128.922L278.255 128.023C275.423 122.198 273.758 115.294 273.455 108.115C273.455 106.37 273.455 104.866 273.455 103.644C273.478 102.379 273.627 101.126 273.896 99.926Z" fill="#FAFAFA"/>
<path d="M285 115.753C284.73 116.169 279.597 109.39 273.572 100.611L273.23 100.114L274.356 99.832C270.7 110.813 267.512 119.418 267.151 119.163C266.791 118.908 269.439 109.914 273.077 98.9057L273.5 97.5633L274.194 98.5701L274.536 99.0668C280.623 107.887 285.306 115.337 285 115.753Z" fill="#FAFAFA"/>
<path d="M453.633 233.995C453.633 233.995 453.633 233.766 453.633 233.31V231.296C453.633 229.484 453.633 226.866 453.588 223.497C453.588 216.677 453.588 206.797 453.516 194.487L453.678 194.715L380.384 194.836L299.03 194.688H298.895V194.487C298.895 185.801 298.94 178.941 298.958 174.216C298.958 171.88 298.958 170.081 298.958 168.846C298.958 168.256 298.958 167.799 298.958 167.504C298.945 167.348 298.945 167.19 298.958 167.034C298.958 167.034 298.958 167.195 298.958 167.504C298.958 167.813 298.958 168.296 298.958 168.846C298.958 170.095 298.958 171.894 298.958 174.216C298.958 178.941 298.958 185.801 299.021 194.487L298.886 194.285L380.24 194.138L453.534 194.245H453.697V194.487C453.697 206.797 453.633 216.677 453.624 223.497C453.624 226.866 453.624 229.484 453.579 231.296C453.579 232.169 453.579 232.827 453.579 233.31C453.605 233.537 453.623 233.765 453.633 233.995Z" fill="#305CDE"/>
<path d="M226.871 226.262C226.745 226.262 226.637 212.945 226.637 196.514C226.637 180.083 226.745 166.766 226.871 166.766C226.997 166.766 227.105 180.083 227.105 196.514C227.105 212.945 226.997 226.262 226.871 226.262Z" fill="#305CDE"/>
</svg>
